<svg xmlns="http://www.w3.org/2000/svg" viewBox="0 0 1044 534">
  <defs>
    <style>
      .cls-1, .cls-12, .cls-3 {
        fill: none;
      }

      .cls-1, .cls-2 {
        stroke: #ccc;
      }

      .cls-2 {
        fill: #fff;
      }

      .cls-3, .cls-4 {
        stroke: #707070;
      }

      .cls-4 {
        fill: #f7f7f7;
      }

      .cls-5, .cls-6, .cls-7 {
        fill: #383838;
        font-family: Helvetica-Light, Helvetica;
        font-weight: 300;
      }

      .cls-5 {
        font-size: 16px;
      }

      .cls-6 {
        font-size: 12px;
      }

      .cls-7 {
        font-size: 14px;
      }

      .cls-8 {
        fill: #707070;
      }

      .cls-9 {
        fill: #ccc;
      }

      .cls-10 {
        fill: #a8a8a8;
      }

      .cls-11 {
        stroke: none;
      }
    </style>
  </defs>
  <g id="Group_161" data-name="Group 161" transform="translate(-317 -247)">
    <g id="Rectangle_428" data-name="Rectangle 428" class="cls-1" transform="translate(602.031 481.367)">
      <rect class="cls-11" width="179.551" height="167.633"/>
      <rect class="cls-12" x="0.5" y="0.5" width="178.551" height="166.633"/>
    </g>
    <g id="Rectangle_429" data-name="Rectangle 429" class="cls-1" transform="translate(780.685 396.116)">
      <rect class="cls-11" width="179.551" height="252.884"/>
      <rect class="cls-12" x="0.5" y="0.5" width="178.551" height="251.884"/>
    </g>
    <g id="Rectangle_430" data-name="Rectangle 430" class="cls-1" transform="translate(959.338 396.116)">
      <rect class="cls-11" width="179.551" height="252.884"/>
      <rect class="cls-12" x="0.5" y="0.5" width="178.551" height="251.884"/>
    </g>
    <g id="Rectangle_431" data-name="Rectangle 431" class="cls-1" transform="translate(1137.992 396.116)">
      <rect class="cls-11" width="179.551" height="252.884"/>
      <rect class="cls-12" x="0.5" y="0.5" width="178.551" height="251.884"/>
    </g>
    <g id="Rectangle_434" data-name="Rectangle 434" class="cls-2" transform="translate(602.031 396.116)">
      <rect class="cls-11" width="358.551" height="86.314"/>
      <rect class="cls-12" x="0.5" y="0.5" width="357.551" height="85.314"/>
    </g>
    <g id="Rectangle_435" data-name="Rectangle 435" class="cls-2" transform="translate(959.031 396.116)">
      <rect class="cls-11" width="358.551" height="86.314"/>
      <rect class="cls-12" x="0.5" y="0.5" width="357.551" height="85.314"/>
    </g>
    <g id="Rectangle_436" data-name="Rectangle 436" class="cls-2" transform="translate(602.031 481.126)">
      <rect class="cls-11" width="239.168" height="86.314"/>
      <rect class="cls-12" x="0.5" y="0.5" width="238.168" height="85.314"/>
    </g>
    <g id="Rectangle_437" data-name="Rectangle 437" class="cls-2" transform="translate(840.203 481.126)">
      <rect class="cls-11" width="239.168" height="86.314"/>
      <rect class="cls-12" x="0.5" y="0.5" width="238.168" height="85.314"/>
    </g>
    <g id="Rectangle_438" data-name="Rectangle 438" class="cls-2" transform="translate(1078.375 481.126)">
      <rect class="cls-11" width="239.168" height="86.314"/>
      <rect class="cls-12" x="0.5" y="0.5" width="238.168" height="85.314"/>
    </g>
    <g id="Rectangle_439" data-name="Rectangle 439" class="cls-2" transform="translate(602.031 311.1)">
      <rect class="cls-11" width="715.551" height="86.314"/>
      <rect class="cls-12" x="0.5" y="0.5" width="714.551" height="85.314"/>
    </g>
    <g id="Rectangle_426" data-name="Rectangle 426" class="cls-3" transform="translate(361 266)">
      <rect class="cls-11" width="1000" height="383"/>
      <rect class="cls-12" x="0.5" y="0.5" width="999" height="382"/>
    </g>
    <g id="Rectangle_427" data-name="Rectangle 427" class="cls-4" transform="translate(361 266)">
      <rect class="cls-11" width="200" height="383"/>
      <rect class="cls-12" x="0.5" y="0.5" width="199" height="382"/>
    </g>
    <text id="_288px_static" data-name="288px static" class="cls-5" transform="translate(461 692)"><tspan x="-43.576" y="0">288px static</tspan></text>
    <text id="_1152px_fluid" data-name="1152px fluid" class="cls-5" transform="translate(961 700)"><tspan x="-44.016" y="0">1152px fluid</tspan></text>
    <text id="_72px" data-name="72px" class="cls-6" transform="translate(960 290)"><tspan x="-13.338" y="0">72px</tspan></text>
    <text id="_56px" data-name="56px" class="cls-6" transform="translate(582 462)"><tspan x="-13.338" y="0">56px</tspan></text>
    <text id="_56px-2" data-name="56px" class="cls-6" transform="translate(1338 462)"><tspan x="-13.338" y="0">56px</tspan></text>
    <text id="_25_-_4_col" data-name="25% - 4 col" class="cls-7" transform="translate(692 611)"><tspan x="-35.406" y="0">25% - 4 col</tspan></text>
    <text id="_25_-_4_col-2" data-name="25% - 4 col" class="cls-7" transform="translate(870 611)"><tspan x="-35.406" y="0">25% - 4 col</tspan></text>
    <text id="_25_-_4_col-3" data-name="25% - 4 col" class="cls-7" transform="translate(1049 611)"><tspan x="-35.406" y="0">25% - 4 col</tspan></text>
    <text id="_25_-_4_col-4" data-name="25% - 4 col" class="cls-7" transform="translate(1228 611)"><tspan x="-35.406" y="0">25% - 4 col</tspan></text>
    <g id="Rectangle_432" data-name="Rectangle 432" class="cls-1" transform="translate(397.031 306.359)">
      <rect class="cls-11" width="126.551" height="305.547"/>
      <rect class="cls-12" x="0.5" y="0.5" width="125.551" height="304.547"/>
    </g>
    <text id="_100_" data-name="100%" class="cls-7" transform="translate(461 464)"><tspan x="-17.899" y="0">100%</tspan></text>
    <text id="_100_2" data-name="100%" class="cls-7" transform="translate(461 464)"><tspan x="-17.899" y="0">100%</tspan></text>
    <text id="_60px" data-name="60px" class="cls-6" transform="translate(541 462)"><tspan x="-13.338" y="0">60px</tspan></text>
    <text id="_55px" data-name="55px" class="cls-6" transform="translate(381 462)"><tspan x="-13.338" y="0">55px</tspan></text>
    <text id="_72px-2" data-name="72px" class="cls-6" transform="translate(461 290)"><tspan x="-13.338" y="0">72px</tspan></text>
    <text id="_72px-3" data-name="72px" class="cls-6" transform="translate(460 634)"><tspan x="-13.338" y="0">72px</tspan></text>
    <rect id="Rectangle_433" data-name="Rectangle 433" class="cls-8" width="3" height="381" transform="translate(362 267)"/>
    <text id="_5px" data-name="5px" class="cls-6" transform="translate(328 460)"><tspan x="-10.002" y="0">5px</tspan></text>
    <line id="Line_61" data-name="Line 61" class="cls-3" x2="17" transform="translate(339.5 457.5)"/>
    <line id="Line_62" data-name="Line 62" class="cls-3" y1="12" transform="translate(361.5 252.5)"/>
    <line id="Line_63" data-name="Line 63" class="cls-3" y1="52" transform="translate(397.5 252.5)"/>
    <text id="_60px-2" data-name="60px" class="cls-6" transform="translate(380 256)"><tspan x="-13.338" y="0">60px</tspan></text>
    <path id="Path_316" data-name="Path 316" class="cls-3" d="M0,0S33.478,11.928,49.892,34.792,65.655,91.456,65.655,91.456" transform="translate(1119.5 654.5)"/>
    <text id="_72px_Padding_on_Bottom_once_user_reaches_end_of_scroll" data-name="72px Padding on Bottom once
user reaches end of scroll" class="cls-6" transform="translate(1185 762)"><tspan x="-81.702" y="0">72px Padding on Bottom once</tspan><tspan x="-69.48" y="16">user reaches end of scroll</tspan></text>
    <text id="_50_-_2_col" data-name="50% - 2 col" class="cls-7" transform="translate(782 444)"><tspan x="-35.406" y="0">50% - 2 col</tspan></text>
    <text id="_50_-_2_col-2" data-name="50% - 2 col" class="cls-7" transform="translate(1138 444)"><tspan x="-35.406" y="0">50% - 2 col</tspan></text>
    <text id="_33.33_-_3_col" data-name="33.33% - 3 col" class="cls-7" transform="translate(722 529)"><tspan x="-45.136" y="0">33.33% - 3 col</tspan></text>
    <text id="_33.34_-_3_col" data-name="33.34% - 3 col" class="cls-7" transform="translate(959 529)"><tspan x="-45.136" y="0">33.34% - 3 col</tspan></text>
    <text id="_33.33_-_3_col-2" data-name="33.33% - 3 col" class="cls-7" transform="translate(1198 529)"><tspan x="-45.136" y="0">33.33% - 3 col</tspan></text>
    <text id="_100_-_1_col" data-name="100% - 1 col" class="cls-7" transform="translate(959 359)"><tspan x="-39.298" y="0">100% - 1 col</tspan></text>
    <rect id="Rectangle_440" data-name="Rectangle 440" class="cls-9" width="12" height="335" transform="translate(603 311)"/>
    <rect id="Rectangle_441" data-name="Rectangle 441" class="cls-9" width="12" height="336.125" transform="translate(1305 312.003)"/>
    <text id="_72px_Padding_on_Bottom_once_user_reaches_end_of_scroll-2" data-name="72px Padding on Bottom once
user reaches end of scroll" class="cls-6" transform="translate(1185 762)"><tspan x="-81.702" y="0">72px Padding on Bottom once</tspan><tspan x="-69.48" y="16">user reaches end of scroll</tspan></text>
    <rect id="Rectangle_442" data-name="Rectangle 442" class="cls-10" width="12" height="84.126" transform="translate(960 397)"/>
    <rect id="Rectangle_443" data-name="Rectangle 443" class="cls-9" width="12" height="336.125" transform="translate(603 312)"/>
    <rect id="Rectangle_444" data-name="Rectangle 444" class="cls-9" width="12" height="84.126" transform="translate(947 397)"/>
    <rect id="Rectangle_445" data-name="Rectangle 445" class="cls-10" width="12" height="81.097" transform="translate(960 567)"/>
    <rect id="Rectangle_446" data-name="Rectangle 446" class="cls-9" width="12" height="81.097" transform="translate(948 567)"/>
    <rect id="Rectangle_447" data-name="Rectangle 447" class="cls-10" width="12" height="84.489" transform="translate(841 482)"/>
    <rect id="Rectangle_448" data-name="Rectangle 448" class="cls-9" width="12" height="84.489" transform="translate(829 482)"/>
    <rect id="Rectangle_449" data-name="Rectangle 449" class="cls-10" width="12" height="85" transform="translate(1079 482)"/>
    <rect id="Rectangle_450" data-name="Rectangle 450" class="cls-9" width="12" height="85" transform="translate(1067 482)"/>
    <rect id="Rectangle_451" data-name="Rectangle 451" class="cls-10" width="12" height="81.042" transform="translate(781 567)"/>
    <rect id="Rectangle_452" data-name="Rectangle 452" class="cls-9" width="12" height="81.042" transform="translate(769 567)"/>
    <rect id="Rectangle_453" data-name="Rectangle 453" class="cls-10" width="12" height="81.128" transform="translate(1139 567)"/>
    <rect id="Rectangle_454" data-name="Rectangle 454" class="cls-9" width="12" height="81.128" transform="translate(1126 567)"/>
    <line id="Line_64" data-name="Line 64" class="cls-3" y1="52" transform="translate(601.5 652.5)"/>
    <text id="_16px_gutters" data-name="16px
gutters" class="cls-6" transform="translate(609 717)"><tspan x="-13.338" y="0">16px</tspan><tspan x="-18.672" y="16">gutters</tspan></text>
    <line id="Line_65" data-name="Line 65" class="cls-3" y1="52" transform="translate(615.5 652.5)"/>
    <line id="Line_66" data-name="Line 66" class="cls-3" y1="52" transform="translate(767.5 649.5)"/>
    <text id="_32px_parallel_gutters_16px_each_grid_" data-name="32px
parallel gutters
(16px each grid)" class="cls-6" transform="translate(781 717)"><tspan x="-13.338" y="0">32px</tspan><tspan x="-40.008" y="16">parallel gutters</tspan><tspan x="-44.676" y="32">(16px each grid)</tspan></text>
    <line id="Line_67" data-name="Line 67" class="cls-3" y1="52" transform="translate(781.5 649.5)"/>
    <line id="Line_68" data-name="Line 68" class="cls-3" y1="52" transform="translate(793.5 649.5)"/>
  </g>
</svg>
