<?xml version="1.0" encoding="utf-8"?>
<!-- Generator: Adobe Illustrator 22.1.0, SVG Export Plug-In . SVG Version: 6.00 Build 0)  -->
<svg version="1.1" id="Layer_1" xmlns="http://www.w3.org/2000/svg" xmlns:xlink="http://www.w3.org/1999/xlink" x="0px" y="0px"
	 viewBox="0 0 95.6 95.8" style="enable-background:new 0 0 95.6 95.8;" xml:space="preserve">
<path class="st0" d="M66.6,31.9h15.1c1.1,0,2,0.9,2,2c0,1.1-0.7,1.9-1.8,1.9H62.4c-0.2,0.1-0.4,0.1-0.6,0.1c-0.5,0-1-0.2-1.4-0.6
	c-0.5-0.5-0.6-1.1-0.5-1.7V13.8c0-1.1,0.8-1.8,1.9-1.8s2,0.9,2,2v15.1L92.2,0.6c0.8-0.8,2-0.8,2.8,0s0.8,2,0,2.8L66.6,31.9z
	 M35.8,81.8c0,1.1-0.9,2-2,2c-1.1,0-2-0.9-2-2V66.7L3.4,95.2C3,95.6,2.5,95.8,2,95.8s-1-0.2-1.4-0.6c-0.8-0.8-0.8-2,0-2.8L29,63.9
	H13.9c-1.1,0-2-0.9-2-2c0-1.1,0.9-2,2-2h19.9c0.3,0,0.5,0.1,0.8,0.2c0.5,0.2,0.9,0.6,1.1,1.1c0.1,0.2,0.2,0.5,0.2,0.8V81.8z
	 M33.9,35.9c-0.2,0-0.4-0.1-0.6-0.1H13.8c-1.1,0-1.9-0.8-1.9-1.9c0-1.1,0.9-2,2-2H29L0.6,3.4c-0.8-0.8-0.8-2,0-2.8s2-0.8,2.8,0
	l28.5,28.5V14c0-1.1,0.9-2,2-2c1.1,0,2,0.9,2,2v20c0,0.5-0.2,1-0.6,1.4C34.9,35.7,34.4,35.9,33.9,35.9z M61,60
	c0.2-0.1,0.5-0.2,0.8-0.2h19.9c1.1,0,2,0.9,2,2c0,1.1-0.9,2-2,2H66.6L95,92.4c0.8,0.8,0.8,2,0,2.8c-0.4,0.4-0.9,0.6-1.4,0.6
	c-0.5,0-1-0.2-1.4-0.6L63.7,66.7l0,15.1c0,1.1-0.9,2-2,2c-1.1,0-1.9-0.9-1.9-2V62.2c-0.1-0.6,0-1.3,0.5-1.7
	C60.5,60.3,60.7,60.1,61,60z"/>
</svg>
