<?xml version="1.0" encoding="utf-8"?>
<!-- Generator: Adobe Illustrator 22.1.0, SVG Export Plug-In . SVG Version: 6.00 Build 0)  -->
<svg version="1.1" id="Layer_1" xmlns="http://www.w3.org/2000/svg" xmlns:xlink="http://www.w3.org/1999/xlink" x="0px" y="0px"
	 viewBox="0 0 90.3 59.7" style="enable-background:new 0 0 90.3 59.7;" xml:space="preserve">

<path class="st0" d="M86.9,26.5l-83.7,0C1.5,26.5,0,28,0,29.8l0,0C0,31.5,1.5,33,3.2,33l83.7,0c1.8,0,3.2-1.5,3.2-3.2v0
	C90.2,27.9,88.7,26.5,86.9,26.5z"/>
<path class="st0" d="M85.2,27.7L67.5,43.9c-1.2,1.1-1.3,3-0.2,4.2l0,0c1.1,1.2,3,1.3,4.2,0.2l17.7-16.3c1.2-1.1,1.3-3,0.2-4.2l0,0
	C88.3,26.6,86.4,26.5,85.2,27.7z"/>
<path class="st0" d="M89.5,27.8L73.2,10.1c-1.1-1.2-3-1.3-4.2-0.2v0c-1.2,1.1-1.3,3-0.2,4.2l16.3,17.7c1.1,1.2,3,1.3,4.2,0.2v0
	C90.6,30.9,90.6,29,89.5,27.8z"/>
</svg>
