<?xml version="1.0" encoding="utf-8"?>
<!-- Generator: Adobe Illustrator 22.1.0, SVG Export Plug-In . SVG Version: 6.00 Build 0)  -->
<svg version="1.1" id="Layer_1" xmlns="http://www.w3.org/2000/svg" xmlns:xlink="http://www.w3.org/1999/xlink" x="0px" y="0px"
	 viewBox="0 0 80 96" style="enable-background:new 0 0 80 96;" xml:space="preserve">

<path class="st0" d="M76,96H4c-2.2,0-4-1.8-4-4V20c0-2.2,1.8-4,4-4h22V8c0-4.4,3.6-8,8-8h12c4.4,0,8,3.6,8,8v8h22c2.2,0,4,1.8,4,4
	v72C80,94.2,78.2,96,76,96z M50,8c0-2.2-1.8-4-4-4H34c-2.2,0-4,1.8-4,4v8h20V8z M54,20v6c0,1.1-0.9,2-2,2s-2-0.9-2-2v-6H30v6
	c0,1.1-0.9,2-2,2s-2-0.9-2-2v-6H4v72h72l0-72H54z"/>
</svg>
