<?xml version="1.0" encoding="utf-8"?>
<!-- Generator: Adobe Illustrator 22.1.0, SVG Export Plug-In . SVG Version: 6.00 Build 0)  -->
<svg version="1.1" id="Layer_1" xmlns="http://www.w3.org/2000/svg" xmlns:xlink="http://www.w3.org/1999/xlink" x="0px" y="0px"
	 viewBox="0 0 84 96" style="enable-background:new 0 0 84 96;" xml:space="preserve">

<path class="st0" d="M42,96C18.8,96,0,77.6,0,55.1c0-17.8,11.8-33.5,29.4-39c1.1-0.3,2.2,0.3,2.5,1.3c0.3,1.1-0.3,2.2-1.3,2.5
	C14.9,24.8,4,39.3,4,55.1C4,75.4,21,92,42,92s38-16.6,38-36.9c0-16-10.7-30.2-26.6-35.1c-1.1-0.3-1.6-1.5-1.3-2.5
	c0.3-1.1,1.4-1.6,2.5-1.3C72.2,21.6,84,37.3,84,55.1C84,77.6,65.2,96,42,96z M42,36c-1.1,0-2-0.9-2-2V2c0-1.1,0.9-2,2-2s2,0.9,2,2
	v32C44,35.1,43.1,36,42,36z"/>
</svg>
