<?xml version="1.0" encoding="utf-8"?>
<!-- Generator: Adobe Illustrator 24.1.0, SVG Export Plug-In . SVG Version: 6.00 Build 0)  -->
<svg version="1.1" id="Layer_1" xmlns="http://www.w3.org/2000/svg" xmlns:xlink="http://www.w3.org/1999/xlink" x="0px" y="0px"
	 viewBox="0 0 97.4 72.3" style="enable-background:new 0 0 97.4 72.3;" xml:space="preserve">
<g>
	<path d="M14.3,13.6v44.8c0,1.4,1.1,2.1,2.1,2.1c1.1,0,2.1-1.1,2.1-2.1V13.6c0-1.4-1.1-2.1-2.1-2.1C15.4,11.5,14.3,12.5,14.3,13.6z"
		/>
	<path d="M83.1,58.7V13.6c0-1.4-1.1-2.1-2.1-2.1s-2.1,1.1-2.1,2.1v44.8c0,1.4,1.1,2.1,2.1,2.1S83.1,59.8,83.1,58.7z"/>
	<path d="M27.6,11.5c-1.4,0-2.1,1.1-2.1,2.1v29.7c0,1.4,1.1,2.1,2.1,2.1c1.1,0,2.1-1.1,2.1-2.1V14C29.7,12.5,28.6,11.5,27.6,11.5z"
		/>
	<path d="M48.7,11.5c-1.4,0-2.1,1.1-2.1,2.1v29.7c0,1.4,1.1,2.1,2.1,2.1s2.1-1.1,2.1-2.1V14C50.8,12.5,50.1,11.5,48.7,11.5z"/>
	<path d="M59.4,11.5c-1.4,0-2.1,1.1-2.1,2.1v29.7c0,1.4,1.1,2.1,2.1,2.1s2.1-1.1,2.1-2.1V14C61.6,12.5,60.5,11.5,59.4,11.5z"/>
	<path d="M69.8,45.5c1.4,0,2.1-1.1,2.1-2.1V14c0-1.4-1.1-2.1-2.1-2.1s-2.1,1.1-2.1,2.1v29.4C67.7,44.4,68.7,45.5,69.8,45.5z"/>
	<path d="M40.5,43.3V14c0-1.4-1.1-2.1-2.1-2.1c-1.4,0-2.1,1.1-2.1,2.1v29.4c0,1.4,1.1,2.1,2.1,2.1S40.5,44.4,40.5,43.3z"/>
	<path d="M27.6,50.5c-1.4,0-2.1,1.1-2.1,2.1v5.7c0,1.4,1.1,2.1,2.1,2.1c1.1,0,2.1-1.1,2.1-2.1v-5.7C29.7,51.6,28.6,50.5,27.6,50.5z"
		/>
	<path d="M41.5,50.5c-1.4,0-2.1,1.1-2.1,2.1v5.7c0,1.4,1.1,2.1,2.1,2.1s2.1-1.1,2.1-2.1v-5.7C44,51.6,43,50.5,41.5,50.5z"/>
	<path d="M55.8,50.5c-1.4,0-2.1,1.1-2.1,2.1v5.7c0,1.4,1.1,2.1,2.1,2.1c1.1,0,2.1-1.1,2.1-2.1v-5.7C58,51.6,56.9,50.5,55.8,50.5z"/>
	<path d="M72.3,58.7V53c0-1.4-1.1-2.1-2.1-2.1S68,51.9,68,53v5.7c0,1.4,1.1,2.1,2.1,2.1S72.3,59.8,72.3,58.7z"/>
	<path d="M2.5,20.4c1.4,0,2.1-1.1,2.1-2.1v-6.8c0-3.6,2.9-6.8,6.8-6.8h13.6c1.4,0,2.1-1.1,2.1-2.1s-1.1-2.1-2.1-2.1H11.5
		C5,0.4,0,5.4,0,11.8v6.4C0.4,19.3,1.4,20.4,2.5,20.4z"/>
	<path d="M25.4,67.7H11.8c-3.6,0-6.8-2.9-6.8-6.8v-8.2c0-1.4-1.1-2.1-2.1-2.1s-2.1,1.1-2.1,2.1v8.2c0,6.4,5,11.5,11.5,11.5h13.6
		c1.4,0,2.1-1.1,2.1-2.1S26.5,67.7,25.4,67.7z"/>
	<path d="M94.9,50.5c-1.4,0-2.1,1.1-2.1,2.1v8.2c0,3.6-2.9,6.8-6.8,6.8H72.7c-1.4,0-2.1,1.1-2.1,2.1s1.1,2.1,2.1,2.1h13.2
		c6.4,0,11.5-5,11.5-11.5v-8.2C97,51.6,95.9,50.5,94.9,50.5z"/>
	<path d="M85.6,0H72.3c-1.4,0-2.1,1.1-2.1,2.1s1.1,2.1,2.1,2.1h13.2c3.6,0,6.8,2.9,6.8,6.8v7.2c0,1.4,1.1,2.1,2.1,2.1
		s2.1-1.1,2.1-2.1v-6.8C97,5,92,0,85.6,0z"/>
</g>
</svg>
