<svg xmlns="http://www.w3.org/2000/svg" viewBox="0 0 30 30">
  <g id="Group_160856" data-name="Group 160856" transform="translate(15384 711)">
    <path id="Subtraction_2" data-name="Subtraction 2" d="M15391.06,732.331h-3.349a2.8,2.8,0,0,1-2.835-2.835v-2.023a.576.576,0,0,1,.519-.514.505.505,0,0,1,.518.514V729.5a1.676,1.676,0,0,0,1.675,1.674h3.349a.807.807,0,0,1,.643.642A.5.5,0,0,1,15391.06,732.331Zm12.873-.147h-1.341a.578.578,0,0,1-.519-.518.5.5,0,0,1,.519-.518h.3l1.035,1.035Zm2.456-.051h0l-.984-.985h.468a1.676,1.676,0,0,0,1.674-1.674v-2.023a.508.508,0,0,1,.519-.518,1.009,1.009,0,0,1,.615.394v2.023a2.79,2.79,0,0,1-2.29,2.784Zm-1.752-2.738a.5.5,0,0,1-.518-.514V717.841a.577.577,0,0,1,.518-.518.5.5,0,0,1,.519.518v11.114A.488.488,0,0,1,15404.637,729.4Zm-15.917,0a.5.5,0,0,1-.518-.514V717.841a.553.553,0,0,1,.518-.518.5.5,0,0,1,.519.518v11.041A.56.56,0,0,1,15388.72,729.4Zm9.711-.023a.5.5,0,0,1-.519-.518v-1.4a.5.5,0,0,1,.519-.518.541.541,0,0,1,.39.189.436.436,0,0,1,.124.329v1.4A.551.551,0,0,1,15398.431,729.373Zm-3.527,0a.5.5,0,0,1-.514-.518v-1.4a.5.5,0,0,1,.514-.518.579.579,0,0,1,.483.224.311.311,0,0,1,.035.295v1.4A.578.578,0,0,1,15394.9,729.373Zm-3.422,0a.5.5,0,0,1-.519-.518v-1.4a.5.5,0,0,1,.519-.518.575.575,0,0,1,.514.518v1.4A.551.551,0,0,1,15391.481,729.373Zm11.014-1.133,0,0-.96-.959a.6.6,0,0,1,.443-.245.5.5,0,0,1,.519.518v.688Zm-.619-2.537a.559.559,0,0,1-.515-.518v-7.243a.576.576,0,0,1,.515-.518.5.5,0,0,1,.519.518v7.243A.5.5,0,0,1,15401.876,725.7Zm-7.734,0a.507.507,0,0,1-.518-.518v-3.308l1.036,1.036v2.248A.583.583,0,0,1,15394.142,725.7Zm2.537-.027a.5.5,0,0,1-.519-.514v-.748l.97.969A.573.573,0,0,1,15396.679,725.676Zm-5.2,0a.5.5,0,0,1-.519-.514v-5.945l1.032,1.032v4.912A.55.55,0,0,1,15391.481,725.676Zm8.231-.218h0l-.914-.915v-6.7a.508.508,0,0,1,.882-.354.6.6,0,0,1,.154.455v7.22a.487.487,0,0,1-.12.3Zm-2.516-2.517,0,0-1.035-1.035v-4.064a.5.5,0,0,1,.519-.518c.329,0,.519.226.519.619v5Zm-2.537-2.537,0,0-1.034-1.035v-1.427a.507.507,0,0,1,.518-.518.5.5,0,0,1,.519.518v2.463Zm-9.366-.889a.768.768,0,0,1-.615-.541V717.4a2.735,2.735,0,0,1,1.838-2.626l.88.88a1.671,1.671,0,0,0-1.584,1.672V719A.506.506,0,0,1,15385.294,719.516Zm22.646-.023a.507.507,0,0,1-.518-.518V717.2a1.676,1.676,0,0,0-1.675-1.674h-3.252a.578.578,0,0,1-.519-.518.506.506,0,0,1,.519-.514h3.275a2.753,2.753,0,0,1,2.025.858,2.545,2.545,0,0,1,.662,1.95v1.674A.578.578,0,0,1,15407.939,719.493Zm-15.99-1.8-.354-.354a.581.581,0,0,1,.355.353Zm-1.11-2.046h-.936l-1.036-1.036h1.972a.578.578,0,0,1,.519.518A.5.5,0,0,1,15390.839,715.649Z" transform="translate(-30765.68 -1419.491)" fill="#8184a9"/>
    <rect id="Rectangle_7450" data-name="Rectangle 7450" width="0.887" height="31.091" rx="0.444" transform="translate(-15380.141 -706.404) rotate(-45)" fill="#8184a9"/>
  </g>
</svg>
