<?xml version="1.0" encoding="utf-8"?>
<!-- Generator: Adobe Illustrator 22.1.0, SVG Export Plug-In . SVG Version: 6.00 Build 0)  -->
<svg version="1.1" id="Layer_1" xmlns="http://www.w3.org/2000/svg" xmlns:xlink="http://www.w3.org/1999/xlink" x="0px" y="0px"
	 viewBox="0 0 92 96" style="enable-background:new 0 0 92 96;" xml:space="preserve">

<path class="st0" d="M90,96H70c-1.1,0-2-0.9-2-2V2c0-1.1,0.9-2,2-2h20c1.1,0,2,0.9,2,2v92C92,95.1,91.1,96,90,96z M88,4H72v88h16V4z
	 M56,96H36c-1.1,0-2-0.9-2-2V50c0-1.1,0.9-2,2-2h20c1.1,0,2,0.9,2,2v44C58,95.1,57.1,96,56,96z M54,52H38v40h16V52z M22,96H2
	c-1.1,0-2-0.9-2-2V34c0-1.1,0.9-2,2-2h20c1.1,0,2,0.9,2,2v60C24,95.1,23.1,96,22,96z M20,36H4v56h16V36z"/>
</svg>
