<?xml version="1.0" encoding="utf-8"?>
<!-- Generator: Adobe Illustrator 22.1.0, SVG Export Plug-In . SVG Version: 6.00 Build 0)  -->
<svg version="1.1" id="Layer_1" xmlns="http://www.w3.org/2000/svg" xmlns:xlink="http://www.w3.org/1999/xlink" x="0px" y="0px"
	 viewBox="0 0 95.9 96" style="enable-background:new 0 0 95.9 96;" xml:space="preserve">

<path class="st0" d="M95.8,30.6l-12.1,42c-0.2,0.9-1,1.4-1.9,1.4H41.7l0,0c0,0,0,0,0,0c-0.2,0-0.5-0.1-0.7-0.1
	c-0.1,0-0.1-0.1-0.2-0.1c-0.1-0.1-0.3-0.2-0.4-0.3c-0.1-0.1-0.1-0.1-0.2-0.2c-0.1-0.1-0.2-0.2-0.2-0.4c0-0.1-0.1-0.2-0.1-0.3
	c0,0,0-0.1-0.1-0.1L21.2,6.4C20.8,5.1,19.3,4,18,4H2C0.9,4,0,3.1,0,2s0.9-2,2-2h16c3.1,0,6.2,2.3,7,5.3L31.4,28h8.1L62,8.5
	c0.8-0.7,1.9-0.7,2.6,0L87,28h6.9c0.6,0,1.2,0.3,1.6,0.8C95.9,29.3,96,30,95.8,30.6z M63.3,12.6L45.6,28h35.3L63.3,12.6z M32.5,32
	l10.7,38h37.1l10.9-38H32.5z M47,82c3.9,0,7,3.1,7,7s-3.1,7-7,7s-7-3.1-7-7S43.1,82,47,82z M47,92c1.7,0,3-1.3,3-3s-1.3-3-3-3
	s-3,1.3-3,3S45.3,92,47,92z M76.9,82c3.9,0,7,3.1,7,7s-3.1,7-7,7c-3.9,0-7-3.1-7-7S73.1,82,76.9,82z M76.9,92c1.7,0,3-1.3,3-3
	s-1.3-3-3-3c-1.7,0-3,1.3-3,3S75.3,92,76.9,92z"/>
</svg>
