<?xml version="1.0" encoding="utf-8"?>
<!-- Generator: Adobe Illustrator 22.1.0, SVG Export Plug-In . SVG Version: 6.00 Build 0)  -->
<svg version="1.1" id="Layer_1" xmlns="http://www.w3.org/2000/svg" xmlns:xlink="http://www.w3.org/1999/xlink" x="0px" y="0px"
	 viewBox="0 0 83.7 96" style="enable-background:new 0 0 83.7 96;" xml:space="preserve">

<path class="st0" d="M83.1,82.2c-0.7,1.1-2,1.8-3.5,1.8H55.5c-1,6.8-6.7,12-13.7,12c-7,0-12.8-5.2-13.7-12H4c-1.5,0-2.8-0.6-3.5-1.8
	c-0.7-1.1-0.7-2.6,0-3.9l11.4-24.7V30c0-16.5,13.4-30,29.9-30c16.5,0,29.9,13.5,29.9,30v23.6l11.5,24.8
	C83.8,79.7,83.8,81.1,83.1,82.2z M41.8,92c4.8,0,8.8-3.4,9.8-8H32C33,88.6,37,92,41.8,92z M67.9,54.8C67.9,54.8,67.9,54.8,67.9,54.8
	c-0.1-0.1-0.1-0.3-0.1-0.4c0-0.1-0.1-0.3-0.1-0.4c0,0,0,0,0,0V30c0-14.3-11.6-26-25.9-26C27.5,4,15.9,15.7,15.9,30v24c0,0,0,0,0,0
	c0,0.1-0.1,0.3-0.1,0.4c0,0.1,0,0.3-0.1,0.4c0,0,0,0,0,0L4.1,80h75.5L67.9,54.8z"/>
</svg>
