<?xml version="1.0" encoding="utf-8"?>
<!-- Generator: Adobe Illustrator 22.1.0, SVG Export Plug-In . SVG Version: 6.00 Build 0)  -->
<svg version="1.1" id="Layer_1" xmlns="http://www.w3.org/2000/svg" xmlns:xlink="http://www.w3.org/1999/xlink" x="0px" y="0px"
	 viewBox="0 0 96 88" style="enable-background:new 0 0 96 88;" xml:space="preserve">

<path class="st0" d="M90.9,88H5.1C2.3,88,0,85.7,0,82.9V21.1C0,18.3,2.3,16,5.1,16H30V8.4C30,3.8,33.8,0,38.4,0h19.2
	C62.2,0,66,3.8,66,8.4V16h24.9c2.8,0,5.1,2.3,5.1,5.1v61.7C96,85.7,93.7,88,90.9,88z M62,8.4C62,6,60,4,57.6,4H38.4
	C36,4,34,6,34,8.4V16h28V8.4z M92,21.1c0-0.6-0.5-1.1-1.1-1.1H5.1C4.5,20,4,20.5,4,21.1V42h36v-0.3c0-4.3,3.6-7.7,8-7.7
	c2.1,0,4.1,0.8,5.6,2.2c1.5,1.5,2.4,3.4,2.4,5.5V42h36V21.1z M44,41.7v8.6c0,1,0.4,1.9,1.2,2.6c0.8,0.7,1.8,1.1,2.8,1.1
	c2.2,0,4-1.7,4-3.7v-8.6c0-1-0.4-1.9-1.2-2.6C50.1,38.4,49.1,38,48,38C45.8,38,44,39.7,44,41.7z M92,46H56v4.3c0,4.3-3.6,7.7-8,7.7
	c-2.1,0-4.1-0.8-5.6-2.2c-1.5-1.5-2.4-3.4-2.4-5.5V46H4v36.9C4,83.5,4.5,84,5.1,84h85.9c0.6,0,1.1-0.5,1.1-1.1V46z"/>
</svg>
