<?xml version="1.0" encoding="utf-8"?>
<!-- Generator: Adobe Illustrator 22.1.0, SVG Export Plug-In . SVG Version: 6.00 Build 0)  -->
<svg version="1.1" id="Layer_1" xmlns="http://www.w3.org/2000/svg" xmlns:xlink="http://www.w3.org/1999/xlink" x="0px" y="0px"
	 viewBox="0 0 96 84" style="enable-background:new 0 0 96 84;" xml:space="preserve">

<path class="st0" d="M48,72c-2.8,0-7.6,0-8.9,0c-6.6,11.1-20.4,12-21,12c0,0-0.1,0-0.1,0c-0.7,0-1.4-0.4-1.8-1
	c-0.4-0.7-0.3-1.5,0.1-2.1c0.1-0.1,5.1-7.1,5.5-15.5C7.8,57.8,0,47.5,0,36C0,16.1,21.5,0,48,0s48,16.1,48,36S74.5,72,48,72z M48,4
	C23.7,4,4,18.3,4,36c0,13.8,13.1,22.4,20.9,26.3c0.1,0,0.2,0.1,0.2,0.2c0.1,0.1,0.2,0.1,0.3,0.2c0.1,0.1,0.2,0.2,0.2,0.3
	c0.1,0.1,0.1,0.2,0.2,0.3c0.1,0.1,0.1,0.3,0.1,0.4c0,0.1,0.1,0.2,0.1,0.3c0,0,0,0.1,0,0.1c0,0,0,0,0,0c0,6.2-2.2,11.6-4,15.1
	c4.3-1.1,10.9-3.7,14.3-10.2c0.3-0.6,1-1,1.6-1c0.1,0,0.1,0,0.2,0l0.8,0c0,0,5.9,0,9.2,0c24.3,0,44-14.3,44-32C92,18.3,72.3,4,48,4z
	"/>
</svg>
