<?xml version="1.0" encoding="utf-8"?>
<!-- Generator: Adobe Illustrator 22.1.0, SVG Export Plug-In . SVG Version: 6.00 Build 0)  -->
<svg version="1.1" id="Layer_1" xmlns="http://www.w3.org/2000/svg" xmlns:xlink="http://www.w3.org/1999/xlink" x="0px" y="0px"
	 viewBox="0 0 96 88" style="enable-background:new 0 0 96 88;" xml:space="preserve">

<path class="st0" d="M82,71c0.9,8.6,5.4,13.6,5.5,13.6c0.5,0.6,0.7,1.4,0.4,2.2c-0.3,0.7-1,1.2-1.8,1.2c0,0,0,0,0,0
	c-0.5,0-12.6-0.3-20.9-10.1H58h0c-8.4,0-16.3-2.2-23-6.3c-0.9-0.6-1.2-1.8-0.6-2.8c0.6-0.9,1.8-1.2,2.8-0.6c6,3.7,13.2,5.7,20.9,5.7
	h8c0.6,0,1.2,0.3,1.6,0.8c4.3,5.5,10.3,7.8,14.2,8.7c-1.7-3-3.5-7.5-3.9-13.3c0-0.8,0.3-1.5,1-1.8C87.3,63.2,92,55.7,92,47
	c0-4.9-3.8-11.9-9.4-17.6c-0.8-0.8-0.8-2,0-2.8c0.8-0.8,2-0.8,2.8,0C91.8,33,96,41,96,47C96,56.8,91,65.3,82,71z M38,62L38,62H31
	C22.7,71.7,10.5,72,10,72c0,0,0,0,0,0c-0.8,0-1.5-0.5-1.8-1.2c-0.3-0.7-0.2-1.6,0.4-2.2c0-0.1,4.6-5.1,5.5-13.7C5,49.3,0,40.8,0,31
	C0,13.9,17,0,38,0s38,13.9,38,31C76,48.1,59,61.9,38,62z M38,4C19.3,4,4,16.1,4,31c0,8.7,4.7,16.3,13.1,21.2c0.6,0.4,1,1.1,1,1.9
	c-0.4,5.8-2.2,10.4-3.9,13.3c4-0.9,9.9-3.2,14.2-8.7c0.4-0.5,1-0.8,1.6-0.8h8c18.7,0,34-12.1,34-27C72,16.1,56.7,4,38,4z"/>
</svg>
