<?xml version="1.0" encoding="utf-8"?>
<!-- Generator: Adobe Illustrator 22.1.0, SVG Export Plug-In . SVG Version: 6.00 Build 0)  -->
<svg version="1.1" id="Layer_1" xmlns="http://www.w3.org/2000/svg" xmlns:xlink="http://www.w3.org/1999/xlink" x="0px" y="0px"
	 viewBox="0 0 60 86.5" style="enable-background:new 0 0 60 86.5;" xml:space="preserve">

<path class="st0" d="M45.8,54.1C44.3,55.3,44,58,44,58.9v17.5c0,0.1,0,0.2,0,0.3c-0.6,3.4-4.2,9.9-14,9.9s-13.4-6.5-14-10
	c0-0.1,0-0.2,0-0.3V58.9c0-0.9-0.4-3.5-1.8-4.8C4.9,47.5,0,38.9,0,29.2C0,13.1,13.5,0,30,0s30,13.1,30,29.2
	C60,38.9,55.1,47.5,45.8,54.1z M30,82.7c8.2,0,9.8-5.5,10-6.6v-8.3c-3.3,1.3-6.6,1.8-9.5,1.8c-4.3,0-8-1-10.4-1.9v8.4
	C20.2,77.2,21.8,82.7,30,82.7z M30,3.8C15.7,3.8,4,15.1,4,29.2C4,40,10.9,47.1,16.7,51.1c0,0,0,0.1,0.1,0.1c0,0,0.1,0,0.1,0.1
	c3,2.6,3.1,7.1,3.1,7.5l0,0l0,0v4.8c2.8,1.2,11.3,4.1,20,0v-4.8l0,0l0,0c0-0.5,0.1-5,3.1-7.6h0.1c0,0,0,0,0.1-0.1
	C49.1,47.1,56,40,56,29.2C56,15.1,44.3,3.8,30,3.8z"/>
</svg>
