<?xml version="1.0" encoding="utf-8"?>
<!-- Generator: Adobe Illustrator 22.1.0, SVG Export Plug-In . SVG Version: 6.00 Build 0)  -->
<svg version="1.1" id="Layer_1" xmlns="http://www.w3.org/2000/svg" xmlns:xlink="http://www.w3.org/1999/xlink" x="0px" y="0px"
	 viewBox="0 0 96 96" style="enable-background:new 0 0 96 96;" xml:space="preserve">

<path class="st0" d="M90.9,96H5.1C2.3,96,0,93.7,0,90.9V5.1C0,2.3,2.3,0,5.1,0h85.9C93.7,0,96,2.3,96,5.1v85.9
	C96,93.7,93.7,96,90.9,96z M92,5.1C92,4.5,91.5,4,90.9,4H5.1C4.5,4,4,4.5,4,5.1v85.9C4,91.5,4.5,92,5.1,92h85.9
	c0.6,0,1.1-0.5,1.1-1.1V5.1z M76.1,74h-20c-1.1,0-2-0.9-2-2s0.9-2,2-2h20c1.1,0,2,0.9,2,2S77.2,74,76.1,74z M76,62H56
	c-1.1,0-2-0.9-2-2s0.9-2,2-2h20c1.1,0,2,0.9,2,2S77.1,62,76,62z M76,32H56c-1.1,0-2-0.9-2-2s0.9-2,2-2h20c1.1,0,2,0.9,2,2
	S77.1,32,76,32z M41.4,77.4C41,77.8,40.5,78,40,78s-1-0.2-1.4-0.6L30,68.8l-8.6,8.6C21,77.8,20.5,78,20,78s-1-0.2-1.4-0.6
	c-0.8-0.8-0.8-2,0-2.8l8.6-8.6l-8.6-8.6c-0.8-0.8-0.8-2,0-2.8c0.8-0.8,2-0.8,2.8,0l8.6,8.6l8.6-8.6c0.8-0.8,2-0.8,2.8,0
	c0.8,0.8,0.8,2,0,2.8L32.8,66l8.6,8.6C42.2,75.4,42.2,76.6,41.4,77.4z M40,32h-8v8c0,1.1-0.9,2-2,2s-2-0.9-2-2v-8h-8
	c-1.1,0-2-0.9-2-2s0.9-2,2-2h8v-8c0-1.1,0.9-2,2-2s2,0.9,2,2v8h8c1.1,0,2,0.9,2,2S41.1,32,40,32z"/>
</svg>
