<?xml version="1.0" encoding="utf-8"?>
<!-- Generator: Adobe Illustrator 22.1.0, SVG Export Plug-In . SVG Version: 6.00 Build 0)  -->
<svg version="1.1" id="Layer_1" xmlns="http://www.w3.org/2000/svg" xmlns:xlink="http://www.w3.org/1999/xlink" x="0px" y="0px"
	 viewBox="0 0 96 96" style="enable-background:new 0 0 96 96;" xml:space="preserve">

<path class="st0" d="M90,96H6c-3.3,0-6-2.7-6-6V18c0-3.3,2.7-6,6-6h20V2c0-1.1,0.9-2,2-2s2,0.9,2,2v10h36V2c0-1.1,0.9-2,2-2
	s2,0.9,2,2v10h20c3.3,0,6,2.7,6,6v72C96,93.3,93.3,96,90,96z M92,18c0-1.1-0.9-2-2-2H70v6c0,1.1-0.9,2-2,2s-2-0.9-2-2v-6H30v6
	c0,1.1-0.9,2-2,2s-2-0.9-2-2v-6H6c-1.1,0-2,0.9-2,2v72c0,1.1,0.9,2,2,2h84c1.1,0,2-0.9,2-2V18z M92,35H4v4h88V35z"/>
</svg>
