<?xml version="1.0" encoding="utf-8"?>
<!-- Generator: Adobe Illustrator 22.1.0, SVG Export Plug-In . SVG Version: 6.00 Build 0)  -->
<svg version="1.1" id="Layer_1" xmlns="http://www.w3.org/2000/svg" xmlns:xlink="http://www.w3.org/1999/xlink" x="0px" y="0px"
	 viewBox="0 0 96.4 96" style="enable-background:new 0 0 96.4 96;" xml:space="preserve">

<path class="st0" d="M96.2,78.1c0,0.5-0.2,0.9-0.5,1.3L83.6,93.8c0,0-0.2,0.2-0.2,0.2c-3.7,3.7-11.3,2.6-21.9-3.4
	C51.8,85.2,40.6,76.4,30,65.8C12.2,47.8,0.2,28.9,0.2,18.7c0-2.6,0.7-4.6,2.2-6.1c0,0,0.2-0.2,0.2-0.2L16.9,0.3
	c0.4-0.3,0.9-0.5,1.5-0.5c0.5,0.1,1,0.3,1.4,0.7l18,22.1c0.6,0.7,0.6,1.7,0.1,2.4l-9,12.7l29.6,29.7l12.6-9c0.7-0.5,1.7-0.5,2.4,0.1
	l22,18c0.4,0.3,0.7,0.8,0.7,1.4C96.2,78,96.2,78,96.2,78.1z M4.2,18.7C4.2,27.8,16,46,32.9,62.9c10.3,10.4,21.2,19,30.6,24.3
	c10,5.6,15.4,5.7,17.1,4l10.8-12.8L72.1,62.6l-12.8,9.1c-0.8,0.6-1.9,0.5-2.6-0.2l-32-32.1c-0.7-0.7-0.8-1.8-0.2-2.6L33.7,24
	L17.9,4.7L5.3,15.5C4.5,16.3,4.2,17.3,4.2,18.7z"/>
</svg>
