<?xml version="1.0" encoding="utf-8"?>
<!-- Generator: Adobe Illustrator 22.1.0, SVG Export Plug-In . SVG Version: 6.00 Build 0)  -->
<svg version="1.1" id="Layer_1" xmlns="http://www.w3.org/2000/svg" xmlns:xlink="http://www.w3.org/1999/xlink" x="0px" y="0px"
	 viewBox="0 0 95.8 95.8" style="enable-background:new 0 0 95.8 95.8;" xml:space="preserve">

<path class="st0" d="M95.7,1.2c0.1,0.2,0.2,0.5,0.2,0.8v20c0,1.1-0.9,2-2,2c-1.1,0-1.8-1-1.8-2.1V6.6L63.3,35.3
	c-0.4,0.4-0.9,0.6-1.4,0.6c-0.5,0-1-0.2-1.4-0.6c-0.8-0.8-0.8-2,0-2.8L89.2,3.8H74c-1.1,0-2.1-0.7-2.1-1.8c0-1.1,0.9-2,2-2h20
	c0.3,0,0.5,0.1,0.8,0.2C95.1,0.4,95.5,0.7,95.7,1.2z M70.7,58.3c0.7-0.5,1.7-0.5,2.4,0.1l22,17.9c0.4,0.3,0.7,0.8,0.7,1.4
	c0,0.5-0.1,1.1-0.5,1.5L83.2,93.5c0,0-0.1,0.2-0.2,0.2c-1.4,1.4-3.4,2.2-6,2.2c-10.2,0-29.2-12.2-47.3-30.2C10.3,46.1-6,21,2.2,12.8
	c0,0,0.2-0.2,0.2-0.2L16.6,0.5C17,0.1,17.6,0,18.1,0c0.5,0.1,1,0.3,1.4,0.7l18,22c0.6,0.7,0.6,1.7,0.1,2.4l-9,12.6l29.5,29.5
	L70.7,58.3z M56.5,71.3L24.5,39.3c-0.7-0.7-0.8-1.8-0.2-2.6L33.4,24L17.7,4.8L5,15.6c-4.5,4.9,5.7,25.3,27.6,47.2
	c19.1,19.1,36.8,29.1,44.5,29.1c1.4,0,2.5-0.3,3.1-1L91,78.1L71.8,62.4L59,71.5C58.2,72.1,57.2,72,56.5,71.3z"/>
</svg>
