<?xml version="1.0" encoding="utf-8"?>
<!-- Generator: Adobe Illustrator 22.1.0, SVG Export Plug-In . SVG Version: 6.00 Build 0)  -->
<svg version="1.1" id="Layer_1" xmlns="http://www.w3.org/2000/svg" xmlns:xlink="http://www.w3.org/1999/xlink" x="0px" y="0px"
	 viewBox="0 0 96 96" style="enable-background:new 0 0 96 96;" xml:space="preserve">
<path class="st0" d="M48,96C21.5,96,0,74.5,0,48S21.5,0,48,0s48,21.5,48,48S74.5,96,48,96z M48,4C23.7,4,4,23.7,4,48s19.7,44,44,44
	s44-19.7,44-44S72.3,4,48,4z M43.7,65.4c-0.4,0.4-0.9,0.6-1.4,0.6c0,0,0,0,0,0c-0.5,0-1-0.2-1.4-0.6l-18.3-18c-0.8-0.8-0.8-2,0-2.8
	c0.8-0.8,2-0.8,2.8,0l16.8,16.6l28.3-30.5c0.8-0.8,2-0.9,2.8-0.1c0.8,0.8,0.9,2,0.1,2.8L43.7,65.4z"/>
</svg>
