<?xml version="1.0" encoding="utf-8"?>
<!-- Generator: Adobe Illustrator 22.1.0, SVG Export Plug-In . SVG Version: 6.00 Build 0)  -->
<svg version="1.1" id="Layer_1" xmlns="http://www.w3.org/2000/svg" xmlns:xlink="http://www.w3.org/1999/xlink" x="0px" y="0px"
	 viewBox="0 0 96 66.7" style="enable-background:new 0 0 96 66.7;" xml:space="preserve">

<path class="st0" d="M94.2,7.2L35.8,65.6c-1.3,1.3-3.3,1.3-4.6,0h0c-1.3-1.3-1.3-3.3,0-4.6L89.6,2.6c1.3-1.3,3.3-1.3,4.6,0v0
	C95.4,3.9,95.4,6,94.2,7.2z"/>
<path class="st0" d="M31.2,65.5L1.7,36c-1.3-1.3-1.3-3.3,0-4.6l0,0c1.3-1.3,3.3-1.3,4.6,0l29.5,29.5c1.3,1.3,1.3,3.3,0,4.6l0,0
	C34.5,66.7,32.5,66.7,31.2,65.5z"/>
</svg>
