<?xml version="1.0" encoding="utf-8"?>
<!-- Generator: Adobe Illustrator 22.1.0, SVG Export Plug-In . SVG Version: 6.00 Build 0)  -->
<svg version="1.1" id="Layer_1" xmlns="http://www.w3.org/2000/svg" xmlns:xlink="http://www.w3.org/1999/xlink" x="0px" y="0px"
	 viewBox="0 0 59.8 96" style="enable-background:new 0 0 59.8 96;" xml:space="preserve">

<path class="st0" d="M59.5,94.9c-0.3,0.7-1,1.1-1.8,1.1H2c-0.7,0-1.4-0.4-1.8-1.1c-0.3-0.7-0.3-1.5,0.1-2.1l17.6-25.5V38h-4
	c-1.1,0-2-0.9-2-2s0.9-2,2-2h6c1.1,0,2,0.9,2,2v32c0,0.1,0,0.1,0,0.2c0,0.1,0,0.3-0.1,0.4c0,0.1-0.1,0.3-0.2,0.4
	c0,0.1,0,0.1-0.1,0.2L5.8,92H54L38.2,69.1c0-0.1,0-0.1-0.1-0.2C38,68.8,38,68.7,38,68.6c0-0.1-0.1-0.3-0.1-0.4c0-0.1,0-0.1,0-0.2V36
	c0-1.1,0.9-2,2-2h6c1.1,0,2,0.9,2,2s-0.9,2-2,2h-4v29.4l17.6,25.5C59.8,93.5,59.9,94.3,59.5,94.9z M47.8,20c-5.5,0-10-4.5-10-10
	s4.5-10,10-10c5.5,0,10,4.5,10,10S53.3,20,47.8,20z M47.8,4c-3.3,0-6,2.7-6,6s2.7,6,6,6c3.3,0,6-2.7,6-6S51.1,4,47.8,4z M25.9,26
	c-3.3,0-6-2.7-6-6s2.7-6,6-6c3.3,0,6,2.7,6,6S29.2,26,25.9,26z M25.9,18c-1.1,0-2,0.9-2,2s0.9,2,2,2c1.1,0,2-0.9,2-2S27,18,25.9,18z
	"/>
</svg>
