<?xml version="1.0" encoding="utf-8"?>
<!-- Generator: Adobe Illustrator 22.1.0, SVG Export Plug-In . SVG Version: 6.00 Build 0)  -->
<svg version="1.1" id="Layer_1" xmlns="http://www.w3.org/2000/svg" xmlns:xlink="http://www.w3.org/1999/xlink" x="0px" y="0px"
	 viewBox="0 0 96 96" style="enable-background:new 0 0 96 96;" xml:space="preserve">

<path class="st0" d="M48,96C21.5,96,0,74.5,0,48S21.5,0,48,0s48,21.5,48,48S74.5,96,48,96z M48,4C23.7,4,4,23.7,4,48s19.7,44,44,44
	s44-19.7,44-44S72.3,4,48,4z M65.4,65.4C65,65.8,64.5,66,64,66s-1-0.2-1.4-0.6L48,50.8L33.4,65.4C33,65.8,32.5,66,32,66
	c-0.5,0-1-0.2-1.4-0.6c-0.8-0.8-0.8-2,0-2.8L45.2,48L30.6,33.4c-0.8-0.8-0.8-2,0-2.8s2-0.8,2.8,0L48,45.2l14.6-14.6
	c0.8-0.8,2-0.8,2.8,0s0.8,2,0,2.8L50.8,48l14.6,14.6C66.2,63.4,66.2,64.6,65.4,65.4z"/>
</svg>
