<?xml version="1.0" encoding="utf-8"?>
<!-- Generator: Adobe Illustrator 22.1.0, SVG Export Plug-In . SVG Version: 6.00 Build 0)  -->
<svg version="1.1" id="Layer_1" xmlns="http://www.w3.org/2000/svg" xmlns:xlink="http://www.w3.org/1999/xlink" x="0px" y="0px"
	 viewBox="0 0 96 96" style="enable-background:new 0 0 96 96;" xml:space="preserve">

<path class="st0" d="M48,96C21.5,96,0,74.5,0,48C0,21.5,21.5,0,48,0c26.5,0,48,21.5,48,48C96,74.5,74.5,96,48,96z M48,4
	C23.7,4,4,23.7,4,48c0,24.3,19.7,44,44,44c24.3,0,44-19.7,44-44C92,23.7,72.3,4,48,4z M57.9,57c-0.2,0.4-0.5,0.8-1,1L26.8,71.8
	C26.6,71.9,26.3,72,26,72c-0.5,0-1-0.2-1.4-0.6c-0.6-0.6-0.8-1.5-0.4-2.2l13.9-30.1c0.2-0.4,0.5-0.8,1-1l30.1-13.9
	c0.8-0.3,1.7-0.2,2.3,0.4c0.6,0.6,0.8,1.5,0.4,2.2L57.9,57z M30.1,65.9l22.6-10.4L40.5,43.3L30.1,65.9z M43.3,40.5l12.2,12.2
	l10.4-22.6L43.3,40.5z"/>
</svg>
