<?xml version="1.0" encoding="utf-8"?>
<!-- Generator: Adobe Illustrator 22.1.0, SVG Export Plug-In . SVG Version: 6.00 Build 0)  -->
<svg version="1.1" id="Layer_1" xmlns="http://www.w3.org/2000/svg" xmlns:xlink="http://www.w3.org/1999/xlink" x="0px" y="0px"
	 viewBox="0 0 96 96" style="enable-background:new 0 0 96 96;" xml:space="preserve">

<path class="st0" d="M88,39.8V94c0,1.1-0.9,2-2,2s-2-0.9-2-2V39.8c-4.6-0.9-8-5-8-9.8s3.4-8.9,8-9.8V2c0-1.1,0.9-2,2-2s2,0.9,2,2
	v18.2c4.6,0.9,8,5,8,9.8S92.6,38.9,88,39.8z M86,24c-3.3,0-6,2.7-6,6s2.7,6,6,6s6-2.7,6-6S89.3,24,86,24z M50,75.8V94
	c0,1.1-0.9,2-2,2s-2-0.9-2-2V75.8c-4.6-0.9-8-5-8-9.8s3.4-8.9,8-9.8V2c0-1.1,0.9-2,2-2s2,0.9,2,2v54.2c4.6,0.9,8,5,8,9.8
	S54.6,74.9,50,75.8z M48,60c-3.3,0-6,2.7-6,6s2.7,6,6,6s6-2.7,6-6S51.3,60,48,60z M12,57.8V94c0,1.1-0.9,2-2,2s-2-0.9-2-2V57.8
	c-4.6-0.9-8-5-8-9.8s3.4-8.9,8-9.8V2c0-1.1,0.9-2,2-2s2,0.9,2,2v36.2c4.6,0.9,8,5,8,9.8S16.6,56.9,12,57.8z M10,42c-3.3,0-6,2.7-6,6
	s2.7,6,6,6s6-2.7,6-6S13.3,42,10,42z"/>
</svg>
