<?xml version="1.0" encoding="utf-8"?>
<!-- Generator: Adobe Illustrator 22.1.0, SVG Export Plug-In . SVG Version: 6.00 Build 0)  -->
<svg version="1.1" id="Layer_1" xmlns="http://www.w3.org/2000/svg" xmlns:xlink="http://www.w3.org/1999/xlink" x="0px" y="0px"
	 viewBox="0 0 95.2 96" style="enable-background:new 0 0 95.2 96;" xml:space="preserve">

<path class="st0" d="M92.9,42.1l-4.7,4.7c-2.7,2.8-8,4.7-11.8,4.3l-12.8-1.1L49.9,63.9l2.7,9.9c1.1,3.9-0.3,9.2-3.1,12.1l-7.7,7.8
	c-1.5,1.5-3.5,2.4-5.7,2.4s-4.1-0.8-5.7-2.4L2.3,65.3c-3.1-3.1-3.1-8.3,0-11.4L53.5,2.4C55,0.8,57,0,59.1,0c2.1,0,4.2,0.8,5.7,2.4
	l28.1,28.3c1.5,1.5,2.3,3.5,2.3,5.7S94.4,40.6,92.9,42.1z M90.1,33.5L62,5.2c-1.5-1.5-4.2-1.5-5.7,0L5.1,56.7
	c-1.6,1.6-1.6,4.2,0,5.7l28.1,28.4c1.5,1.5,4.2,1.5,5.7,0l7.7-7.8c1.8-1.8,2.8-5.7,2.1-8.2l-3-10.7c-0.2-0.3-0.2-0.7-0.2-1
	c0-0.7,0.4-1.4,1-1.7l14.2-14.3c0.3-0.7,1-1.2,1.9-1.1c0.1,0,0.1,0,0.2,0l13.8,1.2c2.7,0.2,6.8-1.3,8.7-3.2l4.7-4.7
	c0.8-0.8,1.2-1.8,1.2-2.9S90.9,34.3,90.1,33.5z M61.5,32h6v6h-6V32z M61.5,22h6v6h-6V22z M51.6,32h6v6h-6V32z M51.6,22h6v6h-6V22z
	 M37.1,67.4c-0.4,0.4-0.9,0.6-1.4,0.6c-0.5,0-1-0.2-1.4-0.6l-4.6-4.6l-4.5,4.6c-0.4,0.4-0.9,0.6-1.4,0.6c-0.5,0-1-0.2-1.4-0.6
	c-0.8-0.8-0.8-2,0-2.8L27,60l-4.5-4.6c-0.8-0.8-0.8-2,0-2.8c0.8-0.8,2-0.8,2.8,0l4.5,4.6l4.6-4.6c0.8-0.8,2-0.8,2.8,0
	c0.8,0.8,0.8,2,0,2.8L32.6,60l4.5,4.6C37.9,65.4,37.9,66.6,37.1,67.4z"/>
</svg>
