<?xml version="1.0" encoding="utf-8"?>
<!-- Generator: Adobe Illustrator 22.1.0, SVG Export Plug-In . SVG Version: 6.00 Build 0)  -->
<svg version="1.1" id="Layer_1" xmlns="http://www.w3.org/2000/svg" xmlns:xlink="http://www.w3.org/1999/xlink" x="0px" y="0px"
	 viewBox="0 0 96 64" style="enable-background:new 0 0 96 64;" xml:space="preserve">

<path class="st0" d="M87.9,64H8.1C3.6,64,0,60.4,0,56V8c0-4.4,3.6-8,8.1-8h79.7C92.4,0,96,3.6,96,8v48C96,60.4,92.4,64,87.9,64z
	 M92,8c0-2.2-1.9-4-4.1-4H8.1C5.9,4,4,5.8,4,8v6h88V8z M92,22H4v34c0,2.2,1.9,4,4.1,4h79.7c2.3,0,4.1-1.8,4.1-4V22z M80,52H68
	c-1.1,0-2-0.9-2-2s0.9-2,2-2h12c1.1,0,2,0.9,2,2S81.1,52,80,52z"/>
</svg>
