<?xml version="1.0" encoding="utf-8"?>
<!-- Generator: Adobe Illustrator 22.1.0, SVG Export Plug-In . SVG Version: 6.00 Build 0)  -->
<svg version="1.1" id="Layer_1" xmlns="http://www.w3.org/2000/svg" xmlns:xlink="http://www.w3.org/1999/xlink" x="0px" y="0px"
	 viewBox="0 0 96 96" style="enable-background:new 0 0 96 96;" xml:space="preserve">

<path class="st0" d="M94,80H80v14c0,1.1-0.9,2-2,2s-2-0.9-2-2V80H21c-2.8,0-5-2.3-5-5V20H2c-1.1,0-2-0.9-2-2c0-1.1,0.9-2,2-2h14V2
	c0-1.1,0.9-2,2-2s2,0.9,2,2v14h55c0.7,0,1.3,0.1,1.8,0.4L88.6,4.6c0.8-0.8,2-0.8,2.8,0c0.8,0.8,0.8,2,0,2.8L79.6,19.2
	c0.2,0.6,0.4,1.2,0.4,1.8v55h14c1.1,0,2,0.9,2,2C96,79.1,95.1,80,94,80z M20,20v53.2L73.2,20H20z M22.8,76H76V22.8L22.8,76z"/>
</svg>
