<?xml version="1.0" encoding="utf-8"?>
<!-- Generator: Adobe Illustrator 22.1.0, SVG Export Plug-In . SVG Version: 6.00 Build 0)  -->
<svg version="1.1" id="Layer_1" xmlns="http://www.w3.org/2000/svg" xmlns:xlink="http://www.w3.org/1999/xlink" x="0px" y="0px"
	 viewBox="0 0 96 90" style="enable-background:new 0 0 96 90;" xml:space="preserve">

<path class="st0" d="M78,28.7c-0.1,0-0.3-0.1-0.4-0.1C75.5,42.3,64.1,53,50,53.9V76h10c1.1,0,2,0.9,2,2s-0.9,2-2,2H36
	c-1.1,0-2-0.9-2-2s0.9-2,2-2h10V53.9C31.9,53,20.5,42.3,18.4,28.6c-0.1,0-0.2,0.1-0.4,0.1C7.9,28.7,0,17.6,0,8c0-1.1,0.9-2,2-2h16V2
	c0-1.1,0.9-2,2-2h56c1.1,0,2,0.9,2,2v4h16c1.1,0,2,0.9,2,2C96,17.6,88.1,28.7,78,28.7z M18,23.9c0,0,0-0.1,0-0.1V10H4.1
	c1,7.1,6.8,14.7,13.9,14.7c0,0,0,0,0,0c0-0.2,0-0.4,0-0.7C18,24,18,23.9,18,23.9z M74,23.8V4H22v19.8c0,0,0,0.1,0,0.1
	c0,0,0,0.1,0,0.1c0,14.3,11.7,26,26,26s26-11.7,26-26c0,0,0-0.1,0-0.1C74,23.9,74,23.8,74,23.8z M78,10v13.8c0,0,0,0.1,0,0.1
	c0,0,0,0.1,0,0.1c0,0.2,0,0.4,0,0.7c0,0,0,0,0,0c7.1,0,12.9-7.6,13.9-14.7H78z M26,86h44c1.1,0,2,0.9,2,2s-0.9,2-2,2H26
	c-1.1,0-2-0.9-2-2S24.9,86,26,86z"/>
</svg>
