<?xml version="1.0" encoding="utf-8"?>
<!-- Generator: Adobe Illustrator 22.1.0, SVG Export Plug-In . SVG Version: 6.00 Build 0)  -->
<svg version="1.1" id="Layer_1" xmlns="http://www.w3.org/2000/svg" xmlns:xlink="http://www.w3.org/1999/xlink" x="0px" y="0px"
	 viewBox="0 0 95.8 96" style="enable-background:new 0 0 95.8 96;" xml:space="preserve">

<path class="st0" d="M95.1,31.6L49.5,95.2c0,0,0,0,0,0c-0.2,0.2-0.4,0.4-0.6,0.5c-0.1,0-0.1,0.1-0.2,0.1c-0.3,0.1-0.5,0.2-0.8,0.2
	c-0.3,0-0.6-0.1-0.8-0.2c-0.1,0-0.1-0.1-0.2-0.1c-0.2-0.1-0.5-0.3-0.6-0.5c0,0,0,0,0,0L0.6,31.6C0.2,31.3,0,30.8,0,30.2c0,0,0,0,0,0
	c0,0,0,0,0,0c0-0.3,0.1-0.6,0.2-0.8c0-0.1,0-0.1,0-0.2L15.5,1.3c0-0.1,0.1-0.1,0.1-0.2c0.2-0.3,0.6-0.6,1-0.8c0,0,0,0,0.1,0
	C17.1,0.1,17.5,0,17.9,0h60c0.3,0,0.8,0.1,1.2,0.3c0,0,0,0,0,0c0.4,0.1,0.7,0.4,1,0.8c0,0.1,0.1,0.1,0.1,0.2l15.3,27.8
	c0,0.1,0,0.1,0,0.2c0.1,0.3,0.2,0.6,0.2,0.9c0,0,0,0,0,0c0,0,0,0,0,0C95.8,30.8,95.5,31.3,95.1,31.6z M89.9,32H70.6L53.9,82.1
	L89.9,32z M47.9,5.5L30.4,28h35L47.9,5.5z M47.9,87.7L66.4,32H29.3L47.9,87.7z M41.8,82.1L25.1,32H5.9L41.8,82.1z M16.6,6.5L5.3,28
	h18.4L16.6,6.5z M20,4l7.2,21.6L44,4H20z M51.8,4l16.8,21.6L75.8,4H51.8z M79.2,6.5L72,28h18.4L79.2,6.5z"/>
</svg>
