<svg xmlns="http://www.w3.org/2000/svg" xmlns:xlink="http://www.w3.org/1999/xlink" preserveAspectRatio="xMidYMid" viewBox="0 0 48 48">
  <defs>
    <style>
      .cls-1 {
        fill: #1b1b1b;
        fill-rule: evenodd;
      }
    </style>
  </defs>
  <path d="M47.641,10.769 L41.641,15.768 C41.593,15.808 41.537,15.828 41.485,15.857 C41.443,15.881 41.407,15.909 41.362,15.927 C41.245,15.973 41.124,16.000 41.001,16.000 C41.001,16.000 41.001,16.000 41.001,16.000 C41.000,16.000 41.000,16.000 41.000,16.000 L25.000,16.000 L25.000,20.000 L36.990,20.000 C37.145,20.000 37.299,20.036 37.438,20.105 C37.776,20.275 38.000,20.631 38.000,21.010 L38.000,30.990 C38.000,31.256 37.890,31.520 37.702,31.707 C37.515,31.894 37.261,32.000 36.995,32.000 L25.000,32.000 L25.000,47.000 C25.000,47.553 24.553,48.000 24.000,48.000 C23.447,48.000 23.000,47.553 23.000,47.000 L23.000,32.000 L7.000,32.000 C7.000,32.000 7.000,32.000 6.999,32.000 C6.999,32.000 6.999,32.000 6.999,32.000 C6.876,32.000 6.755,31.973 6.638,31.927 C6.593,31.909 6.557,31.881 6.515,31.857 C6.463,31.828 6.407,31.808 6.359,31.768 L0.359,26.768 C0.132,26.578 -0.000,26.297 -0.000,26.000 C-0.000,25.703 0.132,25.422 0.359,25.231 L6.359,20.231 C6.396,20.201 6.441,20.191 6.480,20.166 C6.540,20.129 6.596,20.092 6.663,20.068 C6.730,20.044 6.796,20.037 6.865,20.027 C6.911,20.021 6.952,20.000 7.000,20.000 L23.000,20.000 L23.000,16.000 L11.010,16.000 C10.457,16.000 10.000,15.543 10.000,14.990 L10.000,5.010 C10.000,4.457 10.457,4.000 11.010,4.000 L23.000,4.000 L23.000,1.000 C23.000,0.447 23.447,0.000 24.000,0.000 C24.553,0.000 25.000,0.447 25.000,1.000 L25.000,4.000 L41.000,4.000 C41.048,4.000 41.089,4.021 41.135,4.027 C41.204,4.037 41.270,4.044 41.337,4.068 C41.404,4.092 41.461,4.129 41.520,4.167 C41.559,4.191 41.604,4.201 41.641,4.231 L47.641,9.231 C47.868,9.422 48.000,9.703 48.000,10.000 C48.000,10.297 47.868,10.578 47.641,10.769 ZM7.363,22.000 L2.563,26.000 L7.363,30.000 L36.000,30.000 L36.000,22.000 L7.363,22.000 ZM40.637,6.000 L12.000,6.000 L12.000,14.000 L40.637,14.000 L45.438,10.000 L40.637,6.000 Z" class="cls-1"/>
</svg>
