<?xml version="1.0" encoding="utf-8"?>
<!-- Generator: Adobe Illustrator 22.1.0, SVG Export Plug-In . SVG Version: 6.00 Build 0)  -->
<svg version="1.1" id="Layer_1" xmlns="http://www.w3.org/2000/svg" xmlns:xlink="http://www.w3.org/1999/xlink" x="0px" y="0px"
	 viewBox="0 0 88 96" style="enable-background:new 0 0 88 96;" xml:space="preserve">

<path class="st0" d="M87.2,31.6l-24.9,18c-0.1,0.1-0.2,0.1-0.3,0.1c-0.1,0-0.1,0.1-0.2,0.1c-0.2,0.1-0.5,0.1-0.7,0.1c0,0,0,0,0,0
	l0,0H42v44c0,1.1-0.9,2-2,2s-2-0.9-2-2V50H2c-1.1,0-2-0.9-2-2V12c0-1.1,0.9-2,2-2h36V2c0-1.1,0.9-2,2-2s2,0.9,2,2v8h19.1
	c0.1,0,0.1,0,0.2,0c0.1,0,0.3,0,0.4,0.1c0.1,0,0.2,0.1,0.4,0.2c0.1,0,0.1,0,0.2,0.1l24.9,18c0.5,0.4,0.8,1,0.8,1.6
	S87.7,31.2,87.2,31.6z M60.5,14H4v32h56.5l22.1-16L60.5,14z"/>
</svg>
