<?xml version="1.0" encoding="utf-8"?>
<!-- Generator: Adobe Illustrator 22.1.0, SVG Export Plug-In . SVG Version: 6.00 Build 0)  -->
<svg version="1.1" id="Layer_1" xmlns="http://www.w3.org/2000/svg" xmlns:xlink="http://www.w3.org/1999/xlink" x="0px" y="0px"
	 viewBox="0 0 96 96" style="enable-background:new 0 0 96 96;" xml:space="preserve">

<path class="st0" d="M91.3,68.7C91.3,68.7,91.3,68.7,91.3,68.7L91.3,68.7c-3.6,7.6-9.2,14.1-16.2,18.9c0,0,0,0,0,0c0,0,0,0,0,0
	c0,0,0,0,0,0C67.1,93.1,57.7,96,48,96C21.5,96,0,74.5,0,48C0,32.1,7.9,17.3,21,8.3C29,2.9,38.3,0,48,0c26.5,0,48,21.5,48,48
	C96,55.3,94.4,62.2,91.3,68.7z M86.7,68.7L57.8,54.9c-0.4,0.6-0.9,1.2-1.5,1.7l18.1,26.5C79.6,79.3,83.7,74.3,86.7,68.7z M40,48
	c0,4.4,3.6,8,8,8s8-3.6,8-8s-3.6-8-8-8S40,43.6,40,48z M4,48c0,24.3,19.7,44,44,44c8.2,0,16.2-2.3,23.2-6.6L53,58.8
	c-1.5,0.7-3.2,1.2-5,1.2c-6.6,0-12-5.4-12-12c0-1.2,0.2-2.3,0.5-3.3L7.6,30.8C5.3,36.2,4,42,4,48z M9.3,27.2l28.9,13.9
	c0.5-0.6,1-1.2,1.5-1.7L21.7,12.8C16.5,16.7,12.3,21.6,9.3,27.2z M48,4c-8.2,0-16.1,2.3-23,6.5l18.1,26.5c1.5-0.7,3.2-1.1,4.9-1.1
	c6.6,0,12,5.4,12,12c0,1.1-0.2,2.2-0.5,3.2l29,13.9C90.8,59.7,92,54,92,48C92,23.7,72.3,4,48,4z"/>
</svg>
