<?xml version="1.0" encoding="utf-8"?>
<!-- Generator: Adobe Illustrator 22.1.0, SVG Export Plug-In . SVG Version: 6.00 Build 0)  -->
<svg version="1.1" id="Layer_1" xmlns="http://www.w3.org/2000/svg" xmlns:xlink="http://www.w3.org/1999/xlink" x="0px" y="0px"
	 viewBox="0 0 88 94" style="enable-background:new 0 0 88 94;" xml:space="preserve">

<path class="st0" d="M42,94c-0.2,0-0.4,0-0.6,0C37.9,93.4,30,90.7,30,76c0-6.6,1.8-14.1,2.9-18h-19C6.6,58,2.1,54.5,2.1,49
	c0-2.8,1-4.9,2.4-6.3C2.4,41.6,0,39.3,0,34.8c0-3.9,1.9-6.3,4.4-7.6c-1.3-1.4-2.3-3.4-2.3-6.3c0-4.3,2.2-6.8,5-8c-0.6-1-1-2.3-1-4
	C6.1,1.4,12.1,0,24,0h18c6.7,0,11.5,1.8,15.8,3.4c3.6,1.4,6.7,2.5,10.4,2.5C74.2,5.9,80,6,80,6c0.3,0,0.6,0.1,0.9,0.2
	C81.7,6.6,88,10.4,88,26c0,15.2-4.1,22.7-4.3,23c-0.3,0.5-0.8,0.9-1.3,1c-0.1,0-14.6,3.1-23,11.5c-7.9,7.9-12.7,20.4-13.3,28.7
	C45.9,92.3,44.1,94,42,94z M9.7,30C7.5,30,4,30.6,4,34.8c0,2.2,0.8,3.6,2.4,4.5C7.9,40,9.6,40,9.9,40c1.1,0,2,0.8,2.1,1.9
	c0.1,1.1-0.6,2-1.7,2.1c-0.7,0.1-4.2,0.8-4.2,5c0,4.6,5.5,5.1,7.8,5.1h21.7c0.6,0,1.2,0.3,1.6,0.8c0.4,0.5,0.5,1.2,0.3,1.8
	c0,0.1-3.5,10.9-3.5,19.4c0,8.2,2.8,13.2,7.9,14l0,0c0.1,0,0.2-0.1,0.2-0.2c0.7-8.7,5.5-22.2,14.5-31.2c8-8,20.4-11.5,24-12.3
	C81.6,44.1,84,37.4,84,26c0-11.2-3.6-15.1-4.6-16c-1.7,0-6.4-0.1-11.1-0.1c-4.5,0-8.1-1.3-11.8-2.8C52.3,5.6,48,4,42,4H24
	c-14,0-14,2.3-14,4.9c0,2.8,2,3.1,2.2,3.1c1.1,0.1,1.9,1.1,1.8,2.2C14,15.2,13.1,16.1,12,16c0,0,0,0,0,0c-1.9,0-5.9,0.5-5.9,4.9
	c0,4.6,4.1,5.1,4.2,5.1c1.1,0.1,1.9,1.1,1.8,2.2c-0.1,1.1-1,1.9-2.1,1.8L9.7,30z"/>
</svg>
