<?xml version="1.0" encoding="utf-8"?>
<!-- Generator: Adobe Illustrator 22.1.0, SVG Export Plug-In . SVG Version: 6.00 Build 0)  -->
<svg version="1.1" id="Layer_1" xmlns="http://www.w3.org/2000/svg" xmlns:xlink="http://www.w3.org/1999/xlink" x="0px" y="0px"
	 viewBox="0 0 72 95.9" style="enable-background:new 0 0 72 95.9;" xml:space="preserve">

<path class="st0" d="M72,28c0,0.1,0,0.1,0,0.2v63.6c0,2.2-1.8,4-4,4H4.1c-2.2,0-4.1-1.8-4.1-4.1V4.1C0,1.9,1.8,0,4.1,0H44
	c0.1,0,0.2,0,0.3,0c0.1,0,0.2,0,0.3,0.1c0.3,0.1,0.7,0.2,0.9,0.5l25.8,25.7c0.1,0,0.1,0.1,0.2,0.2c0.1,0.1,0.1,0.1,0.2,0.2
	C71.8,27.1,72,27.5,72,28z M4,3.9l0,87.9l64,0.1v-62H44c-1.1,0-2-0.8-2-1.9V3.9H4z M46,6.8V26h19.2L46,6.8z"/>
</svg>
