<?xml version="1.0" encoding="utf-8"?>
<!-- Generator: Adobe Illustrator 22.1.0, SVG Export Plug-In . SVG Version: 6.00 Build 0)  -->
<svg version="1.1" id="Layer_1" xmlns="http://www.w3.org/2000/svg" xmlns:xlink="http://www.w3.org/1999/xlink" x="0px" y="0px"
	 viewBox="0 0 96 96" style="enable-background:new 0 0 96 96;" xml:space="preserve">

<path class="st0" d="M96,26.3V80c0,2.2-1.8,4-4,4H72c-1.1,0-2-0.9-2-2c0-1.1,0.9-2,2-2h20V28H70c-1.1,0-2-0.8-2-1.9V4H36
	c0,1.1-0.9,2.1-2,2.1c-1.1,0-2-0.9-2-2v-1C32,1.4,33.7,0,36,0h34c0.6,0,1.2,0.4,1.5,0.9l23.6,23.6c0.1,0,0.1,0.1,0.2,0.2
	c0.1,0.1,0.1,0.1,0.2,0.2c0.3,0.4,0.5,0.8,0.5,1.3C96,26.2,96,26.2,96,26.3z M72,7v17.1h17.2L72,7z M38.1,12.2c0.2,0,0.4,0,0.5,0.1
	c0.1,0,0.1,0,0.2,0.1c0.2,0.1,0.4,0.2,0.6,0.4c0,0,0,0,0,0l23.8,23.7c0.1,0,0.1,0.1,0.2,0.2c0.1,0.1,0.1,0.1,0.2,0.2
	c0.3,0.4,0.5,0.8,0.5,1.3c0,0.1,0,0.1,0,0.2V92c0,2.2-1.8,4-4,4H4c-2.2,0-4-1.8-4-4V16.1c0-2.2,1.8-4,4-4h34
	C38,12.1,38.1,12.2,38.1,12.2z M40,18.9v17.1h17.2L40,18.9z M36,38.1V16H4l0,76h56V40H38C36.9,40,36,39.2,36,38.1z"/>
</svg>
