<?xml version="1.0" encoding="utf-8"?>
<!-- Generator: Adobe Illustrator 22.1.0, SVG Export Plug-In . SVG Version: 6.00 Build 0)  -->
<svg version="1.1" id="Layer_1" xmlns="http://www.w3.org/2000/svg" xmlns:xlink="http://www.w3.org/1999/xlink" x="0px" y="0px"
	 viewBox="0 0 96 84" style="enable-background:new 0 0 96 84;" xml:space="preserve">

<path class="st0" d="M72.2,72c-0.1,0-0.2,0-0.3,0c-1,0-1.9-0.7-2-1.7c-0.1-1.1,0.6-2.1,1.7-2.2C83.1,66.6,92,56.6,92,45.3
	c0-12.5-10.1-22.7-22.5-22.7c-0.4,0-0.9,0-1.3,0.1c-0.9,0.1-1.8-0.4-2.1-1.3C62.4,10.9,52.7,4,41.9,4C27.8,4,16.3,15.6,16.3,29.8
	c0,1.2,0.1,2.4,0.3,3.7c0.2,1-0.4,1.9-1.3,2.2C8.5,38,4,44.3,4,51.5C4,60.6,11.4,68,20.4,68H24c1.1,0,2,0.9,2,2s-0.9,2-2,2h-3.6
	C9.1,72,0,62.8,0,51.5c0-8.3,4.9-15.7,12.4-18.9c-0.1-0.9-0.1-1.8-0.1-2.7C12.3,13.4,25.5,0,41.9,0c12,0,22.9,7.4,27.4,18.5
	c0.1,0,0.1,0,0.2,0c14.6,0,26.5,12,26.5,26.7C96,58.6,85.6,70.3,72.2,72z M37.4,68.6l8.6,8.6V46c0-1.1,0.9-2,2-2s2,0.9,2,2v31.2
	l8.6-8.6c0.8-0.8,2-0.8,2.8,0c0.8,0.8,0.8,2,0,2.8l-12,12c-0.2,0.2-0.4,0.3-0.7,0.4C48.5,83.9,48.3,84,48,84s-0.5-0.1-0.8-0.2
	c-0.2-0.1-0.5-0.2-0.7-0.4l-12-12c-0.8-0.8-0.8-2,0-2.8C35.4,67.8,36.6,67.8,37.4,68.6z"/>
</svg>
