<?xml version="1.0" encoding="utf-8"?>
<!-- Generator: Adobe Illustrator 22.1.0, SVG Export Plug-In . SVG Version: 6.00 Build 0)  -->
<svg version="1.1" id="Layer_1" xmlns="http://www.w3.org/2000/svg" xmlns:xlink="http://www.w3.org/1999/xlink" x="0px" y="0px"
	 viewBox="0 0 96 80" style="enable-background:new 0 0 96 80;" xml:space="preserve">

<path class="st0" d="M91.8,80H4.2C2,80,0,78.2,0,76V36c0-0.4,0.1-0.6,0.3-0.7c0.1-0.2,0.2-0.4,0.3-0.5L9.4,1.5
	c0.2-0.9,1-1.5,1.9-1.5h73.3c0.9,0,1.7,0.6,1.9,1.5l8.7,33.2c0.1,0.2,0.3,0.3,0.3,0.5c0.2,0.2,0.4,0.4,0.4,0.8v40
	C96,78.2,94,80,91.8,80z M92,76V38H65.9c-1,8.9-8.8,16-17.9,16c-9,0-16.7-7.1-17.7-16H4v38H92z M83.1,4H12.9L5,34h27.1
	c1.1,0,2,0.9,2,2c0,7.6,6.3,14,13.9,14c7.6,0,14-6.4,14-14c0-1.1,0.9-2,2-2h27L83.1,4z"/>
</svg>
