<?xml version="1.0" encoding="utf-8"?>
<!-- Generator: Adobe Illustrator 22.1.0, SVG Export Plug-In . SVG Version: 6.00 Build 0)  -->
<svg version="1.1" id="Layer_1" xmlns="http://www.w3.org/2000/svg" xmlns:xlink="http://www.w3.org/1999/xlink" x="0px" y="0px"
	 viewBox="0 0 95.9 96" style="enable-background:new 0 0 95.9 96;" xml:space="preserve">

<path class="st0" d="M95.9,48.9c0,0,0,0.1,0,0.1c0,0,0,0,0,0.1c-0.4,20.3-13.5,37.4-31.5,44c-0.2,0.1-0.5,0.2-0.7,0.3
	C58.7,95,53.4,96,48,96c-13.3,0-25.3-5.4-34-14.2c-0.1-0.1-0.1-0.1-0.2-0.2C5.3,73,0,61.1,0,48c0-2,0.2-3.9,0.4-5.8
	c0-0.1,0-0.1,0-0.2c0,0,0-0.1,0.1-0.1C2.4,26.4,11.8,13.2,25,6c0.2-0.2,0.5-0.4,0.8-0.5C32.4,2,39.9,0,48,0
	c12.2,0,23.4,4.6,31.9,12.2c0,0,0.1,0,0.1,0c0.3,0.2,0.5,0.4,0.6,0.6C90,21.7,95.9,34.1,95.9,48C95.9,48.3,95.9,48.6,95.9,48.9z
	 M91.8,50.6c-11.5-1-21.4-0.2-29.9,1.6c3.2,10.2,4.9,22.2,3.7,36.1C80.3,81.8,90.8,67.4,91.8,50.6z M48,92c4.7,0,9.2-0.8,13.5-2.2
	c1.4-14.3-0.3-26.6-3.4-36.7c-24.9,6.6-36.9,22.3-40,27C25.9,87.5,36.4,92,48,92z M4,48c0,11.2,4.2,21.4,11.2,29.2
	C19.2,71.4,32,56,56.7,49.3c-1.4-3.7-2.9-7.1-4.5-10.1c-8.6,4-19.2,7-32,7c-5,0-10.3-0.5-16-1.4C4.1,45.8,4,46.9,4,48z M4.6,40.7
	c19.3,3.4,34.3,0.2,45.6-5c-1.5-2.5-3-4.8-4.5-6.8c-8-10.9-16.7-17.1-19.5-19C15,16.2,6.9,27.5,4.6,40.7z M48,4
	c-6.3,0-12.3,1.4-17.7,3.8c5,3.6,15.2,12.2,23.5,26.2c12.5-6.7,19.8-15.8,22.5-19.6C68.6,7.9,58.7,4,48,4z M79.2,17.1
	c-3.1,4.3-10.7,13.4-23.5,20.3c1.8,3.4,3.4,7,4.9,11c8.9-2,19.3-2.8,31.3-1.8C91.5,35.1,86.7,24.7,79.2,17.1z"/>
</svg>
