<?xml version="1.0" encoding="utf-8"?>
<!-- Generator: Adobe Illustrator 22.1.0, SVG Export Plug-In . SVG Version: 6.00 Build 0)  -->
<svg version="1.1" id="Layer_1" xmlns="http://www.w3.org/2000/svg" xmlns:xlink="http://www.w3.org/1999/xlink" x="0px" y="0px"
	 viewBox="0 0 64 96" style="enable-background:new 0 0 64 96;" xml:space="preserve">

<path class="st0" d="M32,96C14.4,96,0,81,0,62.6C0,38.7,29.2,2.3,30.4,0.7C30.8,0.3,31.4,0,32,0h0c0.6,0,1.2,0.3,1.6,0.7
	C34.8,2.3,64,38.5,64,62.6C64,81,49.6,96,32,96z M32,5.2c-6.1,8-28,37.9-28,57.4C4,78.8,16.6,92,32,92s28-13.2,28-29.4
	C60,43,38.1,13.2,32,5.2z"/>
</svg>
