<?xml version="1.0" encoding="utf-8"?>
<!-- Generator: Adobe Illustrator 22.1.0, SVG Export Plug-In . SVG Version: 6.00 Build 0)  -->
<svg version="1.1" id="Layer_1" xmlns="http://www.w3.org/2000/svg" xmlns:xlink="http://www.w3.org/1999/xlink" x="0px" y="0px"
	 viewBox="0 0 95.9 95.9" style="enable-background:new 0 0 95.9 95.9;" xml:space="preserve">

<path class="st0" d="M95.2,21.5L79,36l12.2,10.5c0.5,0.4,0.7,1,0.7,1.6c0,0.6-0.4,1.2-0.9,1.5l-13.5,9.2c0.2,0.3,0.4,0.7,0.4,1.2
	v15.6c0,0.7-0.3,1.3-0.9,1.7L49,95.6c-0.1,0-0.1,0.1-0.2,0.1c-0.1,0-0.1,0.1-0.2,0.1c-0.2,0.1-0.5,0.1-0.7,0.1
	c-0.2,0-0.5-0.1-0.7-0.1c-0.1,0-0.1-0.1-0.2-0.1c-0.1,0-0.1-0.1-0.2-0.1l-28-18.4c-0.6-0.4-0.9-1-0.9-1.7V60.2
	c0-0.4,0.2-0.8,0.4-1.1L4.8,49.6C4.3,49.2,4,48.7,4,48.1c0-0.6,0.2-1.2,0.7-1.6L16.9,36L0.7,21.9c-0.5-0.4-0.7-1-0.7-1.6
	s0.4-1.2,0.9-1.5l28-18.4c0.8-0.5,1.8-0.4,2.4,0.2L48,15.3L64.5,0.6c0.7-0.6,1.7-0.7,2.4-0.2l28.1,18c0.5,0.3,0.9,0.9,0.9,1.5
	C95.9,20.5,95.7,21.1,95.2,21.5z M86.6,47.8l-10.9-9.3L51.3,54.2l11.6,9.7L86.6,47.8z M49.9,90.2l24-15.7V61.2L63.9,68
	c-0.3,0.2-0.7,0.3-1.1,0.3c-0.5,0-0.9-0.2-1.3-0.5l-11.5-9.6V90.2z M47.9,51.6L72.2,36L47.9,20.4L23.7,36L47.9,51.6z M22,74.4
	l24,15.7V58l-12.6,9.9c-0.4,0.3-0.8,0.4-1.2,0.4c-0.4,0-0.8-0.1-1.1-0.4l-9-6.3V74.4z M32,63.8l12.5-9.7L20.1,38.5L9.2,47.8L32,63.8
	z M29.8,4.5L5.3,20.6l14.9,12.9l24.5-15.8L29.8,4.5z M66,4.5L51.2,17.8l24.5,15.7l14.9-13.2L66,4.5z"/>
</svg>
