<?xml version="1.0" encoding="utf-8"?>
<!-- Generator: Adobe Illustrator 22.1.0, SVG Export Plug-In . SVG Version: 6.00 Build 0)  -->
<svg version="1.1" id="Layer_1" xmlns="http://www.w3.org/2000/svg" xmlns:xlink="http://www.w3.org/1999/xlink" x="0px" y="0px"
	 viewBox="0 0 96 96" style="enable-background:new 0 0 96 96;" xml:space="preserve">

<path class="st0" d="M48,96C21.5,96,0,74.5,0,48S21.5,0,48,0s48,21.5,48,48S74.5,96,48,96z M48,4C23.7,4,4,23.7,4,48s19.7,44,44,44
	s44-19.7,44-44S72.3,4,48,4z M48,54.9c10.9,0,20.8,6.6,25.8,17.1c0.5,1,0.1,2.2-0.9,2.7s-2.2,0.1-2.7-0.9
	C65.8,64.6,57.3,58.9,48,58.9c-9.4,0-17.9,5.7-22.2,14.9c-0.5,1-1.7,1.4-2.7,1c-1-0.5-1.4-1.7-1-2.7C27.2,61.5,37.1,54.9,48,54.9z
	 M64,46c-3.3,0-6-2.7-6-6s2.7-6,6-6c3.3,0,6,2.7,6,6S67.3,46,64,46z M32,46c-3.3,0-6-2.7-6-6s2.7-6,6-6s6,2.7,6,6S35.3,46,32,46z"/>
</svg>
