<?xml version="1.0" encoding="utf-8"?>
<!-- Generator: Adobe Illustrator 22.1.0, SVG Export Plug-In . SVG Version: 6.00 Build 0)  -->
<svg version="1.1" id="Layer_1" xmlns="http://www.w3.org/2000/svg" xmlns:xlink="http://www.w3.org/1999/xlink" x="0px" y="0px"
	 viewBox="0 0 80 96" style="enable-background:new 0 0 80 96;" xml:space="preserve">

<path class="st0" d="M78,96c-1.1,0-2-0.9-2-2V53.9L5.6,95.4C4.9,95.8,4.2,96,3.5,96C1.7,96,0,94.6,0,92V3.9C0,1.2,1.8,0,3.4,0
	c0.7,0,1.5,0.2,2.2,0.7L76,45V2c0-1.1,0.9-2,2-2c1.1,0,2,0.9,2,2v92C80,95.1,79.1,96,78,96z M4,4.4v87.3l71.6-42.2L4,4.4z"/>
</svg>
