<?xml version="1.0" encoding="utf-8"?>
<!-- Generator: Adobe Illustrator 22.1.0, SVG Export Plug-In . SVG Version: 6.00 Build 0)  -->
<svg version="1.1" id="Layer_1" xmlns="http://www.w3.org/2000/svg" xmlns:xlink="http://www.w3.org/1999/xlink" x="0px" y="0px"
	 viewBox="0 0 55.5 95.8" style="enable-background:new 0 0 55.5 95.8;" xml:space="preserve">

<path class="st0" d="M54.8,43.6L20.9,94.3c-0.3,0.8-1,1.4-1.9,1.4c-0.1,0-0.2,0-0.3,0c-0.9-0.1-1.6-0.9-1.7-1.7c0-0.1,0-0.1,0-0.2
	c0-0.1,0-0.2,0-0.3l0-0.1c0-0.1,0-0.2,0-0.3l5.2-36.8c0,0,0-0.1-0.1-0.2c-0.1-0.1-0.1-0.4-0.5-0.4h-18c-1.6,0-2.8-0.5-3.4-1.7
	c-0.6-1.2-0.4-2.7,0.6-4L37,0.8c0.7-0.9,1.9-1.1,2.8-0.4c0.6,0.4,0.8,1.1,0.8,1.7c0,0.1,0,0.2,0,0.4l-5.5,35c0,0.2,0,0.3,0,0.3
	c0,0,0.3,0,0.7,0h16c1.5,0,2.7,0.8,3.4,1.9C55.7,40.8,55.6,42.3,54.8,43.6z M35.8,41.8c-1.5,0-2.9-0.4-3.8-1.4
	c-0.8-0.9-1.1-2.2-0.9-3.5l4.3-27.2L3.8,51.8h18c1.5,0,2.6,0.7,3.5,1.6c0.8,0.9,1.2,2,1.1,3.3l-4,28.5l29.5-43.5H35.8z"/>
</svg>
