<?xml version="1.0" encoding="utf-8"?>
<!-- Generator: Adobe Illustrator 22.1.0, SVG Export Plug-In . SVG Version: 6.00 Build 0)  -->
<svg version="1.1" id="Layer_1" xmlns="http://www.w3.org/2000/svg" xmlns:xlink="http://www.w3.org/1999/xlink" x="0px" y="0px"
	 viewBox="0 0 95.8 95.8" style="enable-background:new 0 0 95.8 95.8;" xml:space="preserve">

<path class="st0" d="M87.7,95.8H8.3c-4.5,0-8.3-3.5-8.3-8v-46c0-0.5,0.3-0.9,0.7-1.3c0,0,0-0.1,0.1-0.1c0,0,0.1-0.1,0.1-0.1
	c0,0,0-0.1,0.1-0.1l11.3-9.8V13.9c0-1.1,0.9-2,2-2h19.3L46.7,0.5c0.7-0.6,1.9-0.6,2.6,0l13.2,11.5h19.3c1.1,0,2,0.9,2,2v16.5
	l11.3,9.8c0,0,0,0.1,0.1,0.1c0,0,0.1,0.1,0.1,0.1c0.1,0.1,0.1,0.2,0.2,0.4c0,0.1,0.1,0.1,0.1,0.2c0.1,0.3,0.2,0.5,0.2,0.8
	c0,0,0,0,0,0.1v45.8C95.8,92.2,92.1,95.8,87.7,95.8z M8.3,91.8h79.4c0.4,0,0.8-0.1,1.2-0.2L49,56.2c-0.5-0.4-1.5-0.4-2,0L7.1,91.6
	C7.5,91.7,7.9,91.8,8.3,91.8z M4,87.8c0,0.4,0.1,0.7,0.2,1.1l24.2-21.5L4,46V87.8z M5.2,41.8l6.9,6.1V35.8L5.2,41.8z M48,4.6
	l-8.4,7.3h16.9L48,4.6z M16,15.8v35.4l15.4,13.5l13-11.5c2.1-1.8,5.2-1.8,7.3,0l13,11.5L80,51.2V32.1c-0.2-0.5-0.2-1,0-1.4V15.8H16z
	 M83.8,35.8v12.1l6.9-6.1L83.8,35.8z M92,46L67.6,67.4l24.2,21.5c0.1-0.4,0.2-0.7,0.2-1.1V46z"/>
</svg>
