<?xml version="1.0" encoding="utf-8"?>
<!-- Generator: Adobe Illustrator 22.1.0, SVG Export Plug-In . SVG Version: 6.00 Build 0)  -->
<svg version="1.1" id="Layer_1" xmlns="http://www.w3.org/2000/svg" xmlns:xlink="http://www.w3.org/1999/xlink" x="0px" y="0px"
	 viewBox="0 0 96 64" style="enable-background:new 0 0 96 64;" xml:space="preserve">

<path class="st0" d="M87.9,64H8.1C3.6,64,0,60.4,0,56V8c0-4.4,3.6-8,8.1-8h79.7C92.4,0,96,3.6,96,8v48C96,60.4,92.4,64,87.9,64z
	 M4,56c0,2.2,1.9,4,4.1,4h79.7c2.3,0,4.1-1.8,4.1-4V8c0-0.3-0.1-0.7-0.1-1L49.3,43.5C48.9,43.8,48.5,44,48,44s-0.9-0.2-1.3-0.5
	L4.1,7C4.1,7.3,4,7.7,4,8V56z M8.1,4C7.7,4,7.3,4.1,7,4.2l41,35.2L89,4.2C88.7,4.1,88.3,4,87.9,4H8.1z"/>
</svg>
