<?xml version="1.0" encoding="utf-8"?>
<!-- Generator: Adobe Illustrator 22.1.0, SVG Export Plug-In . SVG Version: 6.00 Build 0)  -->
<svg version="1.1" id="Layer_1" xmlns="http://www.w3.org/2000/svg" xmlns:xlink="http://www.w3.org/1999/xlink" x="0px" y="0px"
	 viewBox="0 0 95.8 95.8" style="enable-background:new 0 0 95.8 95.8;" xml:space="preserve">

<path class="st0" d="M95.8,41.8C95.8,41.9,95.8,41.9,95.8,41.8l0,45.9c0,4.5-3.6,8.1-8.1,8.1H8.3c-4.5,0-8.3-3.5-8.3-8v-46
	c0-0.5,0.3-0.9,0.7-1.3c0,0,0-0.1,0-0.1c0,0,0.1,0,0.1-0.1c0,0,0-0.1,0.1-0.1L46.7,0.5c0.8-0.6,1.9-0.6,2.6,0l45.8,39.8
	c0,0,0,0.1,0.1,0.1c0,0,0.1,0.1,0.1,0.1c0.1,0.1,0.1,0.2,0.2,0.4c0,0.1,0.1,0.1,0.1,0.2C95.7,41.3,95.8,41.6,95.8,41.8z M92,87.8V46
	L67.6,67.4l24.2,21.5C91.9,88.6,92,88.2,92,87.8z M8.3,91.8h79.4c0.4,0,0.8-0.1,1.2-0.2L49,56.2c-0.5-0.4-1.5-0.4-2,0L7.1,91.6
	C7.5,91.7,7.9,91.8,8.3,91.8z M4,87.8c0,0.4,0.1,0.7,0.2,1.1l24.2-21.5L4,46V87.8z M48,4.6L5.2,41.8l26.1,23l13-11.5
	c2-1.8,5.2-1.8,7.3,0l13,11.5l26.2-22.9L48,4.6z"/>
</svg>
