<?xml version="1.0" encoding="utf-8"?>
<!-- Generator: Adobe Illustrator 22.1.0, SVG Export Plug-In . SVG Version: 6.00 Build 0)  -->
<svg version="1.1" id="Layer_1" xmlns="http://www.w3.org/2000/svg" xmlns:xlink="http://www.w3.org/1999/xlink" x="0px" y="0px"
	 viewBox="0 0 96 68" style="enable-background:new 0 0 96 68;" xml:space="preserve">

<path class="st0" d="M48,68C15,68,0,41.9,0,34S15,0,48,0s48,26.1,48,34S81,68,48,68z M48,4C17.6,4,4,27.8,4,34s13.6,30,44,30
	s44-23.8,44-30S78.4,4,48,4z M48,52c-9.9,0-18-8.1-18-18s8.1-18,18-18s18,8.1,18,18S57.9,52,48,52z M48,20c-7.7,0-14,6.3-14,14
	s6.3,14,14,14s14-6.3,14-14S55.7,20,48,20z"/>
</svg>
