<?xml version="1.0" encoding="utf-8"?>
<!-- Generator: Adobe Illustrator 22.1.0, SVG Export Plug-In . SVG Version: 6.00 Build 0)  -->
<svg version="1.1" id="Layer_1" xmlns="http://www.w3.org/2000/svg" xmlns:xlink="http://www.w3.org/1999/xlink" x="0px" y="0px"
	 viewBox="0 0 96 96" style="enable-background:new 0 0 96 96;" xml:space="preserve">
<style type="text/css">
	.st0{clip-path:url(#SVGID_2_);}
	.st1{clip-path:url(#SVGID_4_);fill:#1B1B1B;}
	.st2{clip-path:url(#SVGID_2_);fill:#1B1B1B;}
</style>
<g>
	<defs>
		<rect id="SVGID_1_" width="96" height="96"/>
	</defs>
	<clipPath id="SVGID_2_">
		<use xlink:href="#SVGID_1_"  style="overflow:visible;"/>
	</clipPath>
	<g class="st0">
		<defs>
			<path id="SVGID_3_" d="M86.9,22.7l28.4,28.4l-61.6,61.6L25.3,84.4L86.9,22.7z M-16.3,48.9l28.6,28.6l64.4-64.4L48.1-15.6
				L-16.3,48.9z"/>
		</defs>
		<clipPath id="SVGID_4_">
			<use xlink:href="#SVGID_3_"  style="overflow:visible;"/>
		</clipPath>
		<path class="st1" d="M95.7,50.7c0,4.5,0,12.9-5.5,18.4c-3.4,3.4-8.2,5.1-14.3,5.1h-4.3c-0.1,0-0.1,0-0.2,0
			c-11.2-0.3-17.6-11.1-19-18.9c0,0-0.1-0.1-0.1-0.1c0,0-1.5-2.9-4.2-2.9c-2.7,0-4.2,2.9-4.2,2.9c0,0-0.1,0.1-0.1,0.1
			c-1.4,7.7-7.9,18.6-19.1,18.9c-0.1,0-0.1,0-0.2,0h-4.3c-6.2,0-11-1.7-14.3-5.1c-5.6-5.6-5.6-13.9-5.5-18.4v-0.4
			c0-1.1,0.1-2.1,0.3-3c-0.3-0.6-0.4-1.3-0.1-1.9l13.9-25.9c0.1-0.2,2.5-4.5,7.2-4.9c3.9-0.4,7.9,1.8,12,6.6
			c0.7,0.8,0.6,2.1-0.2,2.8c-0.8,0.7-2.1,0.6-2.8-0.2c-3.2-3.7-6.1-5.5-8.5-5.2c-2.6,0.3-4.1,2.9-4.1,2.9l-10.7,20
			c3.1-0.8,7.4-1,13-1c8.9,0,20.7,3.3,23.3,9.4c1.2-0.8,2.7-1.5,4.5-1.5c1.8,0,3.3,0.6,4.5,1.5c2.6-6.2,14.5-9.4,23.3-9.4
			c5.6,0,9.8,0.2,13,1l-10.8-20c0,0-1.5-2.6-4.1-2.9c-2.4-0.2-5.4,1.6-8.5,5.2c-0.7,0.8-2,0.9-2.8,0.2c-0.8-0.7-0.9-2-0.2-2.8
			c4.1-4.8,8.1-7,12-6.6c4.7,0.5,7.1,4.7,7.2,4.9l13.9,25.9c0.3,0.6,0.3,1.4-0.1,1.9c0.2,0.9,0.3,1.9,0.3,3V50.7z M20.2,44.3
			c-15.9,0-15.9,2.1-15.9,6v0.4c0,3.9,0,11.2,4.4,15.6c2.6,2.6,6.5,3.9,11.5,3.9h4c11,0,15.9-13,15.9-17.9
			C40,48.4,29.8,44.3,20.2,44.3z M91.7,50.3c0-3.9,0-6-15.9-6c-9.7,0-19.9,4.1-19.9,8c0,4.9,4.9,17.9,15.9,17.9h4
			c5.1,0,8.9-1.3,11.5-3.9c4.4-4.4,4.4-11.7,4.4-15.6V50.3z"/>
	</g>
	<path class="st2" d="M49.4,53L10.4,92.1c-1,1-2.5,1.2-3.2,0.4c-0.8-0.8-0.6-2.2,0.4-3.2L91.2,5.6c1-1,2.4-1.2,3.2-0.4
		C95.2,6,95,7.4,94,8.4L57.6,44.9"/>
</g>
</svg>
