<?xml version="1.0" encoding="utf-8"?>
<!-- Generator: Adobe Illustrator 22.1.0, SVG Export Plug-In . SVG Version: 6.00 Build 0)  -->
<svg version="1.1" id="Layer_1" xmlns="http://www.w3.org/2000/svg" xmlns:xlink="http://www.w3.org/1999/xlink" x="0px" y="0px"
	 viewBox="0 0 95.4 59.7" style="enable-background:new 0 0 95.4 59.7;" xml:space="preserve">

<path class="st0" d="M95.4,36.2c0,4.5,0,12.9-5.5,18.4c-3.4,3.4-8.2,5.1-14.3,5.1h-4.3c-0.1,0-0.1,0-0.2,0
	c-11.2-0.3-17.6-11.1-19-18.9c0,0-0.1-0.1-0.1-0.1c0,0-1.5-2.9-4.2-2.9c-2.7,0-4.2,2.9-4.2,2.9c0,0-0.1,0.1-0.1,0.1
	c-1.4,7.7-7.9,18.6-19.1,18.9c-0.1,0-0.1,0-0.2,0h-4.3c-6.2,0-11-1.7-14.3-5.1C0,49,0,40.7,0,36.2v-0.4c0-1.1,0.1-2.1,0.3-3
	c-0.3-0.6-0.4-1.3-0.1-1.9L14.1,5c0.1-0.2,2.5-4.5,7.2-4.9c3.9-0.4,7.9,1.8,12,6.6c0.7,0.8,0.6,2.1-0.2,2.8
	c-0.8,0.7-2.1,0.6-2.8-0.2c-3.2-3.7-6.1-5.5-8.5-5.2c-2.6,0.3-4.1,2.9-4.1,2.9l-10.7,20c3.1-0.8,7.4-1,13-1c8.9,0,20.7,3.3,23.3,9.4
	c1.2-0.8,2.7-1.5,4.5-1.5c1.8,0,3.3,0.6,4.5,1.5c2.6-6.2,14.5-9.4,23.3-9.4c5.6,0,9.8,0.2,13,1l-10.8-20c0,0-1.5-2.6-4.1-2.9
	c-2.4-0.2-5.4,1.6-8.5,5.2c-0.7,0.8-2,0.9-2.8,0.2c-0.8-0.7-0.9-2-0.2-2.8c4.1-4.8,8.1-7,12-6.6c4.7,0.5,7.1,4.7,7.2,4.9l13.9,25.9
	c0.3,0.6,0.3,1.4-0.1,1.9c0.2,0.9,0.3,1.9,0.3,3V36.2z M19.9,29.8C4,29.8,4,31.9,4,35.8v0.4c0,3.9,0,11.2,4.4,15.6
	c2.6,2.6,6.5,3.9,11.5,3.9h4c11,0,15.9-13,15.9-17.9C39.8,33.9,29.5,29.8,19.9,29.8z M91.5,35.8c0-3.9,0-6-15.9-6
	c-9.7,0-19.9,4.1-19.9,8c0,4.9,4.9,17.9,15.9,17.9h4c5.1,0,8.9-1.3,11.5-3.9c4.4-4.4,4.4-11.7,4.4-15.6V35.8z"/>
</svg>
