<?xml version="1.0" encoding="utf-8"?>
<!-- Generator: Adobe Illustrator 22.1.0, SVG Export Plug-In . SVG Version: 6.00 Build 0)  -->
<svg version="1.1" id="Layer_1" xmlns="http://www.w3.org/2000/svg" xmlns:xlink="http://www.w3.org/1999/xlink" x="0px" y="0px"
	 viewBox="0 0 43.8 96" style="enable-background:new 0 0 43.8 96;" xml:space="preserve">

<path class="st0" d="M43.7,32.4l-3,12.1c-0.5,2-2.4,3.5-4.5,3.5h-8v44c0,2.2-1.8,4-4,4H12.1c-2.2,0-4-1.8-4-4V48H4c-2.2,0-4-1.8-4-4
	V32c0-2.2,1.8-4,4-4h4V18C8,9.3,14.4,0,26.1,0h12.1C39.3,0,40,0.9,40,2v16c0,1.1-0.7,2-1.8,2H28.1v8h12.1c1.2,0,2.2,0.5,2.9,1.3
	C43.7,30.2,44,31.3,43.7,32.4z M26.2,32c0,0-0.1,0-0.1,0c-1.1,0-2-0.9-2-2V19.8c0-0.2,0-0.4,0.1-0.5c0.3-1.7,1.7-3.3,4-3.3H36V4
	h-9.9c-9.2,0-14.1,7-14.1,14v12c0,1.1-0.9,2-2,2H4v12h6c1.1,0,2,0.9,2,2v46h12.1V46c0-1.1,0.9-2,2-2h10.1c0.2,0,0.5-0.2,0.5-0.4
	L39.6,32H26.2z"/>
</svg>
