<?xml version="1.0" encoding="utf-8"?>
<!-- Generator: Adobe Illustrator 22.1.0, SVG Export Plug-In . SVG Version: 6.00 Build 0)  -->
<svg version="1.1" id="Layer_1" xmlns="http://www.w3.org/2000/svg" xmlns:xlink="http://www.w3.org/1999/xlink" x="0px" y="0px"
	 viewBox="0 0 96 96" style="enable-background:new 0 0 96 96;" xml:space="preserve">

<path class="st0" d="M94,88c-1.1,0-2-0.9-2-2v-7.8C92,37.3,58.7,4,17.8,4H10C8.9,4,8,3.1,8,2s0.9-2,2-2h7.8C60.9,0,96,35.1,96,78.2
	V86C96,87.1,95.1,88,94,88z M32,80c0,8.8-7.2,16-16,16S0,88.8,0,80s7.2-16,16-16S32,71.2,32,80z M4,80c0,6.6,5.4,12,12,12
	s12-5.4,12-12s-5.4-12-12-12S4,73.4,4,80z M10,36c-1.1,0-2-0.9-2-2s0.9-2,2-2h7.6C43.2,32,64,52.8,64,78.4V86c0,1.1-0.9,2-2,2
	s-2-0.9-2-2v-7.6C60,55,41,36,17.6,36H10z"/>
</svg>
