<?xml version="1.0" encoding="utf-8"?>
<!-- Generator: Adobe Illustrator 22.1.0, SVG Export Plug-In . SVG Version: 6.00 Build 0)  -->
<svg version="1.1" id="Layer_1" xmlns="http://www.w3.org/2000/svg" xmlns:xlink="http://www.w3.org/1999/xlink" x="0px" y="0px"
	 viewBox="0 0 95.8 96" style="enable-background:new 0 0 95.8 96;" xml:space="preserve">

<path class="st0" d="M57.9,76c-9.7,0-18.6-3.7-25.3-9.8L19.8,79l13.6,13.6c0.8,0.8,0.8,2,0,2.8C33,95.8,32.5,96,31.9,96
	c-0.5,0-1-0.2-1.4-0.6L17,81.8L3.4,95.4C3,95.8,2.5,96,2,96s-1-0.2-1.4-0.6c-0.8-0.8-0.8-2,0-2.8L14.1,79L0.6,65.4
	c-0.8-0.8-0.8-2,0-2.8c0.8-0.8,2-0.8,2.8,0L17,76.2l12.8-12.8C23.7,56.6,20,47.8,20,38C20,17,37,0,57.9,0c20.9,0,37.9,17,37.9,38
	S78.8,76,57.9,76z M57.9,4C39.2,4,24,19.3,24,38s15.2,34,33.9,34c18.7,0,33.9-15.3,33.9-34S76.6,4,57.9,4z"/>
</svg>
