<?xml version="1.0" encoding="utf-8"?>
<!-- Generator: Adobe Illustrator 22.1.0, SVG Export Plug-In . SVG Version: 6.00 Build 0)  -->
<svg version="1.1" id="Layer_1" xmlns="http://www.w3.org/2000/svg" xmlns:xlink="http://www.w3.org/1999/xlink" x="0px" y="0px"
	 viewBox="0 0 96 96" style="enable-background:new 0 0 96 96;" xml:space="preserve">

<path class="st0" d="M90.9,96H5.1C2.3,96,0,93.7,0,90.9v-6.1c0-0.7,0.4-1.4,1-1.8l31-16.9c0.6-0.3,1-0.7,1.4-1
	c-0.3-0.1-0.6-0.2-1-0.3l-18.7-2.6c-0.8-0.1-1.5-0.7-1.7-1.5c-0.2-0.8,0.1-1.6,0.8-2.1C21,52.8,23.7,29,24,20.3c0,0,0-0.1,0-0.1
	c0-0.1,0-0.1,0-0.1C26,8.4,36.1,0,48,0s22,8.4,24,20c0,0,0,0.1,0,0.1c0,0,0,0.1,0,0.1c0.3,8.7,3,32.5,11.2,38.3
	c0.7,0.5,1,1.3,0.8,2.1c-0.2,0.8-0.9,1.4-1.7,1.5l-18.7,2.6c-0.4,0.1-0.8,0.2-1,0.3c0.3,0.3,0.8,0.7,1.4,1L95,83c0.6,0.4,1,1,1,1.8
	v6.1C96,93.7,93.7,96,90.9,96z M92,86L62,69.6c-0.7-0.4-4-2.3-4-4.8c0-2.2,2.6-3.6,5-3.9l14.7-2.1c-8.4-10.8-9.6-36-9.7-38.2
	C66.3,11,57.9,4,48,4s-18.3,7-20,16.6c-0.1,2.2-1.4,27.4-9.7,38.2L33,60.9c2.4,0.3,5,1.7,5,3.9c0,2.4-3.3,4.4-4,4.8L4,86v4.9
	C4,91.5,4.5,92,5.1,92h85.9c0.6,0,1.1-0.5,1.1-1.1V86z"/>
</svg>
