<?xml version="1.0" encoding="utf-8"?>
<!-- Generator: Adobe Illustrator 22.1.0, SVG Export Plug-In . SVG Version: 6.00 Build 0)  -->
<svg version="1.1" id="Layer_1" xmlns="http://www.w3.org/2000/svg" xmlns:xlink="http://www.w3.org/1999/xlink" x="0px" y="0px"
	 viewBox="0 0 96 96" style="enable-background:new 0 0 96 96;" xml:space="preserve">

<path class="st0" d="M90,96H6c-3.3,0-6-2.7-6-6V6c0-3.3,2.7-6,6-6h84c3.3,0,6,2.7,6,6v84C96,93.3,93.3,96,90,96z M92,6
	c0-1.1-0.9-2-2-2H6C4.9,4,4,4.9,4,6v84c0,1.1,0.9,2,2,2h84c1.1,0,2-0.9,2-2V6z M82,82h-8c-1.1,0-2-0.9-2-2v-4c0-1.1,0.9-2,2-2h8
	c1.1,0,2,0.9,2,2v4C84,81.1,83.1,82,82,82z M82,62h-8c-1.1,0-2-0.9-2-2v-4c0-1.1,0.9-2,2-2h8c1.1,0,2,0.9,2,2v4
	C84,61.1,83.1,62,82,62z M82,42h-8c-1.1,0-2-0.9-2-2v-4c0-1.1,0.9-2,2-2h8c1.1,0,2,0.9,2,2v4C84,41.1,83.1,42,82,42z M82,22h-8
	c-1.1,0-2-0.9-2-2v-4c0-1.1,0.9-2,2-2h8c1.1,0,2,0.9,2,2v4C84,21.1,83.1,22,82,22z M22,82h-8c-1.1,0-2-0.9-2-2v-4c0-1.1,0.9-2,2-2h8
	c1.1,0,2,0.9,2,2v4C24,81.1,23.1,82,22,82z M22,62h-8c-1.1,0-2-0.9-2-2v-4c0-1.1,0.9-2,2-2h8c1.1,0,2,0.9,2,2v4
	C24,61.1,23.1,62,22,62z M22,42h-8c-1.1,0-2-0.9-2-2v-4c0-1.1,0.9-2,2-2h8c1.1,0,2,0.9,2,2v4C24,41.1,23.1,42,22,42z M22,22h-8
	c-1.1,0-2-0.9-2-2v-4c0-1.1,0.9-2,2-2h8c1.1,0,2,0.9,2,2v4C24,21.1,23.1,22,22,22z"/>
</svg>
