<?xml version="1.0" encoding="utf-8"?>
<!-- Generator: Adobe Illustrator 22.1.0, SVG Export Plug-In . SVG Version: 6.00 Build 0)  -->
<svg version="1.1" xmlns="http://www.w3.org/2000/svg" xmlns:xlink="http://www.w3.org/1999/xlink" x="0px" y="0px"
	 viewBox="0 0 96 106.4" style="enable-background:new 0 0 96 106.4;" xml:space="preserve">
<style type="text/css">
	.st0{opacity:0.32;fill:#1B1B1B;}
	.st1{fill:#1B1B1B;}
</style>
<g id="Layer_1">
	<path class="st0" d="M0,3L0,3c0-1.7,1.3-3,3-3h90c1.6,0,3,1.3,3,3l0,0c0,1.6-1.3,3-3,3H3C1.3,6,0,4.7,0,3z"/>
	<path class="st1" d="M37.4,106.3L37.4,106.3c-1.7,0-3-1.4-3-3V62.8c0-1.7,1.4-3,3-3h0c1.7,0,3,1.4,3,3v40.4
		C40.4,104.9,39.1,106.3,37.4,106.3z"/>
	<path class="st1" d="M58.4,94.1L58.4,94.1c-1.7,0-3-1.4-3-3v-28c0-1.7,1.4-3,3-3h0c1.7,0,3,1.4,3,3v28
		C61.4,92.8,60.1,94.1,58.4,94.1z"/>
	<path class="st1" d="M34.8,104.8L34.8,104.8c-0.8-1.4-0.3-3.3,1.1-4.1l21-12.1c1.4-0.8,3.3-0.3,4.1,1.1l0,0
		c0.8,1.4,0.3,3.3-1.1,4.1l-21,12.1C37.5,106.7,35.6,106.2,34.8,104.8z"/>
	<path class="st1" d="M93.1,6.1H3C1.3,6.1,0,4.7,0,3.1V3C0,1.4,1.3,0.1,3,0.1h90.1C94.7,0.1,96,1.4,96,3v0.1
		C96,4.7,94.7,6.1,93.1,6.1z"/>
	<path class="st1" d="M34.7,63.9L0.4,4.5c-0.8-1.4-0.3-3.2,1.1-4l0.1-0.1c1.4-0.8,3.2-0.3,4,1.1l34.3,59.4c0.8,1.4,0.3,3.2-1.1,4
		L38.7,65C37.3,65.8,35.5,65.3,34.7,63.9z"/>
	<path class="st1" d="M61.3,63.9L95.6,4.5c0.8-1.4,0.3-3.2-1.1-4l-0.1-0.1c-1.4-0.8-3.2-0.3-4,1.1L56.1,60.9c-0.8,1.4-0.3,3.2,1.1,4
		l0.1,0.1C58.7,65.8,60.5,65.3,61.3,63.9z"/>
</g>
<g id="Layer_2">
</g>
</svg>
