<?xml version="1.0" encoding="utf-8"?>
<!-- Generator: Adobe Illustrator 22.1.0, SVG Export Plug-In . SVG Version: 6.00 Build 0)  -->
<svg version="1.1" id="Layer_1" xmlns="http://www.w3.org/2000/svg" xmlns:xlink="http://www.w3.org/1999/xlink" x="0px" y="0px"
	 viewBox="0 0 76 95.9" style="enable-background:new 0 0 76 95.9;" xml:space="preserve">

<path class="st0" d="M38,95.9c-21,0-38-17.3-38-38.6c0-12,6-22,6.3-22.4c0.4-0.7,1.1-1,1.9-0.9C9,34,9.6,34.6,9.9,35.3
	c0,0.1,3.4,8.7,11.9,13.4C21.2,38.6,22.1,9.5,47.3,0.1C48-0.1,48.8,0,49.4,0.5c0.6,0.5,0.8,1.3,0.6,2c-0.1,0.3-6.4,23.8,4.6,33.8
	c1-4.7,3.6-13.2,10.3-18c0.6-0.4,1.3-0.5,1.9-0.2c0.6,0.2,1.1,0.8,1.2,1.5c1.2,6.3,2.7,10.4,4,14.1c2.2,6.2,4,11.5,4,23.6
	C76,78.6,59,95.9,38,95.9z M8,40.4c-1.7,3.7-4,10-4,16.9c0,19.1,15.3,34.6,34,34.6s34-15.5,34-34.6C72,46,70.3,41.1,68.2,35
	c-1.1-3.1-2.3-6.6-3.4-11.3C58.9,30,58,40,58,40.1c-0.1,0.7-0.5,1.3-1.1,1.6C56.3,42,55.6,42,55,41.7c-13.4-8.1-11.4-27.8-9.8-36.3
	c-9.5,4.7-15.6,13.5-18.2,26c-2.3,10.7-1,20.2-1,20.3c0.1,0.7-0.2,1.4-0.7,1.8c-0.5,0.4-1.3,0.6-2,0.3C15.1,50.7,10.3,44.4,8,40.4z"
	/>
</svg>
