<?xml version="1.0" encoding="utf-8"?>
<!-- Generator: Adobe Illustrator 22.1.0, SVG Export Plug-In . SVG Version: 6.00 Build 0)  -->
<svg version="1.1" id="Layer_1" xmlns="http://www.w3.org/2000/svg" xmlns:xlink="http://www.w3.org/1999/xlink" x="0px" y="0px"
	 viewBox="0 0 83.6 96" style="enable-background:new 0 0 83.6 96;" xml:space="preserve">

<path class="st0" d="M83.6,45.2c0,0.2-0.1,0.3-0.1,0.5c-0.1,0.4-0.2,0.7-0.5,0.9c0,0,0,0,0,0c-7.5,7.2-15.2,9.6-22.9,9.6
	c-7.9,0-15.7-2.5-23-4.9c-12.8-4.1-23.8-7.7-33.3,1V94c0,1.1-0.7,2-1.8,2s-2-0.9-2-2V8.2c0-0.8,0.5-1.4,1.1-1.8
	c11.2-10.3,24.4-6,37.2-1.9c14,4.5,28.5,9.2,41.9-3.8c0,0,0,0,0,0c0.3-0.4,0.8-0.6,1.3-0.6c1.1,0,2,0.9,2,2L83.6,45.2
	C83.6,45.2,83.6,45.2,83.6,45.2z M37.1,8.3c-12.8-4.1-23.8-7.7-33.3,1v37.9c10.6-7.4,22.7-3.5,34.5,0.3c13.9,4.5,28.2,9.1,41.5-3.5
	V6.3c-6.5,5.1-13.1,6.9-19.7,6.9C52.2,13.2,44.4,10.7,37.1,8.3z"/>
</svg>
