<?xml version="1.0" encoding="utf-8"?>
<!-- Generator: Adobe Illustrator 22.1.0, SVG Export Plug-In . SVG Version: 6.00 Build 0)  -->
<svg version="1.1" id="Layer_1" xmlns="http://www.w3.org/2000/svg" xmlns:xlink="http://www.w3.org/1999/xlink" x="0px" y="0px"
	 viewBox="0 0 96 75.8" style="enable-background:new 0 0 96 75.8;" xml:space="preserve">

<path class="st0" d="M90,75.7H6c-3.3,0-6-2.7-6-6V6c0-3.3,2.7-6,6-6h29.7C35.8,0,35.9,0,36,0c0.1,0,0.3,0,0.4,0.1
	c0.1,0,0.2,0.1,0.4,0.2c0.1,0,0.2,0.1,0.2,0.1l11.7,9.5H90c3.3,0,6,2.7,6,6v53.8C96,73.1,93.3,75.7,90,75.7z M6,71.8h84
	c1.1,0,2-0.9,2-2v-44H4v44C4,70.9,4.9,71.8,6,71.8z M90,13.8H48.8c-0.3,0.1-0.5,0.2-0.8,0.2c-0.4,0-0.9-0.1-1.3-0.4l-12-9.7H6
	C4.9,3.8,4,4.9,4,6v16h88v-6C92,14.8,91.1,13.8,90,13.8z"/>
</svg>
