<?xml version="1.0" encoding="utf-8"?>
<!-- Generator: Adobe Illustrator 22.1.0, SVG Export Plug-In . SVG Version: 6.00 Build 0)  -->
<svg version="1.1" id="Layer_1" xmlns="http://www.w3.org/2000/svg" xmlns:xlink="http://www.w3.org/1999/xlink" x="0px" y="0px"
	 viewBox="0 0 96 96" style="enable-background:new 0 0 96 96;" xml:space="preserve">

<path class="st0" d="M94,84H84v10c0,1.1-0.9,2-2,2c-1.1,0-2-0.9-2-2V84h-10c-1.1,0-2-0.9-2-2s0.9-2,2-2h10V70c0-1.1,0.9-2,2-2
	c1.1,0,2,0.9,2,2v10h10c1.1,0,2,0.9,2,2S95.1,84,94,84z M70.7,68.1c1,0.4,1.5,1.6,1.1,2.6c-0.3,0.8-1.1,1.3-1.9,1.3
	c-0.2,0-0.5,0-0.7-0.1l-10-4c0,0,0,0-0.1-0.1c-0.1-0.1-0.2-0.1-0.3-0.2c-0.1-0.1-0.2-0.2-0.3-0.2c0,0-0.1,0-0.1-0.1
	c-0.1-0.1-0.1-0.2-0.1-0.2c-0.1-0.1-0.1-0.2-0.2-0.4c0-0.1-0.1-0.2-0.1-0.4c0-0.1,0-0.2,0-0.4c0-0.1,0-0.3,0.1-0.4
	c0-0.1,0-0.2,0.1-0.3c0,0,0-0.1,0.1-0.1c0.1-0.1,0.1-0.2,0.2-0.3c0.1-0.1,0.2-0.2,0.3-0.3c0,0,0-0.1,0.1-0.1
	C69.8,55.3,70,38.2,70,38V20C68.3,10.4,57.1,4.1,48,4l-0.2,0c-9.1,0-20.3,6.7-22,16.4l0,18.1c0,0.2,0.1,16.7,11.3,25.9
	c0.1,0.1,0.2,0.2,0.2,0.3c0.1,0.1,0.2,0.2,0.2,0.3c0,0,0,0,0,0c0.1,0.2,0.1,0.3,0.2,0.5c0,0.1,0.1,0.2,0.1,0.2c0,0.1,0,0.2,0,0.4
	c0,0.1,0,0.3,0,0.4c0,0.1-0.1,0.1-0.1,0.2c-0.1,0.2-0.1,0.3-0.3,0.5c0,0,0,0,0,0c0,0-0.1,0.1-0.1,0.1c-0.1,0.1-0.3,0.3-0.4,0.4
	L4,85.8v5C4,91.5,4.5,92,5.1,92h58.8c1.1,0,2,0.9,2,2s-0.9,2-2,2H5.1C2.3,96,0,93.7,0,90.9v-6.2c0-0.7,0.4-1.4,1-1.8l31.4-17.3
	C21.9,55,22,38.7,22,38V20l-0.2,0C23.8,8.1,36.8,0.1,47.7,0l0.2,0c11,0,24,8,26,19.9l0,0.3l0,18.3c0,0.7-0.1,16.2-10.4,26.8
	L70.7,68.1z"/>
</svg>
