<?xml version="1.0" encoding="utf-8"?>
<!-- Generator: Adobe Illustrator 22.1.0, SVG Export Plug-In . SVG Version: 6.00 Build 0)  -->
<svg version="1.1" id="Layer_1" xmlns="http://www.w3.org/2000/svg" xmlns:xlink="http://www.w3.org/1999/xlink" x="0px" y="0px"
	 viewBox="0 0 95.8 96" style="enable-background:new 0 0 95.8 96;" xml:space="preserve">

<path class="st0" d="M95.3,73.2l-16,22c-0.3,0.5-0.9,0.8-1.5,0.8l-0.2,0c-0.5,0-1-0.2-1.4-0.6l-12-12c-0.8-0.8-0.8-2,0-2.8
	c0.8-0.8,2-0.8,2.8,0l10.3,10.3l14.6-20.1c0.6-0.9,1.9-1.1,2.8-0.4C95.8,71,96,72.3,95.3,73.2z M63.2,65.5l9.4,4.7
	c1,0.5,1.4,1.7,0.9,2.7c-0.3,0.7-1.1,1.1-1.8,1.1c-0.3,0-0.6-0.1-0.9-0.2l-12-6c0,0,0,0,0,0c-0.1-0.1-0.2-0.2-0.3-0.3
	c-0.1-0.1-0.2-0.1-0.3-0.2c0,0,0,0,0,0c-0.1-0.1-0.1-0.2-0.1-0.2c-0.1-0.1-0.2-0.3-0.2-0.5c0-0.1,0-0.2,0-0.4c0-0.1,0-0.3,0-0.4
	c0-0.2,0.1-0.3,0.1-0.5c0-0.1,0-0.2,0.1-0.2c0,0,0,0,0,0c0.1-0.1,0.2-0.2,0.2-0.3c0.1-0.1,0.2-0.2,0.3-0.3c0,0,0,0,0,0
	C69.6,55.3,70,38.2,70,38V20C68.3,10.4,56.9,4.1,47.9,4l-0.2,0c-9.1,0-20,6.3-21.7,16v18c0,0.2-0.1,17.3,11,26.5
	c0.1,0.1,0.2,0.2,0.2,0.3c0.1,0.1,0.2,0.2,0.2,0.3c0,0,0,0,0,0c0.1,0.2,0.1,0.3,0.2,0.5c0,0.1,0.1,0.2,0.1,0.2c0,0.1,0,0.2,0,0.3
	c0,0.1,0,0.3,0,0.4c0,0.1-0.1,0.1-0.1,0.2c-0.1,0.2-0.1,0.3-0.3,0.5c0,0,0,0,0,0c0,0-0.1,0.1-0.1,0.1c-0.1,0.1-0.3,0.3-0.4,0.4
	L4,85.8v5C4,91.5,4.5,92,5.1,92h54.7c1.1,0,2,0.9,2,2s-0.9,2-2,2H5.1C2.3,96,0,93.7,0,90.9v-6.2c0-0.7,0.4-1.4,1-1.8l31.3-17.3
	C21.9,55,22,38.7,22,38V20l-0.2,0C23.7,8.1,36.7,0.1,47.5,0l0.2,0c10.9,0,24,8,26,19.9L74,20v18C74,38.7,73.7,54.9,63.2,65.5z"/>
</svg>
