<?xml version="1.0" encoding="utf-8"?>
<!-- Generator: Adobe Illustrator 22.1.0, SVG Export Plug-In . SVG Version: 6.00 Build 0)  -->
<svg version="1.1" id="Layer_1" xmlns="http://www.w3.org/2000/svg" xmlns:xlink="http://www.w3.org/1999/xlink" x="0px" y="0px"
	 viewBox="0 0 96 72" style="enable-background:new 0 0 96 72;" xml:space="preserve">

<path class="st0" d="M40.5,72C40.5,72,40.5,72,40.5,72C38,72,38,69.4,38,68.1V51.9L5.7,71.3C4.9,71.8,4.2,72,3.4,72
	C1.8,72,0,70.8,0,68V3.9C0,1.2,1.8,0,3.4,0c0.8,0,1.6,0.3,2.3,0.8L38,20.1V3.9c0-0.8,0-1.3,0.1-1.8C38.4,0.6,39.5,0,40.4,0
	c0.8,0,1.5,0.4,2,0.8l51.5,33c1.3,0.8,2,2.1,2,3.4c0,1.3-0.8,2.5-2,3.3L42.5,71.3C41.9,71.7,41.3,72,40.5,72z M4,4.4v63.3l35-21
	c0.6-0.4,1.4-0.4,2,0c0.6,0.4,1,1,1,1.7v18.6l49.8-29.9L42,5.2v18.4c0,0.7-0.4,1.4-1,1.7c-0.6,0.4-1.4,0.3-2,0L4,4.4z"/>
</svg>
