<?xml version="1.0" encoding="utf-8"?>
<!-- Generator: Adobe Illustrator 22.1.0, SVG Export Plug-In . SVG Version: 6.00 Build 0)  -->
<svg version="1.1" id="Layer_1" xmlns="http://www.w3.org/2000/svg" xmlns:xlink="http://www.w3.org/1999/xlink" x="0px" y="0px"
	 viewBox="0 0 96 72" style="enable-background:new 0 0 96 72;" xml:space="preserve">

<path class="st0" d="M94,72H74c-1.1,0-2-0.9-2-2s0.9-2,2-2h18V49.9c0-1.1,0.9-2,2-2s2,0.9,2,2V70C96,71.1,95.1,72,94,72z M94,23.9
	c-1.1,0-2-0.9-2-2V4H74c-1.1,0-2-0.9-2-2c0-1.1,0.9-2,2-2h20c1.1,0,2,0.9,2,2v19.9C96,23,95.1,23.9,94,23.9z M22,72H2
	c-1.1,0-2-0.9-2-2V50.1c0-1.1,0.9-2,2-2s2,0.9,2,2V68h18c1.1,0,2,0.9,2,2S23.1,72,22,72z M22,4H4v18.1c0,1.1-0.9,2-2,2s-2-0.9-2-2V2
	c0-1.1,0.9-2,2-2h20c1.1,0,2,0.9,2,2S23.1,4,22,4z"/>
</svg>
