<?xml version="1.0" encoding="utf-8"?>
<!-- Generator: Adobe Illustrator 22.1.0, SVG Export Plug-In . SVG Version: 6.00 Build 0)  -->
<svg version="1.1" id="Layer_1" xmlns="http://www.w3.org/2000/svg" xmlns:xlink="http://www.w3.org/1999/xlink" x="0px" y="0px"
	 viewBox="0 0 95.6 95.8" style="enable-background:new 0 0 95.6 95.8;" xml:space="preserve">

<path class="st0" d="M95.5,94.6c-0.2,0.5-0.6,0.9-1.1,1.1c-0.2,0.1-0.5,0.2-0.8,0.2H73.7c-1.1,0-2-0.9-2-2c0-1.1,0.9-2,2-2l15.1,0
	L60.3,63.3c-0.8-0.8-0.8-2,0-2.8c0.8-0.8,2-0.8,2.8,0l28.7,28.7V73.8c0-1.1,0.7-2,1.8-2c1.1,0,2,0.9,2,2v20
	C95.6,94.1,95.6,94.3,95.5,94.6z M93.6,24c-1.1,0-1.8-1-1.8-2.1V6.6L63.2,35.3c-0.4,0.4-0.9,0.6-1.4,0.6c-0.5,0-1-0.2-1.4-0.6
	c-0.8-0.8-0.8-2,0-2.8L89,3.8H73.8c-1.1,0-2.1-0.7-2.1-1.8c0-1.1,0.9-2,2-2h19.9c0.3,0,0.5,0.1,0.8,0.2c0.5,0.2,0.9,0.6,1.1,1.1
	c0.1,0.2,0.2,0.5,0.2,0.8v20C95.6,23.1,94.7,24,93.6,24z M6.8,91.8l15.1,0c1.1,0,2,0.9,2,2c0,1.1-0.9,2-2,2H2
	c-0.3,0-0.5-0.1-0.8-0.2c-0.5-0.2-0.9-0.6-1.1-1.1C0,94.3,0,94.1,0,93.8c0,0,0,0,0,0v-20c0-1.1,0.9-2,2-2s1.8,0.9,1.8,2v15.3
	l28.6-28.7c0.8-0.8,2-0.8,2.8,0c0.8,0.8,0.8,2,0,2.8L6.8,91.8z M33.9,35.9c-0.5,0-1-0.2-1.4-0.6L3.8,6.7v15.2c0,1.1-0.9,2-2,2
	S0,23.1,0,22V2c0,0,0,0,0,0C0,1.7,0,1.5,0.1,1.2c0.2-0.5,0.6-0.9,1.1-1.1C1.5,0.1,1.7,0,2,0h19.9c1.1,0,2,0.9,2,2
	c0,1.1-1,1.8-2.1,1.8H6.6l28.7,28.7c0.8,0.8,0.8,2,0,2.8C34.9,35.7,34.4,35.9,33.9,35.9z"/>
</svg>
