<?xml version="1.0" encoding="utf-8"?>
<!-- Generator: Adobe Illustrator 22.1.0, SVG Export Plug-In . SVG Version: 6.00 Build 0)  -->
<svg version="1.1" id="Layer_1" xmlns="http://www.w3.org/2000/svg" xmlns:xlink="http://www.w3.org/1999/xlink" x="0px" y="0px"
	 viewBox="0 0 80 95.8" style="enable-background:new 0 0 80 95.8;" xml:space="preserve">

<path class="st0" d="M78.7,95.5c-0.3,0.2-0.6,0.3-0.9,0.3c-0.5,0-0.9-0.2-1.3-0.5c0,0,0,0-0.1,0c-0.1,0-0.1-0.1-0.2-0.1L65.2,82.8
	L54.1,95.1c0,0-0.1,0-0.1,0.1c0,0,0,0.1-0.1,0.1c-0.1,0.1-0.2,0.1-0.3,0.2c-0.1,0.1-0.2,0.1-0.3,0.2c-0.1,0.1-0.3,0.1-0.4,0.1
	c-0.1,0-0.2,0-0.3,0.1c0,0,0,0,0,0c-0.1,0-0.2,0-0.3-0.1c-0.2,0-0.3,0-0.5-0.1c-0.1,0-0.2-0.1-0.3-0.2c-0.1-0.1-0.2-0.1-0.3-0.2
	c0,0,0-0.1-0.1-0.1c0,0-0.1,0-0.1-0.1L40,82.8L28.9,95.1c0,0-0.1,0-0.1,0.1c0,0,0,0.1-0.1,0.1c-0.1,0.1-0.2,0.1-0.3,0.2
	c-0.1,0.1-0.2,0.2-0.3,0.2c-0.1,0-0.2,0.1-0.4,0.1c-0.1,0-0.2,0.1-0.4,0.1c-0.1,0-0.2,0-0.4-0.1c-0.1,0-0.3,0-0.4-0.1
	c-0.1-0.1-0.2-0.1-0.3-0.2c-0.1-0.1-0.2-0.1-0.3-0.2c0,0,0-0.1-0.1-0.1c0,0-0.1,0-0.1-0.1L14.8,82.8L3.7,95.1c0,0-0.1,0.1-0.1,0.1
	c0,0-0.1,0.1-0.1,0.1c-0.4,0.3-0.8,0.5-1.2,0.5c-0.3,0-0.6-0.1-0.9-0.3C0.6,95.3,0,94.8,0,94V38C0,16.7,18,0,40,0
	c21.9,0,40,16.7,40,38v56C80,94.8,79.4,95.3,78.7,95.5z M76,38C76,18.9,59.7,4,40,4C20.2,4,4,18.9,4,38v50.8l9.3-10.3
	c0.4-0.4,0.9-0.7,1.5-0.7c0.6,0,1.1,0.2,1.5,0.7l11.1,12.3l11.1-12.3c0.8-0.8,2.2-0.8,3,0l11.1,12.3l11.1-12.3
	c0.8-0.8,2.2-0.8,2.9,0L76,88.8V38z M55.9,47.9c-3.3,0-6-2.7-6-6c0-3.3,2.7-6,6-6c3.3,0,6,2.7,6,6C61.9,45.2,59.2,47.9,55.9,47.9z
	 M24.1,47.9c-3.3,0-6-2.7-6-6c0-3.3,2.7-6,6-6c3.3,0,6,2.7,6,6C30,45.2,27.4,47.9,24.1,47.9z"/>
</svg>
