<?xml version="1.0" encoding="utf-8"?>
<!-- Generator: Adobe Illustrator 22.1.0, SVG Export Plug-In . SVG Version: 6.00 Build 0)  -->
<svg version="1.1" id="Layer_1" xmlns="http://www.w3.org/2000/svg" xmlns:xlink="http://www.w3.org/1999/xlink" x="0px" y="0px"
	 viewBox="0 0 76 94.9" style="enable-background:new 0 0 76 94.9;" xml:space="preserve">

<path class="st0" d="M34,82.8v8.1h10c1.1,0,2,0.9,2,2c0,1.1-0.9,2-2,2H20c-1.1,0-2-0.9-2-2c0-1.1,0.9-2,2-2h10v-8
	c-7.1-0.2-14.2-2.3-21-6.3c-1-0.6-1.3-1.8-0.7-2.7c0.6-1,1.8-1.3,2.7-0.7c6.6,3.8,13.3,5.8,20.1,5.8c0.3-0.1,0.6-0.2,0.9-0.2
	c0.3,0,0.6,0.1,0.8,0.2C54.5,78.1,72,60.3,72,38.4C72,24,64.4,11,51.7,3.7c-1-0.6-1.3-1.8-0.7-2.7c0.6-1,1.8-1.3,2.7-0.7
	C67.7,8.3,76,22.6,76,38.4C76,62.1,57.4,81.4,34,82.8z M64,39.1C64,56.7,49.6,71,32,71C14.4,71,0,56.7,0,39.1S14.4,7.2,32,7.2
	C49.6,7.2,64,21.5,64,39.1z M32,11.2c-15.4,0-28,12.5-28,27.9S16.6,67,32,67s28-12.5,28-27.9S47.4,11.2,32,11.2z"/>
</svg>
