<?xml version="1.0" encoding="utf-8"?>
<!-- Generator: Adobe Illustrator 22.1.0, SVG Export Plug-In . SVG Version: 6.00 Build 0)  -->
<svg version="1.1" id="Layer_1" xmlns="http://www.w3.org/2000/svg" xmlns:xlink="http://www.w3.org/1999/xlink" x="0px" y="0px"
	 viewBox="0 0 96 96" style="enable-background:new 0 0 96 96;" xml:space="preserve">

<path class="st0" d="M48,96C21.5,96,0,74.5,0,48S21.5,0,48,0s48,21.5,48,48S74.5,96,48,96z M86.1,70c3.5-5.9,5.5-12.7,5.9-20h-18
	c-0.2,7-1.4,13.7-3.7,20L86.1,70C86,70,86,70,86.1,70z M50,46h19.9c-0.2-7-1.6-13.8-4-20H50V46z M83.4,74H68.6
	c-2.7,6.2-6.3,11.9-10.9,16.9C68.2,88.5,77.2,82.4,83.4,74z M50,91.9c0.4,0,0.7,0,1.1-0.1c5.6-5.1,10-11.1,13.2-17.8H50V91.9z
	 M65.9,70c2.4-6.2,3.7-13,4-20H50v20H65.9z M46,50H26.1c0.2,7,1.6,13.8,4,20H46V50z M46,91.9V74H31.8c3.2,6.7,7.6,12.8,13.2,17.8
	C45.3,91.9,45.6,91.9,46,91.9z M38.3,90.9c-4.5-5-8.1-10.7-10.8-16.9H12.6C18.8,82.4,27.8,88.5,38.3,90.9z M10,70h15.8
	c-2.3-6.3-3.5-13.1-3.7-20h-18C4.4,57.3,6.5,64.1,10,70C10,70,10,70,10,70z M9.9,26c-3.5,5.9-5.5,12.7-5.9,20h18
	c0.2-7,1.4-13.7,3.7-20L9.9,26C10,26,10,26,9.9,26z M12.6,22h14.8c2.7-6.2,6.3-11.9,10.9-16.9C27.8,7.5,18.8,13.6,12.6,22z M46,4.1
	c-0.4,0-0.7,0-1.1,0.1c-5.6,5.1-10,11.1-13.2,17.8H46V4.1z M30.1,26c-2.4,6.2-3.7,13-4,20H46V26H30.1z M50,4.1V22h14.2
	c-3.2-6.7-7.6-12.8-13.2-17.8C50.7,4.1,50.4,4.1,50,4.1z M57.7,5.1c4.6,5,8.2,10.7,10.9,16.9h14.8C77.2,13.6,68.2,7.5,57.7,5.1z
	 M86,26H70.2c2.2,6.3,3.5,13,3.7,20h18C91.6,38.7,89.5,31.9,86,26C86,26,86,26,86,26z"/>
</svg>
