<?xml version="1.0" encoding="utf-8"?>
<!-- Generator: Adobe Illustrator 22.1.0, SVG Export Plug-In . SVG Version: 6.00 Build 0)  -->
<svg version="1.1" id="Layer_1" xmlns="http://www.w3.org/2000/svg" xmlns:xlink="http://www.w3.org/1999/xlink" x="0px" y="0px"
	 viewBox="0 0 96 79.9" style="enable-background:new 0 0 96 79.9;" xml:space="preserve">

<path class="st0" d="M96,61.9c0,3.3-2.7,6-6,6s-6-2.7-6-6c0-2.6,1.7-4.8,4-5.6V31.4l-14.1,8.3c0,0.1,0.1,0.3,0.1,0.4v32
	c0,1.1-0.8,1.9-1.9,2c-2.9,1.5-12.6,5.8-26.1,5.8c-13.5,0-23.2-4.3-26.1-5.8c-1.1-0.1-1.9-0.9-1.9-2v-32c0-0.1,0.1-0.3,0.1-0.4
	L1,29.7c-0.6-0.4-1-1-1-1.7s0.4-1.4,1-1.7l44-26c0.6-0.4,1.4-0.4,2,0l44,26l0,0c0.8,0.1,1,0.7,1,1.7v0.1c0,0,0,0,0,0c0,0,0,0,0,0
	v28.3C94.3,57.1,96,59.3,96,61.9z M70,70.7V42.1L47,55.6c-0.3,0.2-0.7,0.3-1,0.3c-0.4,0-0.7-0.1-1-0.3L22,42.1v28.6
	c2.9,1.4,11.9,5.2,24,5.2C58.1,75.9,67.1,72.1,70,70.7z M46,4.3L5.9,27.9L46,51.6l40.1-23.7L46,4.3z M90,59.9
	c-0.1,0.1-0.3,0.1-0.3,0.2c0,0-0.1,0-0.2-0.1c-0.9,0.2-1.6,1-1.6,1.9c0,1.1,0.9,2,2,2s2-0.9,2-2C92,60.8,91.1,59.9,90,59.9z"/>
</svg>
