<?xml version="1.0" encoding="utf-8"?>
<!-- Generator: Adobe Illustrator 22.1.0, SVG Export Plug-In . SVG Version: 6.00 Build 0)  -->
<svg version="1.1" id="Layer_1" xmlns="http://www.w3.org/2000/svg" xmlns:xlink="http://www.w3.org/1999/xlink" x="0px" y="0px"
	 viewBox="0 0 96 58" style="enable-background:new 0 0 96 58;" xml:space="preserve">

<path class="st0" d="M89,14c-1.3,0-2.5-0.4-3.5-1L65.8,31.3c0.1,0.6,0.2,1.1,0.2,1.7c0,3.9-3.1,7-7,7s-7-3.1-7-7c0-0.1,0-0.2,0-0.4
	l-13.9-6.9C36.8,27.1,35,28,33,28c-1.2,0-2.3-0.3-3.2-0.8c0,0,0,0.1-0.1,0.1L13,47.5c0.6,1,1,2.2,1,3.5c0,3.9-3.1,7-7,7s-7-3.1-7-7
	s3.1-7,7-7c1.1,0,2.1,0.3,3.1,0.7l16.6-20c0.1-0.1,0.2-0.2,0.3-0.3c-0.6-1-1-2.2-1-3.5c0-3.9,3.1-7,7-7s7,3.1,7,7
	c0,0.4-0.1,0.8-0.1,1.2l13.5,6.6c1.3-1.7,3.3-2.8,5.6-2.8c1.8,0,3.4,0.7,4.6,1.8l19.1-17.7C82.3,9.2,82,8.1,82,7c0-3.9,3.1-7,7-7
	s7,3.1,7,7S92.9,14,89,14z M7,48c-1.7,0-3,1.3-3,3s1.3,3,3,3s3-1.3,3-3S8.7,48,7,48z M33,18c-1.7,0-3,1.3-3,3s1.3,3,3,3s3-1.3,3-3
	S34.7,18,33,18z M59,30c-1.7,0-3,1.3-3,3s1.3,3,3,3s3-1.3,3-3S60.7,30,59,30z M89,4c-1.7,0-3,1.3-3,3s1.3,3,3,3s3-1.3,3-3
	S90.7,4,89,4z"/>
</svg>
