<?xml version="1.0" encoding="utf-8"?>
<!-- Generator: Adobe Illustrator 22.1.0, SVG Export Plug-In . SVG Version: 6.00 Build 0)  -->
<svg version="1.1" id="Layer_1" xmlns="http://www.w3.org/2000/svg" xmlns:xlink="http://www.w3.org/1999/xlink" x="0px" y="0px"
	 viewBox="0 0 95.6 96" style="enable-background:new 0 0 95.6 96;" xml:space="preserve">

<path class="st0" d="M94.7,94.3c-0.8,1.1-2.1,1.7-3.5,1.7H4.6c-1.4,0-2.7-0.6-3.6-1.6c-0.9-1-1.3-2.4-1.1-3.8l7.9-52.9
	C8.6,33.5,12.6,30,17,30h8.9v-8c0-12.1,9.8-22,21.9-22c12.1,0,21.9,9.9,21.9,22l0,0l0,8h9.1c4.4,0,8.4,3.5,8.9,7.9l7.8,52.8
	C95.8,91.9,95.5,93.3,94.7,94.3z M27.9,46c-1.1,0-2,0.9-2,2c0,1.1,0.9,2,2,2c1.1,0,2-0.9,2-2C29.8,46.9,29,46,27.9,46z M65.7,22
	L65.7,22c0-9.9-8-18-17.9-18s-17.9,8.1-17.9,18v8h35.9L65.7,22L65.7,22z M67.7,46c-1.1,0-2,0.9-2,2c0,1.1,0.9,2,2,2c1.1,0,2-0.9,2-2
	C69.7,46.9,68.8,46,67.7,46z M83.8,38.4c-0.3-2.4-2.6-4.4-5-4.4h-9.1l0,8.4c2.3,0.8,4,3,4,5.6c0,3.3-2.7,6-6,6c-3.3,0-6-2.7-6-6
	c0-2.6,1.7-4.8,4-5.6l0-8.4H29.8v8.4c2.3,0.8,4,3,4,5.6c0,3.3-2.7,6-6,6c-3.3,0-6-2.7-6-6c0-2.6,1.7-4.8,4-5.6V34H17
	c-2.4,0-4.8,2-5.1,4.4L3.9,91.2c0,0.2,0,0.4,0.1,0.6C4.2,91.9,4.4,92,4.6,92h86.6c0.2,0,0.3-0.1,0.4-0.1c0-0.1,0.1-0.2,0-0.4
	L83.8,38.4z"/>
</svg>
