<?xml version="1.0" encoding="utf-8"?>
<!-- Generator: Adobe Illustrator 22.1.0, SVG Export Plug-In . SVG Version: 6.00 Build 0)  -->
<svg version="1.1" id="Layer_1" xmlns="http://www.w3.org/2000/svg" xmlns:xlink="http://www.w3.org/1999/xlink" x="0px" y="0px"
	 viewBox="0 0 96 92" style="enable-background:new 0 0 96 92;" xml:space="preserve">

<path class="st0" d="M86,92h-4c-5.5,0-10-4.5-10-10V58c0-5.5,4.5-10,10-10h4c2.3,0,4.3,0.8,6,2.1V48C92,23.7,72.3,4,48,4
	S4,23.7,4,48v2.1c1.7-1.3,3.7-2.1,6-2.1h4c5.5,0,10,4.5,10,10v24c0,5.5-4.5,10-10,10h-4C4.5,92,0,87.5,0,82V63.3V58V48
	C0,21.5,21.5,0,48,0s48,21.5,48,48v10v5.3V82C96,87.5,91.5,92,86,92z M4,82c0,3.3,2.7,6,6,6h4c3.3,0,6-2.7,6-6V58c0-3.3-2.7-6-6-6
	h-4c-3.3,0-6,2.7-6,6v5.3V82z M86,52h-4c-3.3,0-6,2.7-6,6v24c0,3.3,2.7,6,6,6h4c3.3,0,6-2.7,6-6V63.3V58C92,54.7,89.3,52,86,52z"/>
</svg>
