<?xml version="1.0" encoding="utf-8"?>
<!-- Generator: Adobe Illustrator 22.1.0, SVG Export Plug-In . SVG Version: 6.00 Build 0)  -->
<svg version="1.1" id="Layer_1" xmlns="http://www.w3.org/2000/svg" xmlns:xlink="http://www.w3.org/1999/xlink" x="0px" y="0px"
	 viewBox="0 0 96 96" style="enable-background:new 0 0 96 96;" xml:space="preserve">

<path class="st0" d="M94.7,83.6L64.1,95.9C63.8,96,63.6,96,63.3,96H52h-0.9H44c-1.1,0-2-0.9-2-2v-4c0-1.1,0.9-2,2-2h8
	c1.1,0,2,0.9,2,2v2h9l20-8h-2.3c-4.8,0-8.7-3.8-8.7-8.4V56.4c0-4.6,3.9-8.4,8.7-8.4h6.7c1.7,0,3.3,0.5,4.7,1.3V48
	C92,23.7,72.3,4,48,4S4,23.7,4,48v1.3C5.3,48.5,6.9,48,8.7,48h6.7c4.8,0,8.7,3.8,8.7,8.4v19.2c0,4.6-3.9,8.4-8.7,8.4H8.7
	C3.9,84,0,80.2,0,75.6V57.2v-0.8V48C0,21.5,21.5,0,48,0s48,21.5,48,48v3.1v5.3v0.8v18.4v6.1C96,82.6,95.5,83.3,94.7,83.6z M4,57.2
	v18.4C4,78,6.1,80,8.7,80h6.7c2.6,0,4.7-2,4.7-4.4V56.4c0-2.4-2.1-4.4-4.7-4.4H8.7C6.1,52,4,54,4,56.4V57.2z M87.3,52h-6.7
	c-2.6,0-4.7,2-4.7,4.4v19.2c0,2.4,2.1,4.4,4.7,4.4h6.7c2.6,0,4.7-2,4.7-4.4V57.2v-0.8C92,54,89.9,52,87.3,52z"/>
</svg>
