<?xml version="1.0" encoding="utf-8"?>
<!-- Generator: Adobe Illustrator 22.1.0, SVG Export Plug-In . SVG Version: 6.00 Build 0)  -->
<svg version="1.1" id="Layer_1" xmlns="http://www.w3.org/2000/svg" xmlns:xlink="http://www.w3.org/1999/xlink" x="0px" y="0px"
	 viewBox="0 0 95.2 84" style="enable-background:new 0 0 95.2 84;" xml:space="preserve">

<path class="st0" d="M88,42.7C88,42.7,88,42.7,88,42.7L53.1,81.5c-1.5,1.6-3.4,2.5-5.5,2.5c0,0,0,0,0,0c-2.1,0-4.1-0.9-5.5-2.6
	L7.2,42.7c0,0,0,0,0,0c-9.6-9.8-9.6-25.6,0.1-35.4C11.9,2.6,18.1,0,24.8,0c6.6,0,12.9,2.6,17.5,7.3c0,0,0,0,0,0c0,0,0,0,0,0l5.2,5.6
	l5.2-5.6c0,0,0,0,0,0c0,0,0,0,0,0C57.6,2.6,63.8,0,70.4,0C77,0,83.3,2.6,87.9,7.3C97.6,17.1,97.6,32.9,88,42.7z M85.1,10.2
	C81.2,6.2,76,4,70.4,4c-5.6,0-10.8,2.2-14.7,6.2L49,17.3c0,0,0,0,0,0c0,0,0,0,0,0.1c-0.1,0.1-0.3,0.2-0.4,0.3
	c-0.1,0-0.1,0.1-0.2,0.1c-0.2,0.1-0.5,0.2-0.7,0.2c-0.3,0-0.5-0.1-0.7-0.2c-0.1,0-0.1-0.1-0.2-0.1c-0.1-0.1-0.3-0.1-0.4-0.3
	c0,0,0,0,0-0.1c0,0,0,0,0,0l-6.7-7.1C35.6,6.2,30.3,4,24.8,4C19.2,4,14,6.2,10,10.2C1.9,18.4,1.9,31.8,10,40c0,0,0,0,0,0
	c0,0,0,0,0,0L45,78.8c0.7,0.8,1.6,1.2,2.6,1.2h0c1,0,1.9-0.4,2.6-1.2L85.1,40c0,0,0,0,0,0c0,0,0,0,0,0
	C93.3,31.8,93.3,18.4,85.1,10.2z"/>
</svg>
