<?xml version="1.0" encoding="utf-8"?>
<!-- Generator: Adobe Illustrator 22.1.0, SVG Export Plug-In . SVG Version: 6.00 Build 0)  -->
<svg version="1.1" id="Layer_1" xmlns="http://www.w3.org/2000/svg" xmlns:xlink="http://www.w3.org/1999/xlink" x="0px" y="0px"
	 viewBox="0 0 96 96" style="enable-background:new 0 0 96 96;" xml:space="preserve">

<path class="st0" d="M48,96C21.5,96,0,74.5,0,48c0-3.7,0.5-7.2,1.2-10.7c0,0,0-0.1,0-0.1C5.4,19.4,19.4,5.4,37.2,1.3
	c0.1,0,0.2-0.1,0.3-0.1C40.9,0.4,44.4,0,48,0c3.6,0,7.1,0.4,10.5,1.2c0.1,0,0.2,0,0.3,0.1c17.8,4.1,31.8,18.1,35.9,35.9
	c0,0,0,0.1,0,0.1c0.8,3.4,1.2,7,1.2,10.7C96,74.5,74.5,96,48,96z M90.3,60H68.8c-2.1,3.6-5.1,6.7-8.8,8.8v21.5
	C74.6,86.1,86.1,74.6,90.3,60z M48,28c-11,0-20,9-20,20c0,7.7,4.4,14.4,10.8,17.7c0,0,0,0,0,0c2.8,1.4,5.9,2.3,9.2,2.3
	c3.3,0,6.5-0.8,9.2-2.3c0,0,0,0,0,0C63.6,62.4,68,55.7,68,48C68,37,59,28,48,28z M48,92c2.7,0,5.4-0.3,8-0.8V70.6
	c-2.5,0.9-5.2,1.4-8,1.4s-5.5-0.5-8-1.4v20.6C42.6,91.7,45.3,92,48,92z M36,90.3V68.8c-3.6-2.1-6.7-5.1-8.8-8.8L5.7,60
	C9.9,74.6,21.4,86.1,36,90.3z M4,48c0,2.7,0.3,5.4,0.8,8l20.6,0c-0.9-2.5-1.4-5.2-1.4-8c0-2.8,0.5-5.5,1.4-8H4.8
	C4.3,42.6,4,45.3,4,48z M5.7,36h21.5c2.1-3.6,5.1-6.6,8.7-8.7V5.7C21.4,9.9,9.9,21.4,5.7,36z M48,4c-2.7,0-5.4,0.3-8,0.8v20.6
	c2.5-0.9,5.2-1.4,8-1.4s5.5,0.5,8,1.4V4.8C53.4,4.3,50.7,4,48,4z M60,5.7v21.5c3.6,2.1,6.6,5.1,8.7,8.7h21.5
	C86.1,21.4,74.6,9.9,60,5.7z M91.2,40H70.6c0.9,2.5,1.4,5.2,1.4,8c0,2.8-0.5,5.5-1.4,8h20.6c0.5-2.6,0.8-5.3,0.8-8
	C92,45.3,91.7,42.6,91.2,40z"/>
</svg>
