<?xml version="1.0" encoding="utf-8"?>
<!-- Generator: Adobe Illustrator 22.1.0, SVG Export Plug-In . SVG Version: 6.00 Build 0)  -->
<svg version="1.1" id="Layer_1" xmlns="http://www.w3.org/2000/svg" xmlns:xlink="http://www.w3.org/1999/xlink" x="0px" y="0px"
	 viewBox="0 0 95.6 95.8" style="enable-background:new 0 0 95.6 95.8;" xml:space="preserve">

<path class="st0" d="M94.9,55.3c-0.4,0.3-0.8,0.5-1.3,0.5c-0.6,0-1.1-0.2-1.5-0.7l-4.5-5.1v41.7c0,2.2-1.8,4-4,4H63.7
	c-2.2,0-4-1.8-4-4V61.8l-25.9-0.1v30c0,2.2-1.7,4-3.9,4H12c-2.2,0-4.2-1.8-4.2-4V50.3l-4.3,4.9c-0.7,0.8-2,0.9-2.8,0.2
	c-0.8-0.7-0.9-2-0.2-2.8L46.3,0.6c0.8-0.9,2.2-0.9,3,0L87,43.3c0,0,0.1,0.1,0.1,0.1l8,9.1C95.8,53.3,95.7,54.6,94.9,55.3z M47.8,4.9
	l-36,40.8c0,0,0,0,0,0v46l18.1,0V61.8c0-2.2,1.8-4,4-4h25.9c2.2,0,4,1.8,4,4v29.9l20.1,0v-46L47.8,4.9z"/>
</svg>
