<?xml version="1.0" encoding="utf-8"?>
<!-- Generator: Adobe Illustrator 22.1.0, SVG Export Plug-In . SVG Version: 6.00 Build 0)  -->
<svg version="1.1" id="Layer_1" xmlns="http://www.w3.org/2000/svg" xmlns:xlink="http://www.w3.org/1999/xlink" x="0px" y="0px"
	 viewBox="0 0 64 96" style="enable-background:new 0 0 64 96;" xml:space="preserve">

<path class="st0" d="M62,4h-6v23.1c0,0.2-0.1,0.4-0.1,0.7C54.9,38.7,45.8,45.1,39,48c6.8,2.9,16,9.3,16.9,20.2
	c0.1,0.2,0.1,0.4,0.1,0.7V92h6c1.1,0,2,0.9,2,2s-0.9,2-2,2H2c-1.1,0-2-0.9-2-2s0.9-2,2-2h6V68.9c0-0.2,0.1-0.4,0.1-0.7
	C9.1,57.3,18.2,50.9,25,48c-6.8-2.9-16-9.3-16.9-20.2C8.1,27.6,8,27.4,8,27.1V4H2C0.9,4,0,3.1,0,2s0.9-2,2-2h60c1.1,0,2,0.9,2,2
	S63.1,4,62,4z M12,70v22h40V70c0-14.9-18.1-19.9-20-20C30.1,50.1,12,55.1,12,70z M52,4H12v22c0,14.9,18.1,19.9,20,20
	c1.9-0.1,20-5.1,20-20V4z"/>
</svg>
