<?xml version="1.0" encoding="utf-8"?>
<!-- Generator: Adobe Illustrator 22.1.0, SVG Export Plug-In . SVG Version: 6.00 Build 0)  -->
<svg version="1.1" id="Layer_1" xmlns="http://www.w3.org/2000/svg" xmlns:xlink="http://www.w3.org/1999/xlink" x="0px" y="0px"
	 viewBox="0 0 95.1 83.9" style="enable-background:new 0 0 95.1 83.9;" xml:space="preserve">

<path class="st0" d="M94.9,82c-0.1,1.1-0.9,1.9-2,1.9c0,0,0,0-0.1,0c-1.1,0-1.9-0.9-1.9-2C91,80.6,90.3,51,44.1,50v19.9
	c0,0.8-0.9,1.5-1.6,1.8c-0.3,0.1-0.5,0.2-0.8,0.2c-0.5,0-0.9-0.2-1.3-0.5L0.7,37.5C0.2,37.1,0,36.5,0,36c0-0.6,0.3-1.1,0.7-1.5
	L40.3,0.5c0.6-0.5,1.4-0.6,2.1-0.3c0.7,0.3,1.6,0.9,1.6,1.7V22c6.5,0.1,24.1,1.7,36.9,14.7C91.3,47.1,96,62.3,94.9,82z M78.2,39.5
	C63.8,24.9,42,26,41.7,26c0,0,0,0-0.1,0c0,0,0,0-0.1,0c-0.1,0-0.1,0-0.2,0c-0.9-0.1-1.7-0.8-1.8-1.8c0-0.5,0.1-0.9,0.4-1.3V5.9L5,36
	l35,29.9V49.1c-0.2-0.3-0.4-0.7-0.4-1.2c0-1.1,0.9-2,2-2c19.5,0,34.1,4.8,43.4,14.2c2.4,2.4,4.2,4.9,5.5,7.3
	C89.2,55.8,85.1,46.4,78.2,39.5z"/>
</svg>
