<?xml version="1.0" encoding="utf-8"?>
<!-- Generator: Adobe Illustrator 22.1.0, SVG Export Plug-In . SVG Version: 6.00 Build 0)  -->
<svg version="1.1" id="Layer_1" xmlns="http://www.w3.org/2000/svg" xmlns:xlink="http://www.w3.org/1999/xlink" x="0px" y="0px"
	 viewBox="0 0 95.1 83.9" style="enable-background:new 0 0 95.1 83.9;" xml:space="preserve">

<path class="st0" d="M94.4,37.5L54.7,71.4c-0.4,0.3-0.8,0.5-1.3,0.5c-0.3,0-0.6-0.1-0.8-0.2c-0.7-0.3-1.5-1.1-1.5-1.8V50
	c-46.4,1-47,30.6-47,31.9c0,1.1-0.9,2-1.9,2c0,0,0,0-0.1,0c-1,0-1.9-0.8-2-1.9c-1.1-19.7,3.6-34.9,13.9-45.4
	c12.9-13,30.6-14.6,37-14.7V1.9c0-0.8,0.8-1.4,1.5-1.7c0.7-0.3,1.5-0.2,2.1,0.3l39.7,33.9c0.4,0.4,0.7,0.9,0.7,1.5
	C95.1,36.5,94.8,37.1,94.4,37.5z M55.1,5.9V23c0.2,0.3,0.3,0.7,0.3,1.1c-0.1,1-0.8,1.7-1.7,1.8c-0.1,0-0.2,0.1-0.3,0.1
	c0,0,0,0-0.1,0c0,0,0,0-0.1,0c-0.2,0-22-1-36.4,13.5C10,46.4,5.9,55.8,4.5,67.4c1.4-2.4,3.2-4.9,5.5-7.3
	c9.3-9.4,23.9-14.2,43.4-14.2c1.1,0,2,0.9,2,2c0,0.4-0.1,0.7-0.3,1v16.9L90,36L55.1,5.9z"/>
</svg>
