<?xml version="1.0" encoding="utf-8"?>
<!-- Generator: Adobe Illustrator 22.1.0, SVG Export Plug-In . SVG Version: 6.00 Build 0)  -->
<svg version="1.1" id="Layer_1" xmlns="http://www.w3.org/2000/svg" xmlns:xlink="http://www.w3.org/1999/xlink" x="0px" y="0px"
	 viewBox="0 0 83.8 96" style="enable-background:new 0 0 83.8 96;" xml:space="preserve">

<path class="st0" d="M57.9,52c-6.5,0-12.4-2.4-16.9-6.3L16.8,70l10.6,10.6c0.8,0.8,0.8,2,0,2.8C27,83.8,26.5,84,25.9,84
	c-0.5,0-1-0.2-1.4-0.6L13.9,72.8L4.8,82l10.6,10.6c0.8,0.8,0.8,2,0,2.8C15,95.8,14.5,96,14,96c-0.5,0-1-0.2-1.4-0.6l-12-12l0,0h0v0
	c-0.1-0.1-0.2-0.2-0.2-0.3c-0.1-0.1-0.2-0.2-0.2-0.3c-0.3-0.6-0.1-1.4,0.3-1.9c0.1-0.1,0.1-0.2,0.2-0.2l37.5-37.8
	c-3.9-4.5-6.2-10.4-6.2-16.8c0-14.3,11.6-26,25.9-26s25.9,11.7,25.9,26S72.2,52,57.9,52z M57.9,4c-12.1,0-22,9.9-22,22s9.8,22,22,22
	s22-9.9,22-22S70,4,57.9,4z"/>
</svg>
