<?xml version="1.0" encoding="utf-8"?>
<!-- Generator: Adobe Illustrator 22.1.0, SVG Export Plug-In . SVG Version: 6.00 Build 0)  -->
<svg version="1.1" id="Layer_1" xmlns="http://www.w3.org/2000/svg" xmlns:xlink="http://www.w3.org/1999/xlink" x="0px" y="0px"
	 viewBox="0 0 95.8 95.8" style="enable-background:new 0 0 95.8 95.8;" xml:space="preserve">

<path class="st0" d="M57,11.8H3c-1.6,0-3-1.3-3-3v0c0-1.6,1.3-3,3-3h54c1.6,0,3,1.3,3,3v0C60,10.5,58.7,11.8,57,11.8z M87,95.8H3
	c-1.6,0-3-1.3-3-3l0,0c0-1.7,1.3-3,3-3h84c1.7,0,3,1.3,3,3l0,0C90,94.5,88.6,95.8,87,95.8z M6,8.8v84c0,1.7-1.3,3-3,3h0
	c-1.6,0-3-1.3-3-3l0-84c0-1.6,1.3-3,3-3h0C4.7,5.8,6,7.2,6,8.8z M90,38.8v54c0,1.7-1.3,3-3,3l0,0c-1.7,0-3-1.3-3-3v-54
	c0-1.6,1.3-3,3-3l0,0C88.6,35.8,90,37.2,90,38.8z M95.3,5.1L44.4,56c-1.2,1.2-3.1,1.2-4.2,0l0,0c-1.2-1.2-1.2-3.1,0-4.2L91.1,0.9
	c1.2-1.2,3.1-1.2,4.2,0v0C96.5,2,96.5,4,95.3,5.1z M93.1,6H70.8c-1.7,0-3-1.3-3-3v0c0-1.6,1.3-3,3-3l22.3,0c1.7,0,3,1.3,3,3v0
	C96.1,4.7,94.8,6,93.1,6z M96.1,3v22.3c0,1.6-1.3,3-3,3l0,0c-1.7,0-3-1.3-3-3V3c0-1.6,1.3-3,3-3l0,0C94.8,0,96.1,1.3,96.1,3z"/>
</svg>
