<?xml version="1.0" encoding="utf-8"?>
<!-- Generator: Adobe Illustrator 22.1.0, SVG Export Plug-In . SVG Version: 6.00 Build 0)  -->
<svg version="1.1" id="Layer_1" xmlns="http://www.w3.org/2000/svg" xmlns:xlink="http://www.w3.org/1999/xlink" x="0px" y="0px"
	 viewBox="0 0 95.7 91.9" style="enable-background:new 0 0 95.7 91.9;" xml:space="preserve">

<path class="st0" d="M94.6,27.7l-45.9,24c-0.3,0.2-0.6,0.2-0.9,0.2c-0.3,0-0.6-0.1-0.9-0.2l-45.8-24c-0.8-0.4-1.2-1.4-1-2.2
	c0.2-0.6,0.6-1.1,1.1-1.3L47,0.2c0.6-0.3,1.3-0.3,1.8,0l45.8,24c0.7,0.3,1.1,1,1.1,1.8C95.7,26.7,95.3,27.4,94.6,27.7z M47.9,4.2
	L6.3,25.9l41.5,21.7l41.5-21.7L47.9,4.2z M1.1,43.2l6-3.1c1-0.5,2.2-0.1,2.7,0.9c0.5,1,0.1,2.2-0.9,2.7L6.3,45l41.6,22.6L89.4,45
	l-2.6-1.3c-1-0.5-1.4-1.7-0.9-2.7c0.5-1,1.7-1.4,2.7-0.9l5.9,3.1c0.5,0.3,0.9,0.7,1.1,1.3c0.2,0.9-0.2,1.8-1,2.2L48.8,71.7
	c-0.3,0.2-0.6,0.2-1,0.2s-0.7-0.1-1-0.2L1.1,46.7c-0.6-0.4-1.1-1-1-1.8C0,44.2,0.5,43.6,1.1,43.2z M1.1,63.2l6-3.1
	c1-0.5,2.2-0.1,2.7,0.9c0.5,1,0.1,2.2-0.9,2.7L6.3,65l41.6,22.6L89.4,65l-2.6-1.3c-1-0.5-1.4-1.7-0.9-2.7c0.5-1,1.7-1.4,2.7-0.9
	l5.9,3.1c0.5,0.2,0.9,0.7,1.1,1.3c0.2,0.9-0.2,1.8-1,2.2L48.8,91.6c-0.3,0.2-0.6,0.2-1,0.2s-0.7-0.1-1-0.2L1.1,66.7
	c-0.6-0.4-1.1-1-1-1.8C0,64.2,0.5,63.5,1.1,63.2z"/>
</svg>
