<?xml version="1.0" encoding="utf-8"?>
<!-- Generator: Adobe Illustrator 22.1.0, SVG Export Plug-In . SVG Version: 6.00 Build 0)  -->
<svg version="1.1" id="Layer_1" xmlns="http://www.w3.org/2000/svg" xmlns:xlink="http://www.w3.org/1999/xlink" x="0px" y="0px"
	 viewBox="0 0 88 93.7" style="enable-background:new 0 0 88 93.7;" xml:space="preserve">

<path class="st0" d="M64,93.7H46c-6.7,0-11.5-1.8-15.8-3.4c-3.6-1.3-6.7-2.5-10.4-2.5C13.8,87.8,8,87.7,8,87.7
	c-0.3,0-0.6-0.1-0.9-0.2C6.3,87.1,0,83.3,0,67.8c0-15.1,4.1-22.6,4.3-22.9c0.3-0.5,0.8-0.9,1.3-1c0.1,0,14.6-3.1,23-11.4
	c7.9-7.9,12.7-20.3,13.3-28.6c0.2-2.4,2.3-4.2,4.8-3.8C50.1,0.5,58,3.3,58,17.9c0,6.5-0.9,13.9-2,17.8h18c7.3,0,11.9,3.6,11.9,9.2
	c0,2.8-1,4.8-2.4,6.2c2.6,1.4,4.5,4,4.5,7.9c0,3.9-1.9,6.3-4.4,7.5c1.3,1.4,2.3,3.4,2.3,6.3c0,4.3-2.2,6.8-5,8c0.6,1,1,2.3,1,4
	C81.9,92.3,75.9,93.7,64,93.7z M8.6,83.7c1.7,0,6.4,0.1,11.1,0.1c4.5,0,8.1,1.3,11.8,2.8c4.1,1.6,8.4,3.1,14.3,3.1h18
	c14,0,14-2.3,14-4.9c0-2.8-2-3.1-2.2-3.1c-1.1-0.1-1.9-1.1-1.8-2.1c0.1-1.1,1-1.9,2.1-1.8c0,0,0,0,0,0c1.9,0,5.9-0.5,5.9-4.9
	c0-4.5-4.1-5.1-4.2-5.1c-1.1-0.1-1.9-1.1-1.8-2.2c0.1-1.1,1-1.9,2.1-1.8l0.3,0c2.1,0,5.7-0.6,5.7-4.7c0-4.7-4.1-5.2-5.9-5.2
	c-1.1,0-2-0.8-2.1-1.9c-0.1-1.1,0.6-2,1.7-2.1c0.7-0.1,4.2-0.8,4.2-4.9c0-4.6-5.6-5.2-7.9-5.2H52c-0.6,0-0.9-0.2-1.2-0.7
	c-0.4-0.5-0.5-1.2-0.3-1.8c0-0.1,3.5-10.9,3.5-19.3C54,9.7,51.2,4.7,46.1,4c-0.1,0-0.2,0.1-0.2,0.2c-0.7,8.7-5.5,22.1-14.5,31.1
	c-8,8-20.4,11.4-24,12.3C6.4,49.7,4,56.4,4,67.8C4,78.9,7.5,82.8,8.6,83.7z"/>
</svg>
