<?xml version="1.0" encoding="utf-8"?>
<!-- Generator: Adobe Illustrator 22.1.0, SVG Export Plug-In . SVG Version: 6.00 Build 0)  -->
<svg version="1.1" id="Layer_1" xmlns="http://www.w3.org/2000/svg" xmlns:xlink="http://www.w3.org/1999/xlink" x="0px" y="0px"
	 viewBox="0 0 96 96" style="enable-background:new 0 0 96 96;" xml:space="preserve">

<path class="st0" d="M90,34.9L80.9,44c-3.9,3.9-9,6-14.5,6H62c-1.1,0-2-0.9-2-2s0.9-2,2-2h4.5c4.4,0,8.5-1.7,11.6-4.8l9.1-9.1
	C90.3,29,92,24.9,92,20.5s-1.7-8.5-4.8-11.6S79.9,4,75.5,4C71.1,4,67,5.7,63.9,8.8l-9.1,9.1C51.7,21,50,25.1,50,29.5V34
	c0,1.1-0.9,2-2,2s-2-0.9-2-2v-4.5c0-5.5,2.1-10.6,6-14.5L61.1,6c3.9-3.9,9-6,14.5-6C81,0,86.1,2.1,90,6c3.9,3.9,6,9,6,14.5
	S93.9,31.1,90,34.9z M32,66c-0.5,0-1-0.2-1.4-0.6c-0.8-0.8-0.8-2,0-2.8l34-34c0.8-0.8,2-0.8,2.8,0s0.8,2,0,2.8l-34,34
	C33,65.8,32.5,66,32,66z M34,50h-4.5c-4.4,0-8.5,1.7-11.6,4.8l-9.1,9.1C5.7,67,4,71.1,4,75.5c0,4.4,1.7,8.5,4.8,11.6
	S16.1,92,20.5,92s8.5-1.7,11.6-4.8l9.1-9.1C44.3,75,46,70.9,46,66.5V62c0-1.1,0.9-2,2-2s2,0.9,2,2v4.5c0,5.5-2.1,10.6-6,14.5
	L34.9,90c-3.9,3.9-9,6-14.5,6S9.9,93.9,6,90c-3.9-3.9-6-9-6-14.5c0-5.5,2.1-10.6,6-14.5l9.1-9.1c3.9-3.9,9-6,14.5-6H34
	c1.1,0,2,0.9,2,2S35.1,50,34,50z"/>
</svg>
