<?xml version="1.0" encoding="utf-8"?>
<!-- Generator: Adobe Illustrator 22.1.0, SVG Export Plug-In . SVG Version: 6.00 Build 0)  -->
<svg version="1.1" id="Layer_1" xmlns="http://www.w3.org/2000/svg" xmlns:xlink="http://www.w3.org/1999/xlink" x="0px" y="0px"
	 viewBox="0 0 96 56" style="enable-background:new 0 0 96 56;" xml:space="preserve">

<path class="st0" d="M94,30H30c-1.1,0-2-0.9-2-2s0.9-2,2-2h64c1.1,0,2,0.9,2,2S95.1,30,94,30z M94,8H30c-1.1,0-2-0.9-2-2s0.9-2,2-2
	h64c1.1,0,2,0.9,2,2S95.1,8,94,8z M10,56H2c-1.1,0-2-0.9-2-2v-8c0-1.1,0.9-2,2-2h8c1.1,0,2,0.9,2,2v8C12,55.1,11.1,56,10,56z M8,48
	H4v4h4V48z M10,34H2c-1.1,0-2-0.9-2-2v-8c0-1.1,0.9-2,2-2h8c1.1,0,2,0.9,2,2v8C12,33.1,11.1,34,10,34z M8,26H4v4h4V26z M10,12H2
	c-1.1,0-2-0.9-2-2V2c0-1.1,0.9-2,2-2h8c1.1,0,2,0.9,2,2v8C12,11.1,11.1,12,10,12z M8,4H4v4h4V4z M30,48h64c1.1,0,2,0.9,2,2
	s-0.9,2-2,2H30c-1.1,0-2-0.9-2-2S28.9,48,30,48z"/>
</svg>
