<?xml version="1.0" encoding="utf-8"?>
<!-- Generator: Adobe Illustrator 22.1.0, SVG Export Plug-In . SVG Version: 6.00 Build 0)  -->
<svg version="1.1" id="Layer_1" xmlns="http://www.w3.org/2000/svg" xmlns:xlink="http://www.w3.org/1999/xlink" x="0px" y="0px"
	 viewBox="0 0 80 96" style="enable-background:new 0 0 80 96;" xml:space="preserve">

<path class="st0" d="M74,96H6c-3.3,0-6-2.7-6-6V38c0-3.3,2.7-6,6-6h10v-8C16,10.8,26.8,0,40,0s24,10.8,24,24v8h10c3.3,0,6,2.7,6,6
	v52C80,93.3,77.3,96,74,96z M40,4c-11,0-20,9-20,20v8h40v-8C60,13,51,4,40,4z M76,38c0-1.1-0.9-2-2-2H6c-1.1,0-2,0.9-2,2v52
	c0,1.1,0.9,2,2,2h68c1.1,0,2-0.9,2-2V38z M42,63.6V74c0,1.1-0.9,2-2,2s-2-0.9-2-2V63.6c-2.3-0.8-4-3-4-5.6c0-3.3,2.7-6,6-6
	s6,2.7,6,6C46,60.6,44.3,62.8,42,63.6z M40,56c-1.1,0-2,0.9-2,2s0.9,2,2,2s2-0.9,2-2S41.1,56,40,56z"/>
</svg>
