<?xml version="1.0" encoding="utf-8"?>
<!-- Generator: Adobe Illustrator 22.1.0, SVG Export Plug-In . SVG Version: 6.00 Build 0)  -->
<svg version="1.1" id="Layer_1" xmlns="http://www.w3.org/2000/svg" xmlns:xlink="http://www.w3.org/1999/xlink" x="0px" y="0px"
	 viewBox="0 0 96 96" style="enable-background:new 0 0 96 96;" xml:space="preserve">

<path class="st0" d="M92,96H36c-2.2,0-4-1.8-4-4V64c0-1.1,0.9-2,2-2s2,0.9,2,2v28h56V4H36v28c0,1.1-0.9,2-2,2s-2-0.9-2-2V4
	c0-2.2,1.8-4,4-4h56c2.2,0,4,1.8,4,4v88C96,94.2,94.2,96,92,96z M48.7,31.5c-0.8-0.7-0.9-2-0.1-2.8c0.7-0.8,2-0.9,2.8-0.1l20,18
	c0,0,0,0,0,0c0.1,0.1,0.2,0.3,0.4,0.5c0,0.1,0.1,0.1,0.1,0.2c0.1,0.2,0.2,0.5,0.2,0.8s-0.1,0.6-0.2,0.8c0,0.1-0.1,0.1-0.1,0.2
	c-0.1,0.2-0.2,0.3-0.4,0.5c0,0,0,0,0,0l-20,18C51,67.8,50.5,68,50,68c-0.5,0-1.1-0.2-1.5-0.7c-0.7-0.8-0.7-2.1,0.1-2.8L64.8,50H2
	c-1.1,0-2-0.9-2-2s0.9-2,2-2h62.8L48.7,31.5z"/>
</svg>
