<?xml version="1.0" encoding="utf-8"?>
<!-- Generator: Adobe Illustrator 22.1.0, SVG Export Plug-In . SVG Version: 6.00 Build 0)  -->
<svg version="1.1" id="Layer_1" xmlns="http://www.w3.org/2000/svg" xmlns:xlink="http://www.w3.org/1999/xlink" x="0px" y="0px"
	 viewBox="0 0 96 80" style="enable-background:new 0 0 96 80;" xml:space="preserve">

<path class="st0" d="M87.9,68H7l8.6,8.6c0.8,0.8,0.8,2,0,2.8c-0.4,0.4-0.9,0.6-1.4,0.6c-0.5,0-1-0.2-1.4-0.6l-12-12
	c-0.2-0.2-0.3-0.4-0.4-0.7c-0.2-0.5-0.2-1,0-1.5c0.1-0.2,0.2-0.5,0.4-0.7l12-12c0.8-0.8,2-0.8,2.8,0c0.8,0.8,0.8,2,0,2.8L7,64h80.9
	c2.3,0,4.1-1.8,4.1-4V8c0-2.2-1.8-4-4.1-4H8.3C6,4,4,5.8,4,8v38c0,1.1-0.7,2-1.8,2C1.1,48,0,47.1,0,46V8c0-4.4,3.8-8,8.3-8h79.6
	C92.4,0,96,3.6,96,8v52C96,64.4,92.4,68,87.9,68z"/>
</svg>
