<?xml version="1.0" encoding="utf-8"?>
<!-- Generator: Adobe Illustrator 27.0.1, SVG Export Plug-In . SVG Version: 6.00 Build 0)  -->
<svg version="1.1" id="Layer_1" xmlns="http://www.w3.org/2000/svg" xmlns:xlink="http://www.w3.org/1999/xlink" x="0px" y="0px"
	 viewBox="0 0 44.3 38.8" style="enable-background:new 0 0 44.3 38.8;" xml:space="preserve">
<g>
	<path d="M42.5,23.2l-1.9,0c4.9-5.2,4.8-13.5-0.3-18.6c-3.7-3.7-9-4.9-13.9-3.2c-0.5,0.2-0.8,0.8-0.6,1.3c0.2,0.5,0.8,0.8,1.3,0.6
		c4.1-1.4,8.6-0.4,11.7,2.7c4.3,4.3,4.4,11.2,0.3,15.7l0-1.8c0-0.6-0.5-1-1-1c0,0,0,0,0,0c-0.6,0-1,0.5-1,1l0,4.3
		c0,0.3,0.1,0.6,0.3,0.8c0.2,0.2,0.5,0.3,0.7,0.3c0,0,0,0,0,0l4.3,0c0,0,0,0,0,0c0.6,0,1-0.5,1-1C43.6,23.7,43.1,23.2,42.5,23.2z"/>
	<path d="M33.4,27.5l-7.6,7.6c-2,2-5.3,2-7.3,0l-5.9-5.9l1.8,0c0,0,0,0,0,0c0.6,0,1-0.5,1-1c0-0.6-0.5-1-1-1l-4.3,0c0,0,0,0,0,0
		c0,0,0,0,0,0c-0.1,0-0.3,0-0.4,0.1c0,0,0,0,0,0c-0.1,0.1-0.2,0.1-0.3,0.2c-0.2,0.2-0.3,0.5-0.3,0.8l0,4.3c0,0.6,0.5,1,1,1
		c0,0,0,0,0,0c0.6,0,1-0.5,1-1l0-1.8l5.9,5.9c1.4,1.4,3.3,2.1,5.1,2.1s3.7-0.7,5.1-2.1l7.6-7.6c0.4-0.4,0.4-1.1,0-1.5
		C34.5,27.1,33.8,27.1,33.4,27.5z"/>
	<path d="M5.4,22.1C1,17.7,1,10.5,5.4,6c2.1-2.1,5-3.3,8-3.3c2.3,0,4.5,0.7,6.4,2l-2.1,0.4c-0.6,0.1-0.9,0.6-0.8,1.2
		c0.1,0.5,0.5,0.8,1,0.8c0.1,0,0.1,0,0.2,0l4.1-0.8c0.2,0,0.4-0.1,0.6-0.2c0,0,0,0,0,0c0,0,0.1-0.1,0.1-0.1c0,0,0.1-0.1,0.1-0.1
		c0,0,0,0,0-0.1c0-0.1,0.1-0.2,0.1-0.3c0,0,0-0.1,0-0.1c0-0.1,0-0.1,0-0.2c0,0,0-0.1,0-0.1l-0.8-4.3c-0.1-0.6-0.6-0.9-1.2-0.8
		c-0.6,0.1-0.9,0.6-0.8,1.2l0.3,1.6c-2.1-1.4-4.6-2.1-7.2-2.1c-3.6,0-6.9,1.4-9.5,3.9c-5.2,5.2-5.2,13.7,0,19L5.4,25
		c0.2,0.2,0.5,0.3,0.7,0.3s0.5-0.1,0.7-0.3c0.4-0.4,0.4-1.1,0-1.5L5.4,22.1z"/>
</g>
</svg>
