<?xml version="1.0" encoding="utf-8"?>
<!-- Generator: Adobe Illustrator 22.1.0, SVG Export Plug-In . SVG Version: 6.00 Build 0)  -->
<svg version="1.1" id="Layer_1" xmlns="http://www.w3.org/2000/svg" xmlns:xlink="http://www.w3.org/1999/xlink" x="0px" y="0px"
	 viewBox="0 0 95.7 95.9" style="enable-background:new 0 0 95.7 95.9;" xml:space="preserve">

<path class="st0" d="M95.5,47.7c-0.3,0.6-0.9,0.2-1.6,0.2h-20L61.3,63.6c-0.4,0.5-1,0.7-1.5,0.7c-0.1,0-0.3,0-0.4,0
	c-0.7-0.1-1.3-0.7-1.5-1.4l-5.1-17.1L3.4,95.3C3,95.7,2.5,95.9,2,95.9s-1-0.2-1.4-0.6c-0.8-0.8-0.8-2,0-2.8L49.9,43L33.3,38
	c-0.7-0.2-1.2-0.8-1.4-1.5c-0.1-0.7,0.1-1.5,0.7-1.9l15.2-12.3V2c0-0.7,0.4-1.4,1.1-1.8c0.6-0.4,1.4-0.3,2,0.1l17.2,11.5l19-5.7
	c0.7-0.2,1.5,0,2,0.5c0.5,0.5,0.7,1.3,0.5,2L83.9,28l11.5,17.6C95.8,46.2,95.8,47,95.5,47.7z M80.1,29.4c-0.3-0.5-0.4-1.1-0.2-1.7
	l4.9-16.8l-16.4,4.9c-0.6,0.2-1.2,0.1-1.7-0.2L51.8,5.7v17.4c0,0.6-0.3,1.2-0.7,1.6l-13,10.5L53.6,40c0.6-0.1,1.2,0.1,1.6,0.5
	c0.3,0.3,0.5,0.7,0.5,1.1l4.9,16.5L71,45.4c0.4-0.5,0.2-1.6,0.8-1.6h18L80.1,29.4z"/>
</svg>
