<?xml version="1.0" encoding="utf-8"?>
<!-- Generator: Adobe Illustrator 22.1.0, SVG Export Plug-In . SVG Version: 6.00 Build 0)  -->
<svg version="1.1" id="Layer_1" xmlns="http://www.w3.org/2000/svg" xmlns:xlink="http://www.w3.org/1999/xlink" x="0px" y="0px"
	 viewBox="0 0 84 96" style="enable-background:new 0 0 84 96;" xml:space="preserve">

<path class="st0" d="M84,54.9C83.6,77.6,64.9,96,42,96S0.4,77.6,0,54.9c0-0.1,0-0.1,0-0.2V2c0-1.1,0.9-2,2-2h22c1.1,0,2,0.9,2,2v52
	c0,9,7.2,16.3,16,16.3S58,63,58,54V2c0-1.1,0.9-2,2-2h22c1.1,0,2,0.9,2,2v52.7C84,54.8,84,54.8,84,54.9z M4,18h18V4H4V18z M80,4H62
	v14h18V4z M80,22H62v32c0,11.2-9,20.3-20,20.3S22,65.2,22,54V22H4v32.1C4,75,21,92,42,92s38-17,38-37.9V22z"/>
</svg>
