<?xml version="1.0" encoding="utf-8"?>
<!-- Generator: Adobe Illustrator 22.1.0, SVG Export Plug-In . SVG Version: 6.00 Build 0)  -->
<svg version="1.1" id="Layer_1" xmlns="http://www.w3.org/2000/svg" xmlns:xlink="http://www.w3.org/1999/xlink" x="0px" y="0px"
	 viewBox="0 0 96 96" style="enable-background:new 0 0 96 96;" xml:space="preserve">

<path class="st0" d="M90.9,96H5.1C2.3,96,0,93.7,0,90.9v-6.2c0-0.7,0.4-1.4,1-1.8l31.6-17.3C22.1,55.1,22,39.3,22,38.5l0-18.3
	c0-0.1,0-0.2,0-0.3C24,8.1,36.9,0.1,47.8,0c0.1,0,0.1,0,0.2,0c10.9,0,24,8,26,19.9c0,0.1,0,0.2,0,0.3l0,18.3c0,0.7-0.1,16.5-10.6,27
	L95,82.9c0.6,0.3,1,1,1,1.8v6.2C96,93.7,93.7,96,90.9,96z M92,85.9L59.1,67.8c0,0,0,0,0,0l0,0c-0.1-0.1-0.2-0.2-0.3-0.2
	c-0.1-0.1-0.2-0.1-0.3-0.2c0,0,0,0,0,0c-0.1-0.2-0.2-0.3-0.3-0.5c0-0.1-0.1-0.1-0.1-0.2c0-0.2,0-0.3,0-0.5c0-0.1,0-0.2,0-0.3
	c0-0.1,0.1-0.2,0.1-0.2c0-0.2,0.1-0.4,0.2-0.5c0,0,0,0,0,0c0.1-0.1,0.2-0.2,0.3-0.3c0.1-0.1,0.1-0.2,0.2-0.2
	C69.9,55.2,70,38.7,70,38.5l0-18.1C68.3,10.8,57.2,4.1,48.2,4c-0.1,0-0.1,0-0.2,0c-9.1,0-20.3,6.7-22,16.4l0,18.1
	c0,0.2,0.1,16.7,11.3,25.9c0.1,0.1,0.1,0.2,0.2,0.3c0.1,0.1,0.2,0.2,0.3,0.3c0,0,0,0,0,0c0.1,0.2,0.1,0.3,0.2,0.5
	c0,0.1,0.1,0.2,0.1,0.2c0,0.1,0,0.2,0,0.3c0,0.2,0,0.3,0,0.5c0,0-0.1,0.1-0.1,0.1c-0.1,0.2-0.2,0.4-0.3,0.6c0,0,0,0,0,0
	c0,0-0.1,0.1-0.1,0.1c-0.1,0.1-0.3,0.3-0.5,0.4L4,85.9v5C4,91.5,4.5,92,5.1,92h85.9c0.6,0,1.1-0.5,1.1-1.1V85.9z"/>
</svg>
