<?xml version="1.0" encoding="utf-8"?>
<!-- Generator: Adobe Illustrator 22.1.0, SVG Export Plug-In . SVG Version: 6.00 Build 0)  -->
<svg version="1.1" id="Layer_1" xmlns="http://www.w3.org/2000/svg" xmlns:xlink="http://www.w3.org/1999/xlink" x="0px" y="0px"
	 viewBox="0 0 95.8 95.8" style="enable-background:new 0 0 95.8 95.8;" xml:space="preserve">

<path class="st0" d="M95.8,1.9c0,0,0,0.1,0,0.1v24c0,1.1-0.9,2-2,2c-1.1,0-1.8-1-1.8-2.1V6.6L66,32.5c6.1,6.7,9.9,15.6,9.9,25.4
	c0,20.9-17,37.9-37.9,37.9S0,78.8,0,57.9C0,37,17,20,37.9,20c9.7,0,18.5,3.7,25.2,9.7l26-25.8H70c-1.1,0-2.1-0.7-2.1-1.8
	c0-1.1,0.9-2,2-2h24l0,0c0.3,0,0.5,0.1,0.8,0.2c0.2,0.1,0.5,0.2,0.7,0.4c0,0,0,0,0,0c0,0,0,0,0,0c0.2,0.2,0.3,0.4,0.4,0.6
	C95.7,1.4,95.8,1.7,95.8,1.9z M37.9,24C19.2,24,4,39.2,4,57.9c0,18.7,15.2,33.9,33.9,33.9c18.7,0,33.9-15.2,33.9-33.9
	C71.8,39.2,56.6,24,37.9,24z"/>
</svg>
