<?xml version="1.0" encoding="utf-8"?>
<!-- Generator: Adobe Illustrator 22.1.0, SVG Export Plug-In . SVG Version: 6.00 Build 0)  -->
<svg version="1.1" id="Layer_1" xmlns="http://www.w3.org/2000/svg" xmlns:xlink="http://www.w3.org/1999/xlink" x="0px" y="0px"
	 viewBox="0 0 96 95.8" style="enable-background:new 0 0 96 95.8;" xml:space="preserve">

<path class="st0" d="M95.1,95.4c-0.3,0.2-0.7,0.3-1.1,0.3c-0.3,0-0.5,0-0.7-0.1L64,83.9L32.7,95.6c0,0,0,0-0.1,0
	c-0.2,0.1-0.4,0.1-0.6,0.1c0,0,0,0,0,0l0,0c0,0,0,0,0,0h0c-0.2,0-0.5-0.1-0.7-0.1c0,0,0,0-0.1,0l-30-12c-0.8-0.3-1.3-1-1.3-1.9V2
	c0-0.7,0.3-1.3,0.9-1.7C1.4,0,2.1-0.1,2.7,0.1L32,11.8L63.3,0.1c0.1,0,0.2,0,0.3,0c0,0,0,0,0,0C63.8,0.1,63.9,0,64,0
	c0.1,0,0.2,0.1,0.4,0.1c0,0,0,0,0,0c0.1,0,0.2,0,0.3,0.1l30,12c0.8,0.3,1.3,1,1.3,1.9v79.8C96,94.4,95.7,95,95.1,95.4z M30,15.3
	L4,4.9v75.5l26,10.4V15.3z M34,90.9l28-10.5V4.9L34,15.3V90.9z M92,15.3L66,4.9v75.5l26,10.4V15.3z"/>
</svg>
