<?xml version="1.0" encoding="UTF-8"?>
<svg  viewBox="0 0 95 96" version="1.1" xmlns="http://www.w3.org/2000/svg" xmlns:xlink="http://www.w3.org/1999/xlink">
    <title>Artboard</title>
    <g id="Artboard" stroke="none" stroke-width="1" fill="none" fill-rule="evenodd">
        <g id="plus" transform="translate(-1.000000, 0.000000)" fill="#1B1B1B" fill-rule="nonzero">
            <path d="M82.3,81.9 C73.3,91 61.3,96 48.6,96 C35.9,96 23.9,91 14.9,81.9 C-3.7,63.2 -3.7,32.7 14.9,14 C23.9,5 35.9,0 48.6,0 C61.3,0 73.3,5 82.3,14.1 C91.3,23.2 96.3,35.2 96.3,48 C96.3,60.8 91.3,72.9 82.3,81.9 Z M79.5,16.9 C71.3,8.6 60.3,4 48.6,4 C36.9,4 25.9,8.6 17.7,16.9 C0.7,34.1 0.7,62 17.7,79.1 C25.9,87.4 36.9,92 48.6,92 C60.3,92 71.3,87.4 79.5,79.1 C87.7,70.8 92.3,59.8 92.3,48 C92.3,36.2 87.8,25.2 79.5,16.9 Z M70.5,50 L50.6,50 L46.6,50 L26.7,50 C25.6,50 24.7,49.1 24.7,48 C24.7,46.9 25.6,46 26.7,46 L46.6,46 L50.6,46 L70.5,46 C71.6,46 72.5,46.9 72.5,48 C72.5,49.1 71.6,50 70.5,50 Z" id="Shape"></path>
        </g>
    </g>
</svg>
