<?xml version="1.0" encoding="utf-8"?>
<!-- Generator: Adobe Illustrator 22.1.0, SVG Export Plug-In . SVG Version: 6.00 Build 0)  -->
<svg version="1.1" id="Layer_1" xmlns="http://www.w3.org/2000/svg" xmlns:xlink="http://www.w3.org/1999/xlink" x="0px" y="0px"
	 viewBox="0 0 96 80" style="enable-background:new 0 0 96 80;" xml:space="preserve">

<path class="st0" d="M90.9,64H50v12h16c1.1,0,2,0.9,2,2s-0.9,2-2,2H30.1c-1.1,0-2-0.9-2-2s0.9-2,2-2H46V64H5.1C2.3,64,0,61.7,0,58.8
	V5.2C0,2.3,2.3,0,5.1,0h85.9C93.7,0,96,2.3,96,5.2v53.7C96,61.7,93.7,64,90.9,64z M92,5.2C92,4.5,91.5,4,90.9,4H5.1
	C4.5,4,4,4.5,4,5.2v53.7C4,59.5,4.5,60,5.1,60h85.9c0.6,0,1.1-0.5,1.1-1.2V5.2z"/>
</svg>
