<?xml version="1.0" encoding="utf-8"?>
<!-- Generator: Adobe Illustrator 22.1.0, SVG Export Plug-In . SVG Version: 6.00 Build 0)  -->
<svg version="1.1" id="Layer_1" xmlns="http://www.w3.org/2000/svg" xmlns:xlink="http://www.w3.org/1999/xlink" x="0px" y="0px"
	 viewBox="0 0 52 96" style="enable-background:new 0 0 52 96;" xml:space="preserve">

<path class="st0" d="M26,96C11.7,96,0,84.1,0,69.5V26.5C0,11.9,11.7,0,26,0s26,11.9,26,26.5v42.9C52,84.1,40.3,96,26,96z M48,26.5
	C48,14.1,38.1,4,26,4S4,14.1,4,26.5v42.9C4,81.9,13.9,92,26,92s22-10.1,22-22.5V26.5z M26,38c-2.2,0-4-1.8-4-4V22c0-2.2,1.8-4,4-4
	c2.2,0,4,1.8,4,4v12C30,36.2,28.2,38,26,38z"/>
</svg>
