<?xml version="1.0" encoding="utf-8"?>
<!-- Generator: Adobe Illustrator 22.1.0, SVG Export Plug-In . SVG Version: 6.00 Build 0)  -->
<svg version="1.1" id="Layer_1" xmlns="http://www.w3.org/2000/svg" xmlns:xlink="http://www.w3.org/1999/xlink" x="0px" y="0px"
	 viewBox="0 0 95.8 95.8" style="enable-background:new 0 0 95.8 95.8;" xml:space="preserve">

<path class="st0" d="M95.1,49.4L83.2,61.3c-0.4,0.4-0.9,0.6-1.4,0.6c-0.5,0-1-0.2-1.4-0.6c-0.8-0.8-0.8-2,0-2.8l8.7-8.7H49.9V89
	l8.6-8.6c0.8-0.8,2-0.8,2.8,0c0.8,0.8,0.8,2,0,2.8l-12,12c-0.2,0.2-0.4,0.3-0.6,0.4c0,0,0,0,0,0c-0.2,0.1-0.5,0.2-0.8,0.2
	c0,0,0,0,0,0h0c-0.1,0-0.1,0-0.2,0c-0.5,0-0.9-0.2-1.2-0.6l-12-12c-0.8-0.8-0.8-2,0-2.8c0.8-0.8,2-0.8,2.8,0l8.7,8.7V49.8H6.7
	l8.7,8.6c0.8,0.8,0.8,2,0,2.8c-0.4,0.4-0.9,0.6-1.4,0.6c-0.5,0-1-0.2-1.4-0.6l-12-12C0.2,48.9,0,48.4,0,47.9c0-0.3,0.1-0.5,0.2-0.8
	c0.1-0.2,0.2-0.5,0.4-0.6l12-12c0.8-0.8,2-0.8,2.8,0s0.8,2,0,2.8l-8.6,8.6H46V6.7l-8.7,8.7c-0.8,0.8-2,0.8-2.8,0
	c-0.8-0.8-0.8-2,0-2.8L46.4,0.6C46.8,0.2,47.3,0,47.9,0c0.3,0,0.5,0.1,0.8,0.2s0.5,0.2,0.7,0.4l12,12c0.8,0.8,0.8,2,0,2.8
	c-0.4,0.4-0.9,0.6-1.4,0.6c-0.5,0-1-0.2-1.4-0.6l-8.6-8.6v39.1H89l-8.6-8.6c-0.8-0.8-0.8-2,0-2.8c0.8-0.8,2-0.8,2.8,0l12,12
	c0.2,0.2,0.3,0.4,0.4,0.7c0.1,0.2,0.2,0.5,0.2,0.8C95.8,48.5,95.6,49.1,95.1,49.4z"/>
</svg>
