<?xml version="1.0" encoding="utf-8"?>
<!-- Generator: Adobe Illustrator 22.1.0, SVG Export Plug-In . SVG Version: 6.00 Build 0)  -->
<svg version="1.1" id="Layer_1" xmlns="http://www.w3.org/2000/svg" xmlns:xlink="http://www.w3.org/1999/xlink" x="0px" y="0px"
	 viewBox="0 0 91.8 95.8" style="enable-background:new 0 0 91.8 95.8;" xml:space="preserve">

<path class="st0" d="M91.8,64.6c-0.5,7.4-8.3,13.3-17.9,13.3c-9.9,0-18-6.3-18-13.9c0-7.7,8.1-14,18-14c5.8,0,10.9,2.1,14.2,5.4V4.4
	L35.9,15.6v66.3c0,0,0,0,0,0c0,7.7-8.1,13.9-18,13.9c-9.9,0-18-6.3-18-13.9c0-7.7,8.1-14,18-14c5.7,0,10.7,2.1,14,5.3V13.8
	c0-0.9,0.6-1.6,1.5-1.8L89.4,0c0.1,0,0.1,0,0.2,0c0.1,0,0.2,0,0.2,0c0.1,0,0.1,0,0.2,0c0.2,0,0.3,0,0.4,0.1c0.1,0,0.2,0.1,0.3,0.1
	c0.1,0.1,0.2,0.1,0.3,0.2c0.1,0.1,0.2,0.2,0.3,0.2c0.1,0.1,0.2,0.2,0.2,0.3c0.1,0.1,0.1,0.2,0.2,0.4c0,0.1,0.1,0.1,0.1,0.2
	c0,0.1,0,0.1,0,0.2c0,0.1,0,0.1,0,0.2v62.4C91.8,64.4,91.8,64.5,91.8,64.6z M18,71.9c-7.7,0-14,4.5-14,10c0,5.5,6.3,9.9,14,9.9
	s14-4.5,14-9.9C31.9,76.3,25.7,71.9,18,71.9z M73.8,53.9c-7.7,0-14,4.5-14,10c0,5.5,6.3,9.9,14,9.9c7.7,0,14-4.5,14-9.9
	C87.8,58.4,81.6,53.9,73.8,53.9z"/>
</svg>
