<?xml version="1.0" encoding="utf-8"?>
<!-- Generator: Adobe Illustrator 22.1.0, SVG Export Plug-In . SVG Version: 6.00 Build 0)  -->
<svg version="1.1" id="Layer_1" xmlns="http://www.w3.org/2000/svg" xmlns:xlink="http://www.w3.org/1999/xlink" x="0px" y="0px"
	 viewBox="0 0 71.8 95.9" style="enable-background:new 0 0 71.8 95.9;" xml:space="preserve">

<path class="st0" d="M71.2,33.3c-0.8,0.8-2,0.8-2.8,0.1L39.9,6.6v73.3c0,0,0,0,0,0c0,0,0,0,0,0c0,8.8-8.9,15.9-19.9,15.9
	C8.9,95.9,0,88.7,0,79.9c0-8.8,8.9-16,19.9-16c6.6,0,12.4,2.6,16.1,6.6V1.9c0-0.8,0.4-1.4,1.1-1.7c0.7-0.3,1.6-0.2,2.2,0.4l31.9,30
	C72,31.3,72,32.5,71.2,33.3z M19.9,67.9c-8.8,0-16,5.4-16,12c0,6.6,7.2,11.9,16,11.9c8.8,0,16-5.4,16-11.9
	C35.9,73.3,28.7,67.9,19.9,67.9z"/>
</svg>
