<svg xmlns="http://www.w3.org/2000/svg"  viewBox="0 0 275.125 293.505">
  <g id="box_1_" data-name="box (1)" transform="translate(-16.032 0.002)">
    <g id="Group_970" data-name="Group 970" transform="translate(16.032 -0.002)">
      <g id="Group_969" data-name="Group 969" transform="translate(0 0)">
        <path id="Path_5105" data-name="Path 5105" d="M288.726,64.761,155.464.427a4.3,4.3,0,0,0-3.738,0L18.462,64.761a4.3,4.3,0,0,0-2.43,3.872V224.871a4.3,4.3,0,0,0,2.43,3.872l133.263,64.334a4.3,4.3,0,0,0,3.739,0l133.263-64.334a4.3,4.3,0,0,0,2.43-3.872V68.633a4.3,4.3,0,0,0-2.431-3.872ZM153.594,9.073,276.97,68.632,241.207,85.9a4.262,4.262,0,0,0-.728-.458L117.941,26.285ZM108.231,31.146,231.425,90.619,206.193,102.8,83.051,43.351Zm126.077,67.63V143.8L210.739,155.18V110.153Zm48.25,123.4L157.892,282.357V135.664l52.846-25.511c2.138-1.032-2.289.1-3.322-2.035s1.162-6.35-.977-5.32L153.593,128.19l-11.921-5.756a4.3,4.3,0,0,0-5.741,2c-1.032,2.138-.517,4.364,1.621,5.4l11.742,5.829V282.355L24.627,222.172V75.482l94.935,45.829c.6.291,29.107,14.354,29.733,14.354,1.6,0,3.558-1.9,4.3-3.439,1.032-2.138,2.138-3,0-4.03L30.221,68.632l42.71-20.619,129.15,62.348c.019.026.04.05.06.076V162.03a4.3,4.3,0,0,0,6.169,3.872l32.167-15.529a4.3,4.3,0,0,0,2.43-3.872V94.627l39.651-19.142Z" transform="translate(-16.032 0.001)" fill="#d1d3e0"/>
      </g>
    </g>
    <g id="Group_972" data-name="Group 972" transform="translate(34.385 195.629)">
      <g id="Group_971" data-name="Group 971" transform="translate(0 0)">
        <path id="Path_5106" data-name="Path 5106" d="M73.774,351.132l-19.556-9.441a4.3,4.3,0,1,0-3.739,7.744l19.556,9.441a4.3,4.3,0,1,0,3.739-7.744Z" transform="translate(-48.048 -341.262)" fill="#d1d3e0"/>
      </g>
    </g>
    <g id="Group_974" data-name="Group 974" transform="translate(34.412 175.236)">
      <g id="Group_973" data-name="Group 973" transform="translate(0 0)">
        <path id="Path_5107" data-name="Path 5107" d="M91.793,324.234,54.265,306.118a4.3,4.3,0,0,0-3.738,7.745L88.054,331.98a4.3,4.3,0,0,0,3.738-7.744Z" transform="translate(-48.095 -305.69)" fill="#d1d3e0"/>
      </g>
    </g>
  </g>
</svg>
