<?xml version="1.0" encoding="utf-8"?>
<!-- Generator: Adobe Illustrator 22.1.0, SVG Export Plug-In . SVG Version: 6.00 Build 0)  -->
<svg version="1.1" id="Layer_1" xmlns="http://www.w3.org/2000/svg" xmlns:xlink="http://www.w3.org/1999/xlink" x="0px" y="0px"
	 viewBox="0 0 96.6 95.9" style="enable-background:new 0 0 96.6 95.9;" xml:space="preserve">

<path class="st0" d="M94.1,17.3C94.1,17.3,94.1,17.3,94.1,17.3C94,17.3,94,17.3,94,17.4l-40.3,40c0,0,0,0-0.1,0
	c-0.1,0.1-0.2,0.1-0.3,0.2c-0.1,0.1-0.2,0.2-0.3,0.2c0,0,0,0-0.1,0l-18.1,6c-0.2,0.1-0.4,0.1-0.6,0.1c-0.5,0-1-0.2-1.4-0.6
	c-0.5-0.5-0.7-1.3-0.5-2l6-18c0,0,0,0,0-0.1c0-0.1,0.1-0.2,0.2-0.3c0.1-0.1,0.1-0.2,0.2-0.3c0,0,0,0,0-0.1l40.3-40c0,0,0,0,0,0
	c0,0,0,0,0,0c1.8-1.7,4.3-2.6,6.8-2.5c2.8,0.1,5.4,1.3,7.4,3.4C98,8.3,97,13.9,94.1,17.3z M90.4,6.2C88.8,4.4,87,4,85.8,4
	c-1.5,0-3,0.5-3.9,1.4L42,45l-4.6,13.8l13.8-4.6l39.8-39.6C92.7,12.7,93.5,9.4,90.4,6.2z M52.3,15.9H4v76h76v-48c0-1.1,0.9-2,2-2
	s2,0.9,2,2v50c0,1.1-0.4,2-1.5,2H2c-1.1,0-2-0.9-2-2v-80c0-1.1,0.9-2,2-2h50.3c1.1,0,2,0.9,2,2S53.4,15.9,52.3,15.9z"/>
</svg>
