<?xml version="1.0" encoding="utf-8"?>
<!-- Generator: Adobe Illustrator 22.1.0, SVG Export Plug-In . SVG Version: 6.00 Build 0)  -->
<svg version="1.1" id="Layer_1" xmlns="http://www.w3.org/2000/svg" xmlns:xlink="http://www.w3.org/1999/xlink" x="0px" y="0px"
	 viewBox="0 0 80 96" style="enable-background:new 0 0 80 96;" xml:space="preserve">

<path class="st0" d="M71.8,96H8.2c-1.1,0-2-0.9-2-2V78H2c-1.1,0-2-0.9-2-2s0.9-2,2-2h4.2V58H2c-1.1,0-2-0.9-2-2s0.9-2,2-2h4.2V40H2
	c-1.1,0-2-0.9-2-2s0.9-2,2-2h4.2V20h-4c-1.1,0-2-0.9-2-2s0.9-2,2-2h4V2c0-1.1,0.9-2,2-2h63.6C76.3,0,80,3.7,80,8.1v79.7
	C80,92.3,76.3,96,71.8,96z M64,4H10v12h4.2c1.1,0,2,0.9,2,2s-0.9,2-2,2H10v16h4c1.1,0,2,0.9,2,2s-0.9,2-2,2h-4v14h4c1.1,0,2,0.9,2,2
	s-0.9,2-2,2h-4v16h4c1.1,0,2,0.9,2,2s-0.9,2-2,2h-4v14h54V4z M76,8.1C76,5.9,74.1,4,71.8,4H68v88h3.7c2.3,0,4.3-1.9,4.3-4.1V8.1z"/>
</svg>
