<?xml version="1.0" encoding="utf-8"?>
<!-- Generator: Adobe Illustrator 22.1.0, SVG Export Plug-In . SVG Version: 6.00 Build 0)  -->
<svg version="1.1" id="Layer_1" xmlns="http://www.w3.org/2000/svg" xmlns:xlink="http://www.w3.org/1999/xlink" x="0px" y="0px"
	 viewBox="0 0 96 93.8" style="enable-background:new 0 0 96 93.8;" xml:space="preserve">

<path class="st0" d="M91.4,87.1l-43.1,6.7c-0.1,0-0.2,0-0.3,0c0,0,0,0,0,0c0,0,0,0,0,0l0,0l0,0c0,0,0,0,0,0c0,0,0,0,0,0
	c-0.1,0-0.2,0-0.3,0l-43-6.7C2,86.5,0,84.1,0,81.4V4.5C0,3.1,0.6,1.8,1.6,1c1-0.8,2.4-1.2,3.8-0.9L48,7.5l42.7-7.5
	C92-0.2,93.4,0.1,94.4,1c1,0.8,1.6,2.1,1.6,3.5v76.9C96,84.1,94,86.5,91.4,87.1z M46,11.3L4.7,4C4.4,4,4.2,4,4.2,4.1
	C4.1,4.2,4,4.3,4,4.5v76.9c0,0.7,0.7,1.6,1.4,1.7L46,89.5V11.3z M92,4.5c0-0.2-0.1-0.4-0.2-0.4C91.8,4,91.6,4,91.4,4L50,11.3v78.2
	l40.7-6.4c0.6-0.1,1.3-1,1.3-1.7V4.5z M80.4,67.7l-20,4c-0.1,0-0.3,0-0.4,0c-0.9,0-1.8-0.7-2-1.6c-0.2-1.1,0.5-2.1,1.6-2.4l20-4
	c1.1-0.2,2.1,0.5,2.4,1.6C82.2,66.4,81.5,67.5,80.4,67.7z M80.4,47.6l-20,4c-0.1,0-0.3,0-0.4,0c-0.9,0-1.8-0.7-2-1.6
	c-0.2-1.1,0.5-2.1,1.6-2.4l20-4c1.1-0.2,2.1,0.5,2.4,1.6C82.2,46.4,81.5,47.4,80.4,47.6z M80.4,25.6l-20,4c-0.1,0-0.3,0-0.4,0
	c-0.9,0-1.8-0.7-2-1.6c-0.2-1.1,0.5-2.1,1.6-2.4l20-4c1.1-0.2,2.1,0.5,2.4,1.6C82.2,24.3,81.5,25.4,80.4,25.6z M16.4,21.6l20,4
	c1.1,0.2,1.8,1.3,1.6,2.4c-0.2,1-1,1.6-2,1.6c-0.1,0-0.3,0-0.4,0l-20-4c-1.1-0.2-1.8-1.3-1.6-2.4C14.3,22.1,15.3,21.4,16.4,21.6z
	 M16.4,43.7l20,4c1.1,0.2,1.8,1.3,1.6,2.4c-0.2,1-1,1.6-2,1.6c-0.1,0-0.3,0-0.4,0l-20-4c-1.1-0.2-1.8-1.3-1.6-2.4
	C14.3,44.2,15.3,43.5,16.4,43.7z M16.4,63.8l20,4c1.1,0.2,1.8,1.3,1.6,2.4c-0.2,1-1,1.6-2,1.6c-0.1,0-0.3,0-0.4,0l-20-4
	c-1.1-0.2-1.8-1.3-1.6-2.4C14.3,64.2,15.3,63.5,16.4,63.8z"/>
</svg>
