<?xml version="1.0" encoding="utf-8"?>
<!-- Generator: Adobe Illustrator 24.1.0, SVG Export Plug-In . SVG Version: 6.00 Build 0)  -->
<svg version="1.1" id="Layer_1" xmlns="http://www.w3.org/2000/svg" xmlns:xlink="http://www.w3.org/1999/xlink" x="0px" y="0px"
	 viewBox="0 0 116.2 121.9" style="enable-background:new 0 0 116.2 121.9;" xml:space="preserve">
<g>
	<path d="M116.1,64.4c0-0.7-0.4-1.4-1-1.7L95.4,51.3l-0.1-29c0-0.2-0.1-0.4-0.2-0.6c0-0.1,0-0.3-0.1-0.4c-0.1-0.2-0.3-0.4-0.5-0.5
		c-0.1-0.1-0.1-0.2-0.2-0.2l0,0l0,0l0,0L59.4,0.3c-0.6-0.4-1.4-0.4-2,0L21.7,20.9c-0.3,0.2-0.6,0.4-0.8,0.8c0,0.1,0,0.2-0.1,0.3
		c-0.1,0.2-0.2,0.5-0.2,0.7l0,0l0,0l0.1,28L1,62.2c-0.6,0.4-1,1-1,1.7l0,0v23.2c0,0.7,0.4,1.4,1,1.8l14.6,8.4c0.6,0.4,1.4,0.4,2,0
		c0.1,0,0.1-0.1,0.1-0.1l8.5-4.9l15.4,8.9l0.2,10.2c0,0.7,0.4,1.4,1,1.7l14.9,8.6c0.3,0.2,0.6,0.3,1,0.3s0.7-0.1,1-0.3l0,0l0,0
		l55.4-32.2c0.6-0.4,1-1,1-1.7L116.1,64.4L116.1,64.4L116.1,64.4z M110.1,64.4L58.7,94.3l-14.9-8.6l6.4-3.8l6.4,3.7l0,0l0,0
		c0.3,0.2,0.6,0.3,1,0.3s0.7-0.1,1-0.3l35.8-20.6c0.6-0.4,1-1,1-1.8l0-7.4L110.1,64.4z M59.7,80.5l-0.1-28l0-8.4l31.8-18.3l0.1,36.4
		L59.7,80.5z M55.6,44.1l0,10.3l0.1,26.1l-30.9-18L24.7,26L55.6,44.1z M46.3,79.6l-6.5,3.8l-3.6-2.1l-11.3-6.5l6.5-3.8L46.3,79.6z
		 M58.4,4.3l30.9,18l-13.1,7.6l-30.9-18L58.4,4.3z M41.3,14.1l30.9,18l-14.7,8.5l-30.9-18L41.3,14.1z M20.7,55.3l0,8.4
		c0,0.7,0.4,1.4,1,1.7l5.7,3.3l-6.5,3.8L6,63.8L20.7,55.3z M18.5,92l0-4.3l3.7,2.1L18.5,92z M45.8,110.1l-0.2-10.2
		c0-0.7-0.4-1.4-1-1.7L17.5,82.5c-0.6-0.4-1.4-0.4-2,0s-1,1-1,1.8l0.1,7.8L3.9,85.9V67.3l52.7,30.5v18.5L45.8,110.1z M60.7,116.3
		V97.8l51.4-29.9v18.5L60.7,116.3z"/>
</g>
</svg>
