<?xml version="1.0" encoding="utf-8"?>
<!-- Generator: Adobe Illustrator 24.1.0, SVG Export Plug-In . SVG Version: 6.00 Build 0)  -->
<svg version="1.1" id="Layer_1" xmlns="http://www.w3.org/2000/svg" xmlns:xlink="http://www.w3.org/1999/xlink" x="0px" y="0px"
	 viewBox="0 0 116.2 92.2" style="enable-background:new 0 0 116.2 92.2;" xml:space="preserve">
<path d="M116.1,34.8c0-0.7-0.4-1.4-1-1.7L58.4,0.3c-0.6-0.4-1.4-0.4-2,0L1,32.5c-0.6,0.4-1,1-1,1.7l0,0v23.2c0,0.7,0.4,1.4,1,1.8
	l14.6,8.4c0.6,0.4,1.4,0.4,2,0c0.1,0,0.1-0.1,0.1-0.1l8.5-4.9l15.4,8.9l0.2,10.2c0,0.7,0.4,1.4,1,1.7l14.9,8.6
	c0.3,0.2,0.6,0.3,1,0.3s0.7-0.1,1-0.3l0,0l0,0l55.4-32.2c0.6-0.4,1-1,1-1.7L116.1,34.8L116.1,34.8L116.1,34.8z M24.9,45.2l51.4-29.9
	l14.9,8.6L39.8,53.8L24.9,45.2z M58.7,64.7l-14.9-8.6l51.4-29.9l14.9,8.6L58.7,64.7z M57.4,4.3L72.3,13L20.9,42.9L5.9,34.2L57.4,4.3
	z M18.5,62.3l0-4.3l3.7,2.1L18.5,62.3z M45.8,80.4l-0.2-10.2c0-0.7-0.4-1.4-1-1.7L17.5,52.8c-0.6-0.4-1.4-0.4-2,0s-1,1-1,1.8
	l0.1,7.8L3.9,56.2V37.7l52.7,30.4v18.5L45.8,80.4z M60.7,86.7V68.1l51.4-29.9v18.5L60.7,86.7z"/>
</svg>
