<?xml version="1.0" encoding="utf-8"?>
<!-- Generator: Adobe Illustrator 22.1.0, SVG Export Plug-In . SVG Version: 6.00 Build 0)  -->
<svg version="1.1" id="Layer_1" xmlns="http://www.w3.org/2000/svg" xmlns:xlink="http://www.w3.org/1999/xlink" x="0px" y="0px"
	 viewBox="0 0 96 85.8" style="enable-background:new 0 0 96 85.8;" xml:space="preserve">

<path class="st0" d="M16.5,85.7c-4.3,0-8.4-1.5-11.5-4.5C1.7,78,0,74.2,0,70.1c0-4.7,2.4-9.6,6.9-14.1L56.4,6.7c9-9,23.8-9,32.8,0
	c4.4,4.4,6.8,10.2,6.8,16.3s-2.4,12-6.8,16.3L45.4,82.9c-0.8,0.8-2,0.8-2.8,0c-0.8-0.8-0.8-2,0-2.8l43.8-43.5C90,33,92,28.2,92,23.1
	s-2-9.9-5.6-13.5c-7.5-7.4-19.7-7.4-27.2,0L9.7,58.8C6,62.5,4,66.4,4,70.1c0,3,1.3,5.9,3.8,8.4c5,5,14.7,4.1,20.7-1.8l39.6-39.4
	c1.3-1.2,1.9-2.9,1.9-4.7c0-1.8-0.7-3.4-1.9-4.7c-2.6-2.6-6.8-2.6-9.4,0L25.3,61.2c-0.8,0.8-2,0.8-2.8,0c-0.8-0.8-0.8-2,0-2.8
	l33.4-33.3c4.1-4.1,10.9-4.1,15,0c2,2,3.1,4.7,3.1,7.5c0,2.8-1.1,5.5-3.1,7.5L31.4,79.5C27.2,83.6,21.7,85.7,16.5,85.7z"/>
</svg>
