<?xml version="1.0" encoding="utf-8"?>
<!-- Generator: Adobe Illustrator 22.1.0, SVG Export Plug-In . SVG Version: 6.00 Build 0)  -->
<svg version="1.1" id="Layer_1" xmlns="http://www.w3.org/2000/svg" xmlns:xlink="http://www.w3.org/1999/xlink" x="0px" y="0px"
	 viewBox="0 0 95.8 95.8" style="enable-background:new 0 0 95.8 95.8;" xml:space="preserve">

<path class="st0" d="M95.2,0.6c0.2,0.2,0.3,0.4,0.4,0.6c0,0.1,0,0.1,0.1,0.2c0.1,0.2,0.1,0.3,0.1,0.5c0,0.1,0,0.1,0,0.2
	c0,0.2,0,0.4-0.1,0.6c0,0,0,0.1,0,0.1c0,0,0,0,0,0L55.9,94.6c-0.3,0.7-0.9,1.1-1.7,1.2c-0.1,0-0.1,0-0.2,0c-0.7,0-1.3-0.3-1.7-0.9
	L32.6,63.4c0,0-0.1,0-0.1-0.1c0,0,0-0.1-0.1-0.1L0.9,44.2c-0.6-0.4-1-1.1-1-1.8c0.1-0.7,0.5-1.4,1.2-1.7L92.9,0.2c0,0,0,0,0,0
	c0,0,0.1,0,0.1,0C93.3,0.1,93.5,0,93.7,0c0.1,0,0.1,0,0.2,0c0.2,0,0.3,0,0.5,0.1c0.1,0,0.1,0,0.2,0.1C94.8,0.3,95,0.4,95.2,0.6
	C95.2,0.6,95.2,0.6,95.2,0.6C95.2,0.6,95.2,0.6,95.2,0.6C95.2,0.6,95.2,0.6,95.2,0.6z M53.8,89.5l34-78.8L36.5,62.1L53.8,89.5z
	 M33.7,59.3L84.8,8.1L6.3,42.7L33.7,59.3z"/>
</svg>
