<svg xmlns="http://www.w3.org/2000/svg" viewBox="0 0 20 15.598">
  <g id="pattern_logo_color" transform="translate(0.001 0.001)">
    <g id="Group_560" data-name="Group 560" transform="translate(-0.001 -0.001)">
      <path id="Path_2066" data-name="Path 2066" d="M2.862,15.42.2,12.76a.651.651,0,0,1,0-.943L11.784.2a.651.651,0,0,1,.943,0l2.66,2.66a.651.651,0,0,1,0,.943L3.8,15.42A.717.717,0,0,1,2.862,15.42Z" transform="translate(0.001 0.001)" fill="#00b2e2"/>
      <path id="Path_2067" data-name="Path 2067" d="M31.362,25.5l-2.66-2.66a.651.651,0,0,1,0-.943l6.4-6.4a.651.651,0,0,1,.943,0l2.66,2.66a.651.651,0,0,1,0,.943l-6.4,6.4a.651.651,0,0,1-.943,0Z" transform="translate(-18.903 -10.148)" fill="#00b2e2"/>
    </g>
  </g>
</svg>
