<?xml version="1.0" encoding="utf-8"?>
<!-- Generator: Adobe Illustrator 22.1.0, SVG Export Plug-In . SVG Version: 6.00 Build 0)  -->
<svg version="1.1" id="Layer_1" xmlns="http://www.w3.org/2000/svg" xmlns:xlink="http://www.w3.org/1999/xlink" x="0px" y="0px"
	 viewBox="0 0 64 96" style="enable-background:new 0 0 64 96;" xml:space="preserve">

<path class="st0" d="M62,96H42c-1.1,0-2-0.9-2-2V2c0-1.1,0.9-2,2-2h20c1.1,0,2,0.9,2,2v92C64,95.1,63.1,96,62,96z M60,4H44v88h16V4z
	 M22,96H2c-1.1,0-2-0.9-2-2V2c0-1.1,0.9-2,2-2h20c1.1,0,2,0.9,2,2v92C24,95.1,23.2,96,22,96z M20,4H4v88h16V4z"/>
</svg>
