<?xml version="1.0" encoding="utf-8"?>
<!-- Generator: Adobe Illustrator 22.1.0, SVG Export Plug-In . SVG Version: 6.00 Build 0)  -->
<svg version="1.1" id="Layer_1" xmlns="http://www.w3.org/2000/svg" xmlns:xlink="http://www.w3.org/1999/xlink" x="0px" y="0px"
	 viewBox="0 0 95.9 96.9" style="enable-background:new 0 0 95.9 96.9;" xml:space="preserve">

<path class="st0" d="M92.6,19.3c-0.1,0.1-0.1,0.1-0.2,0.1c-0.1,0.1-0.1,0.2-0.2,0.2l-6.1,6.2c0,0,0,0,0,0c0,0,0,0,0,0L25.6,86.9
	c0,0,0,0,0,0l0,0c-0.2,0.2-0.4,0.3-0.6,0.4L2.8,96.7c-0.2,0.1-0.5,0.2-0.8,0.2c-0.5,0-1-0.2-1.4-0.6c-0.6-0.6-0.7-1.4-0.4-2.2
	l9.2-22.4c0,0,0,0,0,0l0,0c0-0.1,0.1-0.2,0.2-0.3c0.1-0.1,0.1-0.3,0.2-0.4l0,0l0,0L70.3,9.9l0,0l0,0l6.1-6.2
	c0.1-0.1,0.2-0.1,0.2-0.2c0.1-0.1,0.1-0.2,0.1-0.2c4.4-4.4,11.5-4.4,15.8,0c2.1,2.1,3.3,5,3.3,8C95.9,14.3,94.7,17.1,92.6,19.3z
	 M5.7,91.1l15-6.3L11.9,76L5.7,91.1z M24.2,82.7l57.7-58.3L71.7,14.1L14.1,72.4L24.2,82.7z M89.8,6.2c-2.8-2.8-7.4-2.8-10.2,0
	c-0.1,0.1-0.2,0.1-0.2,0.2c-0.1,0.1-0.1,0.2-0.1,0.2l-4.7,4.8l10.2,10.3l4.7-4.8c0.1-0.1,0.1-0.1,0.2-0.1c0.1-0.1,0.1-0.2,0.2-0.2
	c1.4-1.4,2.1-3.2,2.1-5.1S91.1,7.5,89.8,6.2z"/>
</svg>
