<?xml version="1.0" encoding="utf-8"?>
<!-- Generator: Adobe Illustrator 22.1.0, SVG Export Plug-In . SVG Version: 6.00 Build 0)  -->
<svg version="1.1" id="Layer_1" xmlns="http://www.w3.org/2000/svg" xmlns:xlink="http://www.w3.org/1999/xlink" x="0px" y="0px"
	 viewBox="0 0 52 96" style="enable-background:new 0 0 52 96;" xml:space="preserve">

<path class="st0" d="M44,96H8c-4.4,0-8-3.7-8-8.1V8.1C0,3.6,3.6,0,8,0h36c4.4,0,8,3.6,8,8.1v79.7C52,92.3,48.4,96,44,96z M48,8.1
	C48,5.9,46.2,4,44,4H8C5.8,4,4,5.9,4,8.1v79.7C4,90.1,5.8,92,8,92h36c2.2,0,4-1.9,4-4.1V8.1z M32,14H20c-1.1,0-2-0.9-2-2s0.9-2,2-2
	h12c1.1,0,2,0.9,2,2S33.1,14,32,14z M26,80c2.2,0,4,1.8,4,4s-1.8,4-4,4c-2.2,0-4-1.8-4-4S23.8,80,26,80z"/>
</svg>
