<?xml version="1.0" encoding="utf-8"?>
<!-- Generator: Adobe Illustrator 22.1.0, SVG Export Plug-In . SVG Version: 6.00 Build 0)  -->
<svg version="1.1" id="Layer_1" xmlns="http://www.w3.org/2000/svg" xmlns:xlink="http://www.w3.org/1999/xlink" x="0px" y="0px"
	 viewBox="0 0 96 80" style="enable-background:new 0 0 96 80;" xml:space="preserve">

<path class="st0" d="M87.9,80H8.1C3.6,80,0,76.4,0,72V20c0-4.4,3.6-8,8.1-8h14.6l5.4-10.9C28.5,0.4,29.2,0,30,0h36
	c0.8,0,1.4,0.4,1.8,1.1L73.2,12h14.6c4.5,0,8.1,3.6,8.1,8v52C96,76.4,92.4,80,87.9,80z M92,20c0-2.2-1.9-4-4.1-4H72
	c-0.8,0-1.4-0.4-1.8-1.1L64.8,4H31.2l-5.4,10.9c-0.3,0.7-1,1.1-1.8,1.1H8.1C5.9,16,4,17.8,4,20v52c0,2.2,1.9,4,4.1,4h79.7
	c2.3,0,4.1-1.8,4.1-4V20z M48,64.1c-11,0-20-9-20-20s9-20,20-20s20,9,20,20S59,64.1,48,64.1z M48,28.1c-8.8,0-16,7.2-16,16
	s7.2,16,16,16s16-7.2,16-16S56.8,28.1,48,28.1z"/>
</svg>
