<?xml version="1.0" encoding="utf-8"?>
<!-- Generator: Adobe Illustrator 22.1.0, SVG Export Plug-In . SVG Version: 6.00 Build 0)  -->
<svg version="1.1" id="Layer_1" xmlns="http://www.w3.org/2000/svg" xmlns:xlink="http://www.w3.org/1999/xlink" x="0px" y="0px"
	 viewBox="0 0 96 76" style="enable-background:new 0 0 96 76;" xml:space="preserve">

<path class="st0" d="M89.8,76H6.2C2.9,76,0,73.3,0,70V6c0-3.3,2.9-6,6.2-6h83.6C93.1,0,96,2.7,96,6v64C96,73.3,93.1,76,89.8,76z
	 M92,6c0-1.1-1.1-2-2.2-2H6.2C5.1,4,4,4.9,4,6v44.1l24.8-21.6c0.8-0.7,2-0.6,2.7,0.1l22.7,22.8l14.5-11c0.8-0.6,1.9-0.5,2.6,0.2
	L92,61.9V6z M92,67.6l-22.3-23L55.2,55.6c-0.8,0.6-1.9,0.5-2.6-0.2L30,32.7L4,55.4V70c0,1.1,1.1,2,2.2,2h83.6c1.1,0,2.2-0.9,2.2-2
	V67.6z M63.9,24c0-3.3,2.7-6,6-6c3.3,0,6,2.7,6,6c0,3.3-2.7,6-6,6C66.6,30,63.9,27.3,63.9,24z M71.9,24c0-1.1-0.9-2-2-2
	c-1.1,0-2,0.9-2,2c0,1.1,0.9,2,2,2C71,26,71.9,25.1,71.9,24z"/>
</svg>
