<?xml version="1.0" encoding="utf-8"?>
<!-- Generator: Adobe Illustrator 22.1.0, SVG Export Plug-In . SVG Version: 6.00 Build 0)  -->
<svg version="1.1" id="Layer_1" xmlns="http://www.w3.org/2000/svg" xmlns:xlink="http://www.w3.org/1999/xlink" x="0px" y="0px"
	 viewBox="0 0 96 96" style="enable-background:new 0 0 96 96;" xml:space="preserve">

<path class="st0" d="M52,96C27.7,96,8,76.3,8,52c0-1.1,0.9-2,2-2s2,0.9,2,2c0,22.1,17.9,40,40,40s40-17.9,40-40S74.1,12,52,12
	c-1.1,0-2-0.9-2-2s0.9-2,2-2c24.3,0,44,19.7,44,44S76.3,96,52,96z M44,42c0,1.1-0.9,2-2,2H2.3c-0.1,0-0.2,0-0.3,0c-1.1,0-2-0.9-2-2
	v0v0v0C0,18.8,18.8,0,42,0l0,0h0c0,0,0,0,0,0h0l0,0c1.1,0,2,0.9,2,2c0,0.1,0,0.3,0,0.4V42z M40,4.1C20.6,5.1,5.1,20.6,4.1,40H40V4.1
	z"/>
</svg>
