<?xml version="1.0" encoding="utf-8"?>
<!-- Generator: Adobe Illustrator 22.1.0, SVG Export Plug-In . SVG Version: 6.00 Build 0)  -->
<svg version="1.1" id="Layer_1" xmlns="http://www.w3.org/2000/svg" xmlns:xlink="http://www.w3.org/1999/xlink" x="0px" y="0px"
	 viewBox="0 0 95.7 95.9" style="enable-background:new 0 0 95.7 95.9;" xml:space="preserve">

<path class="st0" d="M94.3,38.6c-2.9,0.9-5.8,1.3-8.8,1.3c-3,0-5.9-0.4-8.6-1.3L56.5,59.1c3.8,8.5,4.4,18.2,1.6,27.4
	c-0.2,0.7-0.7,1.2-1.4,1.3c-0.2,0-0.3,0.1-0.5,0.1c-0.5,0-1-0.2-1.4-0.6L33.1,65.6L3.4,95.3C3,95.7,2.5,95.9,2,95.9s-1-0.2-1.4-0.6
	c-0.8-0.8-0.8-2,0-2.8l29.7-29.7L8.6,41c-0.5-0.5-0.7-1.2-0.5-1.9c0.2-0.7,0.7-1.2,1.3-1.4c3.8-1.2,7.7-1.8,11.6-1.8
	c5.5,0,10.8,1.2,15.7,3.3l20.4-20.5c-1.7-5.6-1.8-11.6,0-17.4c0.2-0.7,0.8-1.2,1.4-1.3c0.7-0.2,1.4,0,1.9,0.5l34.6,34.7
	c0.5,0.5,0.7,1.2,0.5,1.9C95.5,37.8,95,38.4,94.3,38.6z M36.5,43.6c-0.1,0-0.2-0.1-0.4-0.2c-4.7-2.3-9.8-3.5-15.2-3.5
	c-2.4,0-4.8,0.2-7.1,0.7L55.1,82c2.4-11.5-1.1-23.4-9.5-31.8C42.9,47.4,39.8,45.3,36.5,43.6z M40.4,41.2c2.9,1.7,5.6,3.7,8,6.1
	c2.4,2.4,4.5,5.1,6.1,8l18.2-18.3c-3-1.4-5.8-3.4-8.3-5.8c-2.5-2.5-4.4-5.3-5.8-8.4L40.4,41.2z M60.2,5.9
	c-1.4,8.2,1.2,16.6,7.1,22.5c4.8,4.9,11.3,7.5,18.1,7.5c1.5,0,2.9-0.1,4.3-0.4L60.2,5.9z"/>
</svg>
