<?xml version="1.0" encoding="utf-8"?>
<!-- Generator: Adobe Illustrator 22.1.0, SVG Export Plug-In . SVG Version: 6.00 Build 0)  -->
<svg version="1.1" id="Layer_1" xmlns="http://www.w3.org/2000/svg" xmlns:xlink="http://www.w3.org/1999/xlink" x="0px" y="0px"
	 viewBox="0 0 95.8 95.1" style="enable-background:new 0 0 95.8 95.1;" xml:space="preserve">

<path class="st0" d="M89.2,22.1C89.2,22.1,89.2,22.1,89.2,22.1C89.2,22.1,89.2,22.1,89.2,22.1L68,42.3l7.8,42.5
	c0.1,0.6-0.1,1.3-0.6,1.8l-8,7.9c-0.4,0.4-0.9,0.6-1.4,0.6c-0.1,0-0.3,0-0.4,0c-0.7-0.1-1.2-0.6-1.4-1.2L51,58.9L31.9,76.1v11
	c0,0.5-0.2,1-0.6,1.4l-6,5.9c-0.5,0.5-1.2,0.7-1.8,0.5c-0.7-0.1-1.2-0.6-1.4-1.2L16.5,79L1.3,73.6c-0.7-0.2-1.1-0.8-1.3-1.5
	c-0.1-0.7,0.1-1.4,0.6-1.8l6.6-6.4c0.4-0.3,0.8-0.5,1.3-0.5h11.3l16.6-18.5L1.3,31.5c-0.6-0.2-1.1-0.8-1.2-1.4
	c-0.1-0.7,0.1-1.3,0.5-1.8l8-7.9c0.5-0.5,1.1-0.7,1.8-0.5l42.8,7.7L73.4,6.4C82.8-2.9,91.5,0,93.6,2.1c1.1,1.1,2.3,3.9,2.2,7.3
	C95.6,12.4,94.4,17,89.2,22.1z M90.7,4.9c-0.9-0.8-6.9-3.2-14.5,4.3L55.3,31c-0.5,0.5-1.1,0.7-1.8,0.6l-42.9-7.7l-5.1,5l35,13.2
	c0.6,0.2,1.1,0.7,1.2,1.4c0.2,0.6,0,1.3-0.4,1.8L22.3,66.6c-0.4,0.4-0.9,0.7-1.5,0.7H9.3L5.7,71l12,4.3c0.9-0.1,1.7,0.4,2,1.2
	l4.9,13l3.2-3.2V75.3c0-0.6,0.2-1.1,0.7-1.5L50.5,54c0.5-0.4,1.2-0.6,1.8-0.5c0.6,0.2,1.2,0.6,1.4,1.2l12.9,34.7l5-5l-7.8-42.6
	c-0.1-0.7,0.1-1.3,0.6-1.8l22-20.9C94,11.8,91.5,5.8,90.7,4.9z"/>
</svg>
