<?xml version="1.0" encoding="utf-8"?>
<!-- Generator: Adobe Illustrator 22.1.0, SVG Export Plug-In . SVG Version: 6.00 Build 0)  -->
<svg version="1.1" id="Layer_1" xmlns="http://www.w3.org/2000/svg" xmlns:xlink="http://www.w3.org/1999/xlink" x="0px" y="0px"
	 viewBox="0 0 95.8 96" style="enable-background:new 0 0 95.8 96;" xml:space="preserve">

<path class="st0" d="M95.2,33.5c-0.8,0.8-2.1,0.7-2.8-0.1L68,8v72c0,0.3-0.1,0.6-0.2,0.8C67.3,89.3,58.6,96,47.9,96
	c-11,0-20-7.2-20-16c0-8.8,9-16,20-16c6.6,0,12.5,2.6,16.1,6.6V2c0-0.8,0.4-1.4,1.1-1.7c0.8-0.3,1.6-0.1,2.2,0.5l27.9,29.9
	C96,31.4,96,32.7,95.2,33.5z M47.9,68c-8.8,0-16,5.4-16,12c0,6.6,7.2,12,16,12c8.8,0,16-5.4,16-12C63.9,73.4,56.7,68,47.9,68z
	 M45.9,36H2c-1.1,0-2-0.9-2-2s0.9-2,2-2h43.9c1.1,0,2,0.9,2,2S47,36,45.9,36z M45.9,20H2c-1.1,0-2-0.9-2-2c0-1.1,0.9-2,2-2h43.9
	c1.1,0,2,0.9,2,2C47.9,19.1,47,20,45.9,20z M45.9,4H2C0.9,4,0,3.1,0,2s0.9-2,2-2h43.9c1.1,0,2,0.9,2,2S47,4,45.9,4z"/>
</svg>
