<?xml version="1.0" encoding="utf-8"?>
<!-- Generator: Adobe Illustrator 22.1.0, SVG Export Plug-In . SVG Version: 6.00 Build 0)  -->
<svg version="1.1" id="Layer_1" xmlns="http://www.w3.org/2000/svg" xmlns:xlink="http://www.w3.org/1999/xlink" x="0px" y="0px"
	 viewBox="0 0 84 96" style="enable-background:new 0 0 84 96;" xml:space="preserve">

<path class="st0" d="M3,96L3,96c-1.7,0-3-1.3-3-3V3c0-1.6,1.3-3,3-3h0c1.6,0,3,1.3,3,3v90C6,94.7,4.7,96,3,96z"/>
<path class="st0" d="M83.6,49.5L83.6,49.5c-0.8,1.4-2.7,1.9-4.1,1.1L1.5,5.6C0.1,4.8-0.4,2.9,0.4,1.5l0,0c0.8-1.4,2.7-1.9,4.1-1.1
	l77.9,45C83.9,46.2,84.4,48.1,83.6,49.5z"/>
<path class="st0" d="M83.6,46.5L83.6,46.5c0.8,1.4,0.3,3.3-1.1,4.1l-77.9,45c-1.4,0.8-3.3,0.3-4.1-1.1h0c-0.8-1.4-0.3-3.3,1.1-4.1
	l77.9-45C80.9,44.6,82.7,45.1,83.6,46.5z"/>
</svg>
