<?xml version="1.0" encoding="utf-8"?>
<!-- Generator: Adobe Illustrator 22.1.0, SVG Export Plug-In . SVG Version: 6.00 Build 0)  -->
<svg version="1.1" id="Layer_1" xmlns="http://www.w3.org/2000/svg" xmlns:xlink="http://www.w3.org/1999/xlink" x="0px" y="0px"
	 viewBox="0 0 95.3 96" style="enable-background:new 0 0 95.3 96;" xml:space="preserve">

<path class="st0" d="M81.3,81.9C72.3,91,60.3,96,47.6,96c-12.7,0-24.7-5-33.7-14.1c-18.6-18.7-18.6-49.2,0-67.9
	C22.9,5,34.9,0,47.6,0c12.7,0,24.7,5,33.7,14.1c9,9.1,14,21.1,14,33.9C95.3,60.8,90.3,72.9,81.3,81.9z M78.5,16.9
	C70.3,8.6,59.3,4,47.6,4C35.9,4,24.9,8.6,16.7,16.9c-17,17.2-17,45.1,0,62.2C24.9,87.4,35.9,92,47.6,92c11.7,0,22.7-4.6,30.9-12.9
	S91.3,59.8,91.3,48S86.8,25.2,78.5,16.9z M69.5,50H49.6v20c0,1.1-0.9,2-2,2s-2-0.9-2-2V50H25.7c-1.1,0-2-0.9-2-2s0.9-2,2-2h19.9V26
	c0-1.1,0.9-2,2-2s2,0.9,2,2v20h19.9c1.1,0,2,0.9,2,2S70.6,50,69.5,50z"/>
</svg>
