<?xml version="1.0" encoding="utf-8"?>
<!-- Generator: Adobe Illustrator 22.1.0, SVG Export Plug-In . SVG Version: 6.00 Build 0)  -->
<svg version="1.1" id="Layer_1" xmlns="http://www.w3.org/2000/svg" xmlns:xlink="http://www.w3.org/1999/xlink" x="0px" y="0px"
	 viewBox="0 0 72 96" style="enable-background:new 0 0 72 96;" xml:space="preserve">

<path class="st0" d="M37.3,95.5C36.9,95.8,36.5,96,36,96c-0.5,0-0.9-0.2-1.3-0.5C33.3,94.3,0,65.9,0,35.6C0,16,16.1,0,36,0
	s36,16,36,35.6C72,65.9,38.7,94.3,37.3,95.5z M36,4C18.4,4,4,18.2,4,35.6c0,25.1,25.9,50.1,32,55.7c6.1-5.6,32-30.6,32-55.7
	C68,18.2,53.6,4,36,4z M36,54c-9.9,0-18-8.1-18-18s8.1-18,18-18s18,8.1,18,18S45.9,54,36,54z M36,22c-7.7,0-14,6.3-14,14
	s6.3,14,14,14s14-6.3,14-14S43.7,22,36,22z"/>
</svg>
