<?xml version="1.0" encoding="utf-8"?>
<!-- Generator: Adobe Illustrator 22.1.0, SVG Export Plug-In . SVG Version: 6.00 Build 0)  -->
<svg version="1.1" id="Layer_1" xmlns="http://www.w3.org/2000/svg" xmlns:xlink="http://www.w3.org/1999/xlink" x="0px" y="0px"
	 viewBox="0 0 96 96" style="enable-background:new 0 0 96 96;" xml:space="preserve">

<path class="st0" d="M48,96C21.5,96,0,74.5,0,48S21.5,0,48,0s48,21.5,48,48S74.5,96,48,96z M48,92c11.4,0,21.8-4.4,29.6-11.6
	L15.6,18.4C8.4,26.2,4,36.6,4,48C4,72.3,23.7,92,48,92z M48,4C36.6,4,26.2,8.4,18.4,15.6l62.1,62.1C87.6,69.8,92,59.4,92,48
	C92,23.7,72.3,4,48,4z"/>
</svg>
