<?xml version="1.0" encoding="utf-8"?>
<!-- Generator: Adobe Illustrator 22.1.0, SVG Export Plug-In . SVG Version: 6.00 Build 0)  -->
<svg version="1.1" id="Layer_1" xmlns="http://www.w3.org/2000/svg" xmlns:xlink="http://www.w3.org/1999/xlink" x="0px" y="0px"
	 viewBox="0 0 96 90" style="enable-background:new 0 0 96 90;" xml:space="preserve">

<path class="st0" d="M94,43.9h-4V85c0,3.7-2.2,5-4.3,5H12.2C10.9,90,8,89.5,8,85V43.9H2c-1.1,0-2-0.9-2-2V27.1C0,24.2,3.3,22,6,22
	h13.3c-3.6-2.7-6.4-6.8-6.4-12c0-10,9-10,12-10c3.7,0,14.8,3.7,24,19.8C58.1,3.7,69.2,0,72.9,0c3,0,12,0,12,10c0,5.2-2.7,9.3-6.4,12
	H92c1,0,4,0.2,4,5.1v14.8C96,43,95.1,43.9,94,43.9z M50,86h35.7c0.1,0,0.2,0,0.2,0c0,0,0.1-0.3,0.1-1V43.9H50V86z M12,85
	c0,0.6,0.1,0.8,0.1,1c0,0,0,0,0,0c0,0,0.1,0,0.1,0H46V43.9H12V85z M5.9,25.9c-0.8,0-1.9,0.8-2,1.2L4,40h6h36V25.9H31.7
	c-0.2,0.1-0.5,0.2-0.8,0.2c-0.7,0-1.4-0.1-2.2-0.2L5.9,25.9z M24.9,4c-4.9,0-8,1-8,6c0,7.5,8,11.5,13.1,12h15.6
	C37.2,7.2,27.3,4,24.9,4z M80.9,10c0-5-3.1-6-8-6c-2.3,0-12.3,3.2-20.6,18h15.6C73,21.6,80.9,17.6,80.9,10z M92,27.1
	c0-0.7-0.1-1-0.1-1.2H69.1c-0.7,0.1-1.5,0.2-2.2,0.2c-0.3,0-0.5-0.1-0.8-0.2l-16.1,0V40h38h4V27.1z"/>
</svg>
