<?xml version="1.0" encoding="utf-8"?>
<!-- Generator: Adobe Illustrator 22.1.0, SVG Export Plug-In . SVG Version: 6.00 Build 0)  -->
<svg version="1.1" id="Layer_1" xmlns="http://www.w3.org/2000/svg" xmlns:xlink="http://www.w3.org/1999/xlink" x="0px" y="0px"
	 viewBox="0 0 96 96" style="enable-background:new 0 0 96 96;" xml:space="preserve">

<path class="st0" d="M90.9,76H76v18c0,1.1-0.9,2-2,2H22c-1.1,0-2-0.9-2-2V76H5.1C2.3,76,0,73.8,0,71V29c0-2.8,2.3-5,5.1-5H20V2
	c0-1.1,0.9-2,2-2h52c1.1,0,2,0.9,2,2v22h14.9c2.8,0,5.1,2.2,5.1,5v42C96,73.8,93.7,76,90.9,76z M24,92h48V56H24V92z M72,4H24v20h48
	V4z M92,29c0-0.5-0.5-1-1.1-1H74H22H5.1C4.5,28,4,28.5,4,29v42c0,0.5,0.5,1,1.1,1H20V54c0-1.1,0.9-2,2-2h52c1.1,0,2,0.9,2,2v18h14.9
	c0.6,0,1.1-0.5,1.1-1V29z M78,40h-4c-1.1,0-2-0.9-2-2s0.9-2,2-2h4c1.1,0,2,0.9,2,2S79.1,40,78,40z"/>
</svg>
