<svg xmlns="http://www.w3.org/2000/svg" viewBox="0 0 512 546.207">
  <g id="box_1_" data-name="box (1)" transform="translate(-16.032 0)">
    <g id="Group_970" data-name="Group 970" transform="translate(16.032 -0.001)">
      <g id="Group_969" data-name="Group 969" transform="translate(0)">
        <path id="Path_5105" data-name="Path 5105" d="M523.51,120.519,275.511.795a8,8,0,0,0-6.957,0l-248,119.724a8,8,0,0,0-4.522,7.205V418.481a8,8,0,0,0,4.522,7.205l248,119.724a8,8,0,0,0,6.958,0l248-119.724a8,8,0,0,0,4.522-7.205V127.725A8,8,0,0,0,523.51,120.519ZM272.032,16.885l229.6,110.838-66.555,32.13a7.933,7.933,0,0,0-1.355-.853L205.682,48.916Zm-84.42,41.077L416.874,168.64l-46.956,22.669L140.752,80.676ZM422.238,183.819v83.794l-43.86,21.174V204.993ZM512.03,413.461l-232,112V252.469l98.345-47.476c3.979-1.921-4.26.192-6.182-3.788s2.162-11.818-1.818-9.9l-98.346,47.254-22.185-10.711a8,8,0,0,0-10.684,3.726c-1.921,3.979-.963,8.121,3.016,10.043l21.852,10.848V525.457l-232-112V140.471L208.7,225.757c1.121.542,54.167,26.712,55.333,26.712,2.974,0,6.622-3.545,8-6.4,1.921-3.979,3.979-5.582,0-7.5L42.437,127.724l79.483-38.371L362.265,205.382c.035.049.075.093.111.141v96.012a8,8,0,0,0,11.48,7.205l59.862-28.9a8,8,0,0,0,4.522-7.205V176.1l73.79-35.623Z" transform="translate(-16.032 0)"/>
      </g>
    </g>
    <g id="Group_972" data-name="Group 972" transform="translate(50.187 364.061)">
      <g id="Group_971" data-name="Group 971">
        <path id="Path_5106" data-name="Path 5106" d="M95.924,359.63,59.53,342.06a8,8,0,0,0-6.958,14.411l36.394,17.57a8,8,0,0,0,6.958-14.411Z" transform="translate(-48.048 -341.261)"/>
      </g>
    </g>
    <g id="Group_974" data-name="Group 974" transform="translate(50.238 326.113)">
      <g id="Group_973" data-name="Group 973" transform="translate(0)">
        <path id="Path_5107" data-name="Path 5107" d="M129.416,340.2,59.577,306.487A8,8,0,0,0,52.62,320.9l69.839,33.716a8,8,0,0,0,6.957-14.412Z" transform="translate(-48.096 -305.69)"/>
      </g>
    </g>
  </g>
</svg>
