<?xml version="1.0" encoding="utf-8"?>
<!-- Generator: Adobe Illustrator 22.1.0, SVG Export Plug-In . SVG Version: 6.00 Build 0)  -->
<svg version="1.1" id="Layer_1" xmlns="http://www.w3.org/2000/svg" xmlns:xlink="http://www.w3.org/1999/xlink" x="0px" y="0px"
	 viewBox="0 0 95.2 96" style="enable-background:new 0 0 95.2 96;" xml:space="preserve">

<path class="st0" d="M82,35l8.8,8.4c3.2,3.3,3.2,8.5,0,11.8L52.1,93.6c-1.6,1.6-3.7,2.4-5.8,2.4c-2.1,0-4.2-0.8-5.8-2.4L2.4,55.2
	c-3.2-3.2-3.2-8.5,0-11.7l6.8-7.3c1.7-1.7,3.7-2.4,5.7-2.1c2,0.4,3.6,1.8,4.6,3.9c0.1,0.2,4,10,11.2,10c8.4,0,15-6.3,15-14.4
	c0-7.3-9.9-11.3-10-11.4c-2.2-1-3.6-2.7-4-4.6c-0.4-2,0.4-4,2-5.7l6.7-7.4C42,2.9,44.1,2,46.3,2c2.2,0,4.3,0.9,5.8,2.4l8.4,8.9
	C62.5,5.7,69.4,0,77.6,0c9.7,0,17.6,8,17.6,17.8C95.2,26,89.6,33,82,35z M77.6,4c-7.5,0-13.7,6.2-13.7,13.8c0,0,0,0,0,0
	c0,0.1,0,0.3-0.1,0.4c0,0.1,0,0.3-0.1,0.4c0,0,0,0.1-0.1,0.1c-0.1,0.2-0.2,0.4-0.4,0.6c0,0,0,0,0,0c0,0-0.1,0.1-0.2,0.1
	c-0.1,0.1-0.3,0.2-0.5,0.3c-0.1,0.1-0.3,0.1-0.4,0.1c-0.1,0-0.2,0.1-0.3,0.1c0,0,0,0,0,0c-0.2,0-0.3-0.1-0.5-0.1
	c-0.1,0-0.2,0-0.3-0.1c-0.1,0-0.1-0.1-0.2-0.1c-0.2-0.1-0.3-0.2-0.4-0.3c0,0,0,0,0,0L49.3,7.2c-1.5-1.5-4.4-1.6-6,0l-6.7,7.4
	c-0.8,0.8-1.1,1.5-1,2.2c0.1,0.7,0.7,1.3,1.6,1.7c0.4,0.2,12.4,5.1,12.4,15.1c0,10.3-8.4,18.4-19,18.4c-9.9,0-14.6-11.9-14.8-12.5
	c-0.4-0.8-1-1.4-1.6-1.5c-0.7-0.1-1.4,0.2-2.1,0.9l-6.8,7.3c-1.7,1.7-1.7,4.5,0,6.1l38.1,38.4c1.7,1.7,4.4,1.7,6,0L88,52.3
	c1.7-1.7,1.7-4.4,0-6.1L76.2,35c0,0,0,0,0,0c-0.1-0.1-0.2-0.3-0.3-0.4c0-0.1-0.1-0.1-0.1-0.2c0-0.1,0-0.2-0.1-0.2
	c0-0.2-0.1-0.3-0.1-0.5c0,0,0,0,0,0c0-0.1,0-0.2,0.1-0.3c0-0.2,0-0.3,0.1-0.5c0.1-0.2,0.2-0.3,0.2-0.4c0.1-0.1,0.1-0.2,0.1-0.2
	c0,0,0,0,0,0c0.1-0.1,0.3-0.2,0.4-0.3c0.1,0,0.1-0.1,0.2-0.2c0.1,0,0.1,0,0.2,0c0.2-0.1,0.4-0.1,0.5-0.1c0,0,0,0,0,0
	c7.5,0,13.7-6.2,13.7-13.8C91.3,10.2,85.1,4,77.6,4z"/>
</svg>
