<svg xmlns="http://www.w3.org/2000/svg" viewBox="0 0 20 20.168">
  <path id="puzzle" d="M17.227,7.353l1.849,1.765a1.776,1.776,0,0,1,0,2.479l-8.13,8.067a1.724,1.724,0,0,1-2.437,0L.5,11.6a1.75,1.75,0,0,1,0-2.458L1.933,7.605a1.38,1.38,0,0,1,1.2-.441,1.385,1.385,0,0,1,.966.819c.021.042.84,2.1,2.353,2.1A3.055,3.055,0,0,0,9.6,7.059c0-1.534-2.08-2.374-2.1-2.395A1.407,1.407,0,0,1,6.66,3.7a1.362,1.362,0,0,1,.42-1.2L8.487.945A1.751,1.751,0,0,1,9.727.42a1.733,1.733,0,0,1,1.218.5l1.765,1.87a3.709,3.709,0,1,1,4.517,4.559Zm-.966-.693Z" fill="#30dbb4"/>
</svg>
