<?xml version="1.0" encoding="utf-8"?>
<!-- Generator: Adobe Illustrator 22.1.0, SVG Export Plug-In . SVG Version: 6.00 Build 0)  -->
<svg version="1.1" id="Layer_1" xmlns="http://www.w3.org/2000/svg" xmlns:xlink="http://www.w3.org/1999/xlink" x="0px" y="0px"
	 viewBox="0 0 96 96" style="enable-background:new 0 0 96 96;" xml:space="preserve">

<path class="st0" d="M48,96C21.5,96,0,74.5,0,48S21.5,0,48,0s48,21.5,48,48S74.5,96,48,96z M48,4C23.7,4,4,23.7,4,48s19.7,44,44,44
	s44-19.7,44-44S72.3,4,48,4z M56.3,48C49.6,53.5,50,59.6,50,59.8c0.1,1.1-0.7,2.1-1.8,2.1c-0.1,0-0.1,0-0.2,0c-1,0-1.9-0.8-2-1.8
	c0-0.3-0.6-8.4,7.8-15.2c3-2.5,4.2-4.8,4.2-8.5C58,30.7,53.5,26,48,26c-5.6,0-10,4.4-10,10c0,1.1-0.9,2-2,2s-2-0.9-2-2
	c0-7.9,6.1-14,14-14c7.7,0,14,6.5,14,14.4C62,41.3,60.3,44.8,56.3,48z M48,68c2.2,0,4,1.8,4,4s-1.8,4-4,4s-4-1.8-4-4S45.8,68,48,68z
	"/>
</svg>
