<?xml version="1.0" encoding="utf-8"?>
<!-- Generator: Adobe Illustrator 22.1.0, SVG Export Plug-In . SVG Version: 6.00 Build 0)  -->
<svg version="1.1" id="Layer_1" xmlns="http://www.w3.org/2000/svg" xmlns:xlink="http://www.w3.org/1999/xlink" x="0px" y="0px"
	 viewBox="0 0 80 95.7" style="enable-background:new 0 0 80 95.7;" xml:space="preserve">

<path class="st0" d="M80,47.7c0,17.5-11.4,33-27.6,37.9c-0.2,0.1-0.4,0.1-0.6,0.1c-0.9,0-1.7-0.6-1.9-1.4c-0.3-1.1,0.3-2.2,1.3-2.5
	C65.8,77.4,76,63.4,76,47.7c0-16.8-11.1-30.1-27.4-33.3l7.1,10.4c0.6,0.9,0.4,2.2-0.5,2.8c-0.3,0.2-0.7,0.3-1.1,0.3
	c-0.6,0-1.3-0.3-1.7-0.9l-10-14.7c-0.3-0.5-0.4-1-0.3-1.6c0.1-0.5,0.5-1,1-1.3l16-9.2C60-0.3,61.2,0,61.7,1c0.6,1,0.2,2.2-0.7,2.7
	l-11.7,6.8C67.2,14,80,29.2,80,47.7z M37,86.2l-16,9.2c-0.3,0.2-0.7,0.3-1,0.3c-0.7,0-1.4-0.4-1.7-1c-0.6-1-0.2-2.2,0.7-2.7
	l11.7-6.8C12.8,81.6,0,66.4,0,48C0,30.5,11.4,14.9,27.6,10c1.1-0.3,2.2,0.3,2.5,1.3c0.3,1.1-0.3,2.2-1.3,2.5C14.2,18.2,4,32.2,4,48
	c0,16.8,11.1,30.1,27.4,33.3l-7.1-10.4c-0.6-0.9-0.4-2.2,0.5-2.8c0.9-0.6,2.2-0.4,2.8,0.5l10,14.7c0.3,0.5,0.4,1,0.3,1.6
	C37.8,85.5,37.5,85.9,37,86.2z"/>
</svg>
