<?xml version="1.0" encoding="utf-8"?>
<!-- Generator: Adobe Illustrator 22.1.0, SVG Export Plug-In . SVG Version: 6.00 Build 0)  -->
<svg version="1.1" id="Layer_1" xmlns="http://www.w3.org/2000/svg" xmlns:xlink="http://www.w3.org/1999/xlink" x="0px" y="0px"
	 viewBox="0 0 88 96" style="enable-background:new 0 0 88 96;" xml:space="preserve">

<path class="st0" d="M68.5,81.4c-0.9,0.6-2.2,0.4-2.8-0.5c-0.6-0.9-0.4-2.2,0.5-2.8C77,70.8,84,57.4,84,44C84,21.9,66.1,4,44,4
	S4,21.9,4,44s17.9,40,40,40c0.5,0,1.1-0.1,1.6-0.1l-5.2-6.7c-0.7-0.9-0.5-2.1,0.4-2.8c0.9-0.7,2.1-0.5,2.8,0.4l8,10.3
	c0.3,0.4,0.5,1,0.4,1.6c-0.1,0.6-0.4,1-0.9,1.3l-12,7.7C38.7,95.9,38.4,96,38,96c-0.7,0-1.3-0.3-1.7-0.9c-0.6-0.9-0.3-2.2,0.6-2.8
	l6.8-4.3C19.6,87.8,0,68.2,0,44C0,19.7,19.7,0,44,0s44,19.7,44,44C88,58.6,80.3,73.3,68.5,81.4z"/>
</svg>
