<?xml version="1.0" encoding="utf-8"?>
<!-- Generator: Adobe Illustrator 24.2.1, SVG Export Plug-In . SVG Version: 6.00 Build 0)  -->
<svg version="1.1" id="Layer_1" xmlns="http://www.w3.org/2000/svg" xmlns:xlink="http://www.w3.org/1999/xlink" x="0px" y="0px"
	 viewBox="0 0 118.9 99.5" style="enable-background:new 0 0 118.9 99.5;" xml:space="preserve">
<g>
	<path d="M118.3,14.8L104.1,0.6c-0.4-0.4-0.9-0.6-1.4-0.6H48.9c-1.1,0-2,0.9-2,2v12.5c-1.9,1.2-3.7,2.6-5.3,4.2
		c-10.8,10.8-11.8,27.7-3,39.6L0.5,96.5c-0.7,0.7-0.7,1.8,0,2.5c0.3,0.3,0.8,0.5,1.3,0.5s0.9-0.2,1.3-0.5l37.9-37.9
		c0.2,0.2,0.4,0.5,0.7,0.7c1.6,1.6,3.4,3,5.3,4.2v28.3c0,1.1,0.9,2,2,2h68c1.1,0,2-0.9,2-2V16.2C118.9,15.7,118.7,15.1,118.3,14.8z
		 M44.4,21.6c5-5,11.6-7.8,18.7-7.8s13.7,2.8,18.7,7.8s7.8,11.6,7.8,18.7S86.9,54,81.9,59c-8.6,8.6-21.7,10-31.8,4.3
		c-0.1-0.1-0.3-0.2-0.4-0.2C47.8,62,46,60.6,44.4,59C34.1,48.7,34.1,31.9,44.4,21.6z M114.9,92.4h-64V68.2c3.9,1.7,8.1,2.6,12.2,2.6
		c5.7,0,11.5-1.6,16.5-4.8h23.3c1.1,0,2-0.9,2-2s-0.9-2-2-2H84.6c0,0,0.1-0.1,0.1-0.1c3.2-3.2,5.5-6.9,7-11h11.2c1.1,0,2-0.9,2-2
		s-0.9-2-2-2h-10c0.5-2.1,0.7-4.4,0.7-6.6c0-1.5-0.1-3-0.3-4.4h9.6c1.1,0,2-0.9,2-2s-0.9-2-2-2H92.4c-1.2-4-3.1-7.8-5.9-11h12.8
		c1.1,0,2-0.9,2-2s-0.9-2-2-2H82.6c-5.5-4.5-12.3-7-19.4-7c-4.3,0-8.4,0.9-12.2,2.6V4h51l13,13V92.4z"/>
	<path d="M102.9,77h-40c-1.1,0-2,0.9-2,2s0.9,2,2,2h40c1.1,0,2-0.9,2-2S104,77,102.9,77z"/>
	<path d="M57,51.3c0.4,0.4,0.9,0.6,1.4,0.6s1-0.2,1.4-0.6l19-19c0.8-0.8,0.8-2,0-2.8c-0.8-0.8-2-0.8-2.8,0L58.4,47.1L50.3,39
		c-0.8-0.8-2-0.8-2.8,0c-0.8,0.8-0.8,2,0,2.8L57,51.3z"/>
</g>
</svg>
