<?xml version="1.0" encoding="utf-8"?>
<!-- Generator: Adobe Illustrator 22.1.0, SVG Export Plug-In . SVG Version: 6.00 Build 0)  -->
<svg version="1.1" id="Layer_1" xmlns="http://www.w3.org/2000/svg" xmlns:xlink="http://www.w3.org/1999/xlink" x="0px" y="0px"
	 viewBox="0 0 96 72" style="enable-background:new 0 0 96 72;" xml:space="preserve">

<path class="st0" d="M92.6,72c-0.8,0-1.6-0.3-2.3-0.8L58,51.9v16.2c0,0.8,0,1.3-0.1,1.8c-0.3,1.6-1.5,2.1-2.4,2.1l0,0
	c-0.8,0-1.5-0.4-2-0.8L2,38.3c-1.3-0.8-2-2.1-2-3.4c0-1.3,0.8-2.5,2-3.3L53.5,0.7c0.5-0.3,1.2-0.7,2-0.7c0.9,0,2.1,0.6,2.4,2.1
	C58,2.6,58,3.2,58,3.9v16.2L90.3,0.7C91.1,0.2,91.8,0,92.6,0C94.2,0,96,1.2,96,4v64.1C96,70.8,94.2,72,92.6,72z M56,46.4
	c0.4,0,0.7,0.1,1,0.3l35,20.9V4.3l-35,21c-0.6,0.4-1.4,0.4-2,0c-0.6-0.4-1-1-1-1.7V5.1L4.2,34.9L54,66.8V48.4c0-0.7,0.4-1.4,1-1.7
	C55.3,46.5,55.7,46.4,56,46.4z"/>
</svg>
