<?xml version="1.0" encoding="utf-8"?>
<!-- Generator: Adobe Illustrator 22.1.0, SVG Export Plug-In . SVG Version: 6.00 Build 0)  -->
<svg version="1.1" id="Layer_1" xmlns="http://www.w3.org/2000/svg" xmlns:xlink="http://www.w3.org/1999/xlink" x="0px" y="0px"
	 viewBox="0 0 96 96" style="enable-background:new 0 0 96 96;" xml:space="preserve">

<path class="st0" d="M48,96C21.5,96,0,74.5,0,48S21.5,0,48,0s48,21.5,48,48S74.5,96,48,96z M48,4C23.7,4,4,23.7,4,48s19.7,44,44,44
	s44-19.7,44-44S72.3,4,48,4z M71.8,48.8c-0.1,0.2-0.2,0.5-0.4,0.7l-12,12C59,61.8,58.5,62,58,62s-1-0.2-1.4-0.6
	c-0.8-0.8-0.8-2,0-2.8l8.6-8.6H26c-1.1,0-2-0.9-2-2s0.9-2,2-2h39.2l-8.6-8.6c-0.8-0.8-0.8-2,0-2.8c0.8-0.8,2-0.8,2.8,0l12,12
	c0.2,0.2,0.3,0.4,0.4,0.7C72,47.7,72,48.3,71.8,48.8z"/>
</svg>
