<?xml version="1.0" encoding="utf-8"?>
<!-- Generator: Adobe Illustrator 22.1.0, SVG Export Plug-In . SVG Version: 6.00 Build 0)  -->
<svg version="1.1" id="Layer_1" xmlns="http://www.w3.org/2000/svg" xmlns:xlink="http://www.w3.org/1999/xlink" x="0px" y="0px"
	 viewBox="0 0 95.2 96" style="enable-background:new 0 0 95.2 96;" xml:space="preserve">

<path class="st0" d="M87.8,44C74.8,56.8,64.4,62.2,53.6,67.6v14.1c0,0.5-0.2,0.9-0.5,1.3L43,95.3c-0.4,0.5-0.9,0.7-1.5,0.7
	c-0.1,0-0.2,0-0.4,0c-0.7-0.1-1.3-0.6-1.5-1.3l-5.9-18L19.1,62L1.3,56c-0.7-0.2-1.2-0.8-1.3-1.5c-0.1-0.7,0.1-1.4,0.7-1.9l12.2-10.1
	c0.4-0.3,0.8-0.5,1.3-0.5h14c5.4-11,10.7-21.4,23.5-34.5C57.7,1.3,71.1,0,81.4,0c6.5,0,11.4,0.5,11.6,0.5c0.9,0.1,1.7,0.8,1.8,1.8
	C94.8,3.6,97.9,33.9,87.8,44z M90.9,4.4C89,4.2,85.5,4,81.4,4c-13.4,0-23,2.3-27,6.3c-12.7,13-17.9,23.5-23.3,34.5
	c-0.3,0.7-1,1.1-1.8,1.1H14.8L6,53.4l14.9,5c0.3,0.1,0.6,0.3,0.8,0.5l15.2,15.3c0.2,0.2,0.4,0.5,0.5,0.8l5,15l7.3-8.9V66.4
	c0-0.8,0.4-1.5,1.1-1.8C61.7,59.1,72.1,54,85,41.1C91.8,34.3,91.7,13.7,90.9,4.4z M65.5,42c-6.6,0-11.9-5.4-11.9-12
	c0-6.6,5.3-12,11.9-12s11.9,5.4,11.9,12C77.4,36.6,72,42,65.5,42z M65.5,22c-4.4,0-7.9,3.6-7.9,8s3.6,8,7.9,8s7.9-3.6,7.9-8
	S69.8,22,65.5,22z M17,70.1c1.1-0.3,2.1,0.4,2.4,1.4c0.3,1.1-0.4,2.2-1.4,2.4c-2,0.5-7.9,2.5-10.5,5.1C5.7,81,4.5,87.3,4.1,92
	c5.1-0.1,11.7-1,13.5-2.8c2.5-2.6,3.9-8.9,4.2-11.2c0.2-1.1,1.2-1.8,2.2-1.7c1.1,0.2,1.8,1.2,1.7,2.3c-0.1,1-1.4,9.5-5.4,13.4
	c-3.7,3.7-14.3,4-17.8,4c-0.3,0-0.5,0-0.7,0c-0.5,0-1.1-0.2-1.4-0.6C0.1,95-0.1,94.4,0,93.9C0,92.5,0.8,80.3,4.8,76.2
	C8.7,72.3,16.7,70.2,17,70.1z"/>
</svg>
