<svg xmlns="http://www.w3.org/2000/svg" viewBox="0 0 54.359 54.555">
  <g id="Group_160791" data-name="Group 160791" transform="translate(-9749.355 -3416.942)">
    <g id="save_icon" transform="translate(9711.74 3386.374)">
      <path id="Path_37768" data-name="Path 37768" d="M77.226,30.184l-11.5-11.5a1.461,1.461,0,0,0-.983-.393H24.636a1.374,1.374,0,0,0-1.376,1.376v51.8a1.374,1.374,0,0,0,1.376,1.376H76.243a1.374,1.374,0,0,0,1.376-1.376v-40.3A1.461,1.461,0,0,0,77.226,30.184ZM34.515,21.042H60.54v14.45H34.515Zm31.75,49.05H34.613V47.14H66.265Zm8.6,0H69.018V45.764a1.374,1.374,0,0,0-1.376-1.376h-34.4a1.374,1.374,0,0,0-1.376,1.376V70.093H26.012V21.042h5.75V36.868a1.374,1.374,0,0,0,1.376,1.376H61.916a1.374,1.374,0,0,0,1.376-1.376V21.042h.885l10.69,10.69Z" transform="translate(14.356 12.278)" fill="#179bd7"/>
      <path id="Path_37769" data-name="Path 37769" d="M31.421,34.772H45.935a1.161,1.161,0,1,0,0-2.322H31.421a1.161,1.161,0,1,0,0,2.322Z" transform="translate(26.116 31.74)" fill="#179bd7"/>
      <path id="Path_37770" data-name="Path 37770" d="M31.421,38.382H45.935a1.161,1.161,0,1,0,0-2.322H31.421a1.161,1.161,0,0,0,0,2.322Z" transform="translate(26.116 35.615)" fill="#179bd7"/>
      <path id="Path_37771" data-name="Path 37771" d="M36.671,20.69a1.159,1.159,0,0,0-1.161,1.161v4.561a1.161,1.161,0,0,0,2.322,0V21.851A1.159,1.159,0,0,0,36.671,20.69Z" transform="translate(31.751 19.119)" fill="#179bd7"/>
    </g>
  </g>
</svg>
