<?xml version="1.0" encoding="utf-8"?>
<!-- Generator: Adobe Illustrator 24.1.0, SVG Export Plug-In . SVG Version: 6.00 Build 0)  -->
<svg version="1.1" id="Layer_1" xmlns="http://www.w3.org/2000/svg" xmlns:xlink="http://www.w3.org/1999/xlink" x="0px" y="0px"
	 viewBox="0 0 86.3 111" style="enable-background:new 0 0 86.3 111;" xml:space="preserve">
<style type="text/css">
	.scanner{fill:#000000;stroke:#000000;stroke-linejoin:round;stroke-miterlimit:10;}
</style>
<g>
	<g>
		<path d="M28.3,111c-0.7,0-1.4,0-2.1-0.4l-18.6-5c-2.5-0.7-4.3-2.1-5.7-4.3c-1.1-2.1-1.4-4.7-0.7-7.2l16.5-49.8L6.1,37.6
			C2.2,35.4-0.3,31.1,0,26.5L0.4,15c0-6.1,5-11.5,11.5-11.8L76.6,0c2.5,0,5,0.7,6.8,2.5s2.9,3.9,2.9,6.4V34c0,5-3.9,9-8.9,9H58
			l-20.4,61.2C35.5,108.5,32.3,111,28.3,111z M11.8,7.5c-4.3,0.4-7.5,3.6-7.5,7.9L4,26.9c0,3.2,1.4,6.1,4.3,7.5l12.9,7.5
			c0.7,0.4,1.1,1.4,1.1,2.5L5.4,95.6C5,97,5,98.4,5.8,99.5s1.8,2.1,3.2,2.5l18.3,4.7c2.5,0.7,5-0.7,6.1-3.2l21.1-62.6
			c0.4-0.7,1.1-1.4,1.8-1.4H77c2.9,0,5-2.1,5-5V9.3c0-1.4-0.7-2.5-1.4-3.6c-1.1-1.1-2.1-1.4-3.6-1.4L11.8,7.5z"/>
	</g>
	<g>
		<path class="scanner" d="M69.1,3.2"/>
	</g>
	<g>
		<path d="M50.2,88.1h-9.3v-3.9h9.3c0.4,0,0.7-0.4,0.7-0.7V65.2c0-0.4-0.4-0.7-0.7-0.7v-3.9c2.5,0,5,2.1,5,5v18.3
			C55.2,85.9,53,88.1,50.2,88.1z"/>
	</g>
	<g>
		<rect x="66.3" y="2.9" width="3.9" height="38.3"/>
	</g>
	<g>
		<rect x="2.2" y="20" width="65.9" height="3.9"/>
	</g>
</g>
</svg>
