<svg xmlns="http://www.w3.org/2000/svg" viewBox="0 0 238.436 193.639">
  <g id="shop_1_" data-name="shop (1)" transform="translate(0 -48.096)">
    <g id="Group_935" data-name="Group 935" transform="translate(0 48.096)">
      <g id="Group_934" data-name="Group 934">
        <path id="Path_5087" data-name="Path 5087" d="M227.477,234.75H223.5V131.131a32.418,32.418,0,0,0,14.932-27.279,3.5,3.5,0,0,0-.46-1.733l-27.715-48.5a10.984,10.984,0,0,0-9.515-5.522H37.69a10.983,10.983,0,0,0-9.515,5.522L.46,102.119A3.5,3.5,0,0,0,0,103.852a32.419,32.419,0,0,0,14.932,27.279V234.75H10.959a3.493,3.493,0,0,0,0,6.985H227.477a3.493,3.493,0,0,0,0-6.985ZM7.226,107.345h11.2a3.493,3.493,0,1,0,0-6.985H9.511L34.24,57.083a3.982,3.982,0,0,1,3.45-2H200.746a3.982,3.982,0,0,1,3.45,2l24.728,43.276H220.01a3.493,3.493,0,1,0,0,6.985h11.2a25.436,25.436,0,0,1-50.391,0h43.928c1.929,0,0-1.564,0-3.493s.687-3.493-1.243-3.493H18.423a3.492,3.492,0,0,0-3.491,3.493c0,1.929-1.929,3.493,0,3.493H57.617a25.436,25.436,0,0,1-50.391,0Zm166.116,0a25.433,25.433,0,0,1-50.385,0Zm-57.863,0a25.433,25.433,0,0,1-50.385,0ZM197.853,234.75H160.041V223.07h37.811Zm0-18.666H160.041V152.142h37.811Zm18.666,18.666h-11.68v-86.1a3.493,3.493,0,0,0-3.493-3.493h-44.8a3.493,3.493,0,0,0-3.493,3.493v86.1H21.917V134.519a32.391,32.391,0,0,0,39.438-16.036,32.418,32.418,0,0,0,57.863,0,32.418,32.418,0,0,0,57.863,0,32.392,32.392,0,0,0,39.438,16.036Z" transform="translate(0 -48.096)"/>
      </g>
    </g>
    <g id="Group_937" data-name="Group 937" transform="translate(33.598 145.156)">
      <g id="Group_936" data-name="Group 936">
        <path id="Path_5088" data-name="Path 5088" d="M176.431,256.516H75.638a3.493,3.493,0,0,0-3.493,3.493v70.929a3.493,3.493,0,0,0,3.493,3.493H176.431a3.493,3.493,0,0,0,3.493-3.493V260.009A3.492,3.492,0,0,0,176.431,256.516Zm-3.493,70.929H79.13V263.5h93.808Z" transform="translate(-72.145 -256.516)"/>
      </g>
    </g>
  </g>
</svg>
