<?xml version="1.0" encoding="utf-8"?>
<!-- Generator: Adobe Illustrator 22.1.0, SVG Export Plug-In . SVG Version: 6.00 Build 0)  -->
<svg version="1.1" id="Layer_1" xmlns="http://www.w3.org/2000/svg" xmlns:xlink="http://www.w3.org/1999/xlink" x="0px" y="0px"
	 viewBox="0 0 72 95.9" style="enable-background:new 0 0 72 95.9;" xml:space="preserve">

<path class="st0" d="M72,28c0,0.1,0,0.1,0,0.2v63.6c0,2.2-1.8,4-4,4H4.1C1.9,95.8,0,94,0,91.7V4.1C0,1.9,1.8,0,4.1,0H44
	c0.1,0,0.2,0,0.3,0s0.2,0,0.3,0.1c0.3,0.1,0.7,0.2,0.9,0.5l25.8,25.7c0.1,0,0.1,0.1,0.2,0.2s0.1,0.1,0.2,0.2
	C71.8,27.1,72,27.5,72,28z M4,3.9v87.9l64,0.1v-62H44c-1.1,0-2-0.8-2-1.9V3.9H4z M46,6.8V26h19.2L46,6.8z"/>
<path class="st0" d="M34.7,13.3h-24c-1.1,0-2-0.9-2-2V11c0-1.1,0.9-2,2-2h24c1.1,0,2,0.9,2,2v0.3C36.7,12.4,35.8,13.3,34.7,13.3z"/>
<path class="st0" d="M34.7,22.5h-24c-1.1,0-2-0.9-2-2v-0.3c0-1.1,0.9-2,2-2h24c1.1,0,2,0.9,2,2v0.3C36.7,21.6,35.8,22.5,34.7,22.5z"
	/>
<path class="st0" d="M34.7,31.8h-24c-1.1,0-2-0.9-2-2v-0.3c0-1.1,0.9-2,2-2h24c1.1,0,2,0.9,2,2v0.3C36.7,30.9,35.8,31.8,34.7,31.8z"
	/>
<path class="st0" d="M61.2,41H10.7c-1.1,0-2-0.9-2-2v-0.3c0-1.1,0.9-2,2-2h50.5c1.1,0,2,0.9,2,2V39C63.2,40.1,62.3,41,61.2,41z"/>
<path class="st0" d="M61.2,50H10.7c-1.1,0-2-0.9-2-2v-0.3c0-1.1,0.9-2,2-2h50.5c1.1,0,2,0.9,2,2V48C63.2,49.1,62.3,50,61.2,50z"/>
<path class="st0" d="M56.4,61.6L31.6,85.3c-0.8,0.8-2.1,0.7-2.8-0.1L28.6,85c-0.8-0.8-0.7-2.1,0.1-2.8l24.8-23.7
	c0.8-0.8,2.1-0.7,2.8,0.1l0.2,0.2C57.2,59.6,57.2,60.8,56.4,61.6z"/>
<path class="st0" d="M28.4,85.2L15.6,72.4c-0.8-0.8-0.8-2.1,0-2.8l0.2-0.2c0.8-0.8,2.1-0.8,2.8,0l12.8,12.8c0.8,0.8,0.8,2.1,0,2.8
	l-0.2,0.2C30.4,86,29.2,86,28.4,85.2z"/>
</svg>
