<?xml version="1.0" encoding="utf-8"?>
<!-- Generator: Adobe Illustrator 22.1.0, SVG Export Plug-In . SVG Version: 6.00 Build 0)  -->
<svg version="1.1" id="Layer_1" xmlns="http://www.w3.org/2000/svg" xmlns:xlink="http://www.w3.org/1999/xlink" x="0px" y="0px"
	 viewBox="0 0 96 96" style="enable-background:new 0 0 96 96;" xml:space="preserve">

<path class="st0" d="M94.3,55.8l-10.9,1.7c-0.8,3-2,5.9-3.6,8.7l6.7,8.7c0.6,0.8,0.5,1.9-0.2,2.6l-8.5,8.5c-0.7,0.7-1.8,0.8-2.6,0.2
	l-8.9-6.6c-2.7,1.6-5.7,2.8-8.7,3.6l-1.4,10.9c-0.1,1-1,1.7-2,1.7l-12,0c0,0,0,0,0,0c-1,0-1.8-0.7-2-1.7l-1.7-10.9
	c-3-0.8-5.9-2-8.7-3.6l-8.8,6.6c-0.8,0.6-1.9,0.5-2.6-0.2l-8.5-8.5c-0.7-0.7-0.8-1.8-0.2-2.6l6.5-8.9c-1.6-2.8-2.8-5.8-3.7-8.8
	L1.8,56.1c-1-0.1-1.8-1-1.8-2l0-12c0-1,0.7-1.8,1.7-2l10.9-1.6c0.8-3.1,2.1-6.1,3.7-8.8l-6.7-8.6C9,20.3,9,19.2,9.7,18.4l8.5-8.5
	c0.7-0.7,1.8-0.8,2.6-0.2l8.8,6.7c2.8-1.6,5.7-2.8,8.8-3.7l1.4-11c0.1-1,1-1.7,2-1.7l12,0c0,0,0,0,0,0c1,0,1.8,0.7,2,1.7l1.6,11.1
	c3,0.8,5.9,2,8.6,3.5l8.9-6.8C75.7,9,76.8,9,77.6,9.7l8.5,8.5c0.7,0.7,0.8,1.8,0.2,2.6l-6.7,8.8c1.6,2.8,2.9,5.7,3.7,8.8l10.9,1.4
	c1,0.1,1.7,1,1.7,2l0,12C96,54.8,95.3,55.7,94.3,55.8z M92,43.6l-10.5-1.4c-0.8-0.1-1.5-0.7-1.7-1.5c-0.8-3.6-2.3-7-4.3-10.1
	c-0.4-0.7-0.4-1.6,0.1-2.3l6.4-8.5l-6-6l-8.6,6.5c-0.7,0.5-1.6,0.5-2.3,0.1c-3.1-1.9-6.4-3.3-9.9-4.1c-0.8-0.2-1.4-0.8-1.5-1.7
	L52.1,4l-8.5,0l-1.4,10.6c-0.1,0.8-0.7,1.5-1.5,1.7c-3.6,0.8-7,2.2-10.1,4.2C29.9,21,29,21,28.3,20.5L19.8,14l-6,6l6.5,8.3
	c0.5,0.7,0.6,1.6,0.1,2.3c-2,3.1-3.4,6.5-4.3,10.1c-0.2,0.8-0.8,1.4-1.6,1.5L4,43.9l0,8.5l10.4,1.3c0.8,0.1,1.5,0.7,1.7,1.5
	c0.8,3.6,2.2,7,4.2,10.1c0.4,0.7,0.4,1.6-0.1,2.2L14,76.2l6.1,6l8.5-6.4c0.4-0.3,0.8-0.4,1.2-0.4c0.4,0,0.7,0.1,1.1,0.3
	c3.1,1.9,6.5,3.3,10,4.1c0.8,0.2,1.4,0.8,1.5,1.7L43.9,92l8.5,0l1.4-10.5c0.1-0.8,0.7-1.5,1.5-1.7c3.5-0.8,6.9-2.2,10-4.2
	c0.7-0.4,1.6-0.4,2.2,0.1l8.6,6.3l6-6.1l-6.4-8.4c-0.5-0.7-0.5-1.6-0.1-2.3c1.9-3.1,3.3-6.5,4.1-10c0.2-0.8,0.8-1.4,1.6-1.5L92,52.1
	L92,43.6z M47.8,67.9c-11,0-20-9-20-20s9-20,20-20s20,9,20,20S58.8,67.9,47.8,67.9z M47.8,31.9c-8.8,0-16,7.2-16,16
	c0,8.8,7.2,16,16,16s16-7.2,16-16C63.8,39.1,56.6,31.9,47.8,31.9z"/>
</svg>
