<?xml version="1.0" encoding="utf-8"?>
<!-- Generator: Adobe Illustrator 22.1.0, SVG Export Plug-In . SVG Version: 6.00 Build 0)  -->
<svg version="1.1" id="Layer_1" xmlns="http://www.w3.org/2000/svg" xmlns:xlink="http://www.w3.org/1999/xlink" x="0px" y="0px"
	 viewBox="0 0 96 91.8" style="enable-background:new 0 0 96 91.8;" xml:space="preserve">

<path class="st0" d="M95.4,23.4l-20,20c-0.4,0.4-0.9,0.6-1.4,0.6s-1-0.2-1.4-0.6c-0.8-0.8-0.8-2,0-2.8l16.7-16.7H62
	c-19.2,0-34,15.7-34,34.9c0,1.1-0.9,2-2,2s-2-0.9-2-2C24,37.3,41.4,20,62.8,20h26.4L72.6,3.4c-0.8-0.8-0.8-2,0-2.8
	c0.8-0.8,2-0.8,2.8,0l20,20c0.4,0.4,0.6,0.9,0.6,1.4S95.8,23,95.4,23.4z M26,23.8H4v64l82,0v-38c0-1.1,0.8-1.9,1.9-1.9
	c1.1,0,2,0.9,2,2v37.9c0,2.2-1.8,4-4,4H4c-2.2,0-4-1.8-4-4V23.9c0-2.2,1.8-4,4-4h22.5c1.1,0,2,0.9,2,2C28.5,23.1,27.1,23.8,26,23.8z
	"/>
</svg>
