<?xml version="1.0" encoding="utf-8"?>
<!-- Generator: Adobe Illustrator 22.1.0, SVG Export Plug-In . SVG Version: 6.00 Build 0)  -->
<svg version="1.1" id="Layer_1" xmlns="http://www.w3.org/2000/svg" xmlns:xlink="http://www.w3.org/1999/xlink" x="0px" y="0px"
	 viewBox="0 0 96 96" style="enable-background:new 0 0 96 96;" xml:space="preserve">

<path class="st0" d="M82,28c-4.8,0-8.9-2.4-11.5-6L27.2,43.6C27.7,45,28,46.5,28,48c0,1.5-0.3,3-0.8,4.4L70.5,74
	c2.5-3.6,6.7-6,11.5-6c7.7,0,14,6.3,14,14s-6.3,14-14,14c-7.7,0-14-6.3-14-14c0-1.5,0.3-3,0.8-4.4L25.5,56c-2.5,3.6-6.7,6-11.5,6
	C6.3,62,0,55.7,0,48s6.3-14,14-14c4.8,0,9,2.4,11.5,6l43.3-21.7C68.3,17,68,15.5,68,14c0-7.7,6.3-14,14-14c7.7,0,14,6.3,14,14
	S89.7,28,82,28z M82,92c5.5,0,10-4.5,10-10s-4.5-10-10-10c-5.5,0-10,4.5-10,10S76.5,92,82,92z M14,38C8.5,38,4,42.5,4,48
	s4.5,10,10,10c5.5,0,10-4.5,10-10S19.5,38,14,38z M82,4c-5.5,0-10,4.5-10,10s4.5,10,10,10c5.5,0,10-4.5,10-10S87.5,4,82,4z"/>
</svg>
