<?xml version="1.0" encoding="utf-8"?>
<!-- Generator: Adobe Illustrator 22.1.0, SVG Export Plug-In . SVG Version: 6.00 Build 0)  -->
<svg version="1.1" id="Layer_1" xmlns="http://www.w3.org/2000/svg" xmlns:xlink="http://www.w3.org/1999/xlink" x="0px" y="0px"
	 viewBox="0 0 80 96" style="enable-background:new 0 0 80 96;" xml:space="preserve">

<path class="st0" d="M80,35.7c0,0.7-0.2,46.4-39.3,60.2c0,0,0,0,0,0C40.4,96,40.2,96,40,96c-0.2,0-0.4,0-0.6-0.1c0,0,0,0,0,0
	C0.2,82.1,0,36.5,0,35.7l0,0V16c0-2.2,1.8-4,4-4h7.3c0,0,0,0,0,0c0,0,0,0,0.1,0C30.7,12,37.9,1.4,38.2,0.9c0.4-0.6,1-0.9,1.7-0.9
	c0.7,0,1.5,0.3,1.9,0.9C42.1,1.4,49.3,12,68.6,12c0,0,0,0,0.1,0c0,0,0,0,0.1,0H76c2.2,0,4,1.8,4,4V35.7L80,35.7z M76,35.7V16h-7.3
	c0,0,0,0-0.1,0c0,0,0,0-0.1,0C52,16,43.3,8.7,40,5.1C36.7,8.7,28,16,11.4,16c0,0,0,0-0.1,0c0,0,0,0,0,0H4v19.7c0,0,0,0,0,0s0,0,0,0
	c0,0.4,0.1,42.9,36,56.1C75.9,78.7,76,36.2,76,35.7C76,35.7,76,35.7,76,35.7C76,35.7,76,35.7,76,35.7z"/>
</svg>
