<?xml version="1.0" encoding="utf-8"?>
<!-- Generator: Adobe Illustrator 22.1.0, SVG Export Plug-In . SVG Version: 6.00 Build 0)  -->
<svg version="1.1" id="Layer_1" xmlns="http://www.w3.org/2000/svg" xmlns:xlink="http://www.w3.org/1999/xlink" x="0px" y="0px"
	 viewBox="0 0 95.8 87.8" style="enable-background:new 0 0 95.8 87.8;" xml:space="preserve">
<style type="text/css">
	.st0{fill:#1B1B1B;}
</style>
<g>
	<defs>
		<rect id="SVGID_1_" width="95.8" height="87.8"/>
	</defs>
	<clipPath id="SVGID_2_">
		<use xlink:href="#SVGID_1_"  style="overflow:visible;"/>
	</clipPath>
	<path class="st0" d="M95.2,15.4l-12,12c-0.4,0.4-0.9,0.6-1.4,0.6c-0.5,0-1-0.2-1.4-0.6c-0.8-0.8-0.8-2,0-2.8l8.7-8.7H76
		c-2.7,0-6,1.5-7.5,3.8L34.6,70.4c-2.3,3.4-6,5.4-10.1,5.4H2c-1.1,0-2-0.9-2-2c0-1.1,0.9-2,2-2h22.5c2.7,0,5.2-1.4,6.8-3.6
		l16.5-24.8l-16.9-24c-1.5-2.2-4.2-3.7-6.9-3.7H2c-1.1,0-2-0.7-2-1.8c0-1.1,0.9-2,2-2h22.2c4,0,7.7,2,10,5.2l16,22.7l15-22.5
		c2.2-3.4,6-5.4,10.1-5.4H89l-8.6-8.6c-0.8-0.8-0.8-2,0-2.8s2-0.8,2.8,0l12,12c0.2,0.2,0.3,0.4,0.4,0.7c0.1,0.2,0.1,0.5,0.2,0.7
		c0,0,0,0,0,0C95.8,14.6,95.6,15,95.2,15.4C95.2,15.4,95.2,15.4,95.2,15.4z M59.1,54l9.4,14.2c1.5,2.3,4,3.6,6.8,3.6H89l-8.6-8.6
		c-0.8-0.8-0.8-2,0-2.8c0.8-0.8,2-0.8,2.8,0l12,12c0.2,0.2,0.3,0.4,0.4,0.7c0.1,0.2,0.2,0.5,0.2,0.8c0,0,0,0,0,0c0,0,0,0,0,0
		c0,0.3-0.1,0.5-0.2,0.7c-0.1,0.2-0.2,0.5-0.4,0.7l-12,12c-0.4,0.4-0.9,0.6-1.4,0.6c-0.5,0-1-0.2-1.4-0.6c-0.8-0.8-0.8-2,0-2.8
		l8.6-8.6H75.3c-4.1,0-7.8-2-10.1-5.4l-9.4-14.2c-0.6-0.9-0.4-2.2,0.6-2.8C57.3,52.9,58.5,53.1,59.1,54z"/>
</g>
</svg>
