<?xml version="1.0" encoding="utf-8"?>
<!-- Generator: Adobe Illustrator 22.1.0, SVG Export Plug-In . SVG Version: 6.00 Build 0)  -->
<svg version="1.1" id="Layer_1" xmlns="http://www.w3.org/2000/svg" xmlns:xlink="http://www.w3.org/1999/xlink" x="0px" y="0px"
	 viewBox="0 0 96 88" style="enable-background:new 0 0 96 88;" xml:space="preserve">

<path class="st0" d="M90,68H37L21.6,87.2c-0.4,0.5-1,0.8-1.6,0.8c-0.2,0-0.4,0-0.7-0.1c-0.8-0.3-1.3-1-1.3-1.9V68H6
	c-3.3,0-6-2.7-6-6V6c0-3.3,2.7-6,6-6h84c3.3,0,6,2.7,6,6v56C96,65.3,93.3,68,90,68z M92,6c0-1.1-0.9-2-2-2H6C4.9,4,4,4.9,4,6v56
	c0,1.1,0.9,2,2,2h14c1.1,0,2,0.9,2,2v14.3l12.4-15.5c0,0,0.1,0,0.1-0.1c0.1-0.1,0.2-0.2,0.3-0.3c0.1-0.1,0.2-0.1,0.3-0.2
	c0.1-0.1,0.2-0.1,0.4-0.1c0.1,0,0.3-0.1,0.4-0.1c0,0,0.1,0,0.1,0h54c1.1,0,2-0.9,2-2V6z M76,36H20c-1.1,0-2-0.9-2-2s0.9-2,2-2h56
	c1.1,0,2,0.9,2,2S77.1,36,76,36z M76,24H20c-1.1,0-2-0.9-2-2s0.9-2,2-2h56c1.1,0,2,0.9,2,2S77.1,24,76,24z M20,44h36
	c1.1,0,2,0.9,2,2s-0.9,2-2,2H20c-1.1,0-2-0.9-2-2S18.9,44,20,44z"/>
</svg>
