<?xml version="1.0" encoding="utf-8"?>
<!-- Generator: Adobe Illustrator 22.1.0, SVG Export Plug-In . SVG Version: 6.00 Build 0)  -->
<svg version="1.1" id="Layer_1" xmlns="http://www.w3.org/2000/svg" xmlns:xlink="http://www.w3.org/1999/xlink" x="0px" y="0px"
	 viewBox="0 0 96 91.8" style="enable-background:new 0 0 96 91.8;" xml:space="preserve">

<path class="st0" d="M96,48.9c0,16.9-8.8,33.6-22.4,42.5c-0.9,0.6-2.2,0.3-2.8-0.6c-0.6-0.9-0.3-2.2,0.6-2.8
	c5.7-3.7,10.4-8.8,13.9-14.8l-2.5-1.9c-0.9-0.7-1.1-1.9-0.4-2.8c0.7-0.9,1.9-1.1,2.8-0.4l2,1.5c2.9-6.1,4.7-12.9,4.8-19.8h-4.2
	c-1.1,0-2-0.9-2-2c0-1.1,0.9-2,2-2h4.1c-0.4-6.3-2.1-12.2-4.9-17.6l-1.9,1.3c-0.3,0.2-0.7,0.3-1.1,0.3c-0.6,0-1.3-0.3-1.7-0.9
	c-0.6-0.9-0.4-2.2,0.5-2.8l2.1-1.5c-3.5-5.6-8.3-10.4-13.8-14l-1.5,2.2c-0.4,0.6-1,0.9-1.7,0.9c-0.4,0-0.8-0.1-1.1-0.3
	c-0.9-0.6-1.2-1.9-0.5-2.8l1.3-2C62.3,6.1,56.3,4.4,50,4.1V8c0,1.1-0.9,2-2,2s-2-0.9-2-2V4.1c-6.3,0.3-12.3,2-17.7,4.8l1.3,2
	c0.6,0.9,0.4,2.2-0.5,2.8c-0.3,0.2-0.7,0.3-1.1,0.3c-0.6,0-1.3-0.3-1.7-0.9l-1.5-2.2c-5.6,3.5-10.3,8.3-13.8,14l2.1,1.5
	c0.9,0.6,1.1,1.9,0.5,2.8c-0.4,0.6-1,0.9-1.7,0.9c-0.4,0-0.8-0.1-1.1-0.3L9,28.3c-2.7,5.3-4.4,11.3-4.9,17.6h4.1c1.1,0,2,0.9,2,2
	c0,1.1-0.9,2-2,2H4c0.1,6.9,1.8,13.7,4.8,19.9l2-1.5c0.9-0.7,2.1-0.5,2.8,0.4c0.7,0.9,0.5,2.1-0.4,2.8l-2.5,1.9
	c3.5,6,8.3,11.2,14,14.8c0.9,0.6,1.2,1.8,0.6,2.8c-0.4,0.6-1,0.9-1.7,0.9c-0.4,0-0.7-0.1-1.1-0.3C8.6,82.5,0,66.3,0,48.9
	c0-0.3,0-0.6,0-0.9c0-0.1,0-0.1,0-0.2c0-0.1,0.1-0.2,0.1-0.4c0.2-8.2,2.5-15.9,6.2-22.6c0.1-0.2,0.1-0.5,0.3-0.7
	c0.1-0.1,0.1-0.1,0.2-0.2C11,16.8,16.9,10.8,24.1,6.6c0.1-0.1,0.1-0.1,0.2-0.2c0.1-0.1,0.3-0.1,0.4-0.2C31.6,2.3,39.5,0,48,0
	s16.4,2.3,23.4,6.3c0.1,0.1,0.3,0.1,0.4,0.2c0.1,0.1,0.1,0.1,0.2,0.2C79.1,10.8,85,16.8,89.2,24c0.1,0.1,0.1,0.1,0.2,0.2
	c0.1,0.2,0.2,0.5,0.3,0.7c3.7,6.7,6,14.4,6.2,22.6c0,0.1,0.1,0.2,0.1,0.4c0,0.1,0,0.1,0,0.2C96,48.3,96,48.6,96,48.9z M48,43.9
	c1.1,0,2.1,0.4,3,1l18-10.7c0.9-0.6,2.2-0.3,2.7,0.7c0.6,0.9,0.3,2.2-0.7,2.7L52.9,48.3c0,0.2,0.1,0.3,0.1,0.5c0,2.8-2.2,5-5,5
	s-5-2.2-5-5S45.2,43.9,48,43.9z"/>
</svg>
