<?xml version="1.0" encoding="utf-8"?>
<!-- Generator: Adobe Illustrator 22.1.0, SVG Export Plug-In . SVG Version: 6.00 Build 0)  -->
<svg version="1.1" id="Layer_1" xmlns="http://www.w3.org/2000/svg" xmlns:xlink="http://www.w3.org/1999/xlink" x="0px" y="0px"
	 viewBox="0 0 80 96" style="enable-background:new 0 0 80 96;" xml:space="preserve">

<path class="st0" d="M76.6,95.9c-0.7,0-1.5-0.2-2.2-0.7L4,51v43c0,1.1-0.9,2-2,2s-2-0.9-2-2V2c0-1.1,0.9-2,2-2s2,0.9,2,2V42
	L74.3,0.6C75.1,0.2,75.8,0,76.5,0c1.7,0,3.5,1.4,3.5,4V92C80,94.7,78.2,95.9,76.6,95.9z M76,4.3L4.3,46.5L76,91.6V4.3z"/>
</svg>
