<?xml version="1.0" encoding="utf-8"?>
<!-- Generator: Adobe Illustrator 22.1.0, SVG Export Plug-In . SVG Version: 6.00 Build 0)  -->
<svg version="1.1" id="Layer_1" xmlns="http://www.w3.org/2000/svg" xmlns:xlink="http://www.w3.org/1999/xlink" x="0px" y="0px"
	 viewBox="0 0 95.3 95.6" style="enable-background:new 0 0 95.3 95.6;" xml:space="preserve">

<path class="st0" d="M78,95.6c-0.7,0-1.5-0.3-2.3-0.8L49.1,76.5c-0.7-0.5-2.2-0.5-2.9,0L19.5,94.8c-1.7,1.2-3.5,1-4.4-0.2
	c-0.6-0.8-0.7-1.9-0.4-3.2l8-28.5c0.3-1-0.1-2.6-0.9-3.3L1.2,38.3c-1.6-1.6-1.3-3.2-1.1-3.8c0.2-0.6,1-2,3.2-2.2l27.4-2.6
	c1-0.1,2.3-1.1,2.7-2l11-25.5C45.5,0.2,47,0,47.6,0s2.1,0.2,3.1,2.4l11,25.5c0.4,0.9,1.7,1.9,2.7,2l27.4,2.6c2.3,0.2,3,1.6,3.2,2.2
	c0.2,0.6,0.5,2.1-1.1,3.8L73.3,59.5c-0.7,0.7-1.1,2.4-0.9,3.3l8,28.5c0.4,1.3,0.3,2.4-0.4,3.2C79.6,95.3,78.9,95.6,78,95.6z
	 M47.6,72.2c1.4,0,2.7,0.4,3.7,1.1l24.7,17l-7.4-26.3c-0.7-2.4,0.1-5.5,1.8-7.2l20-20.4l-26.4-2.5c-2.5-0.2-5-2.1-6-4.4L47.6,5.3
	L37.2,29.4c-1,2.3-3.6,4.2-6,4.4L4.8,36.3l20,20.4c1.7,1.8,2.5,4.9,1.8,7.2l-7.4,26.3l24.7-16.9C44.9,72.5,46.2,72.2,47.6,72.2z"/>
</svg>
