<?xml version="1.0" encoding="utf-8"?>
<!-- Generator: Adobe Illustrator 22.1.0, SVG Export Plug-In . SVG Version: 6.00 Build 0)  -->
<svg version="1.1" id="Layer_1" xmlns="http://www.w3.org/2000/svg" xmlns:xlink="http://www.w3.org/1999/xlink" x="0px" y="0px"
	 viewBox="0 0 96 96" style="enable-background:new 0 0 96 96;" xml:space="preserve">

<g id="RuJdW2.tif">
</g>
<path class="st0" d="M67.3,4H29c-1.1,0-2-0.9-2-2v0c0-1.1,0.9-2,2-2l38.3,0c1.1,0,2,0.9,2,2v0C69.3,3.1,68.4,4,67.3,4z"/>
<path class="st0" d="M67,96H29.7c-1.1,0-2-0.9-2-2v0c0-1.1,0.9-2,2-2H67c1.1,0,2,0.9,2,2v0C69,95.1,68.1,96,67,96z"/>
<path class="st0" d="M4,28.9v37.3c0,1.1-0.9,2-2,2h0c-1.1,0-2-0.9-2-2V28.9c0-1.1,0.9-2,2-2h0C3.1,26.9,4,27.8,4,28.9z"/>
<path class="st0" d="M96,28.6V67c0,0.8-0.7,1.5-1.5,1.5h-1.1c-0.8,0-1.5-0.7-1.5-1.5V28.6c0-0.8,0.7-1.5,1.5-1.5h1.1
	C95.3,27.1,96,27.8,96,28.6z"/>
<path class="st0" d="M92.6,30L66.1,3.5c-0.8-0.8-0.8-2.1,0-2.8l0,0c0.8-0.8,2.1-0.8,2.8,0l26.5,26.5c0.8,0.8,0.8,2.1,0,2.8v0
	C94.6,30.8,93.4,30.8,92.6,30z"/>
<path class="st0" d="M28.4,95.4L0.6,67.7c-0.8-0.8-0.8-2.1,0-2.8h0c0.8-0.8,2.1-0.8,2.8,0l27.8,27.8c0.8,0.8,0.8,2.1,0,2.8h0
	C30.4,96.2,29.1,96.2,28.4,95.4z"/>
<path class="st0" d="M30.2,3.4L3.4,30.3c-0.8,0.8-2.1,0.8-2.8,0l0,0c-0.8-0.8-0.8-2.1,0-2.8L27.4,0.6c0.8-0.8,2.1-0.8,2.8,0l0,0
	C31,1.4,31,2.6,30.2,3.4z"/>
<path class="st0" d="M95.4,68.5L68.5,95.4c-0.8,0.8-2.1,0.8-2.8,0l0,0c-0.8-0.8-0.8-2.1,0-2.8l26.9-26.9c0.8-0.8,2.1-0.8,2.8,0l0,0
	C96.2,66.4,96.2,67.7,95.4,68.5z"/>
</svg>
