<?xml version="1.0" encoding="utf-8"?>
<!-- Generator: Adobe Illustrator 22.1.0, SVG Export Plug-In . SVG Version: 6.00 Build 0)  -->
<svg version="1.1" id="Layer_1" xmlns="http://www.w3.org/2000/svg" xmlns:xlink="http://www.w3.org/1999/xlink" x="0px" y="0px"
	 viewBox="0 0 72 96" style="enable-background:new 0 0 72 96;" xml:space="preserve">

<path class="st0" d="M64,96H8c-4.4,0-8-3.7-8-8.1V8.1C0,3.7,3.6,0,8,0h56c4.4,0,8,3.7,8,8.1v79.7C72,92.3,68.4,96,64,96z M68,8.1
	C68,5.9,66.2,4,64,4H8C5.8,4,4,5.9,4,8.1v79.7C4,90.1,5.8,92,8,92h56c2.2,0,4-1.9,4-4.1V8.1z M42,12H30c-1.1,0-2-0.9-2-2s0.9-2,2-2
	h12c1.1,0,2,0.9,2,2S43.1,12,42,12z M36,80c2.2,0,4,1.8,4,4s-1.8,4-4,4s-4-1.8-4-4S33.8,80,36,80z"/>
</svg>
