<?xml version="1.0" encoding="utf-8"?>
<!-- Generator: Adobe Illustrator 22.1.0, SVG Export Plug-In . SVG Version: 6.00 Build 0)  -->
<svg version="1.1" id="Layer_1" xmlns="http://www.w3.org/2000/svg" xmlns:xlink="http://www.w3.org/1999/xlink" x="0px" y="0px"
	 viewBox="0 0 96 96" style="enable-background:new 0 0 96 96;" xml:space="preserve">

<path class="st0" d="M93.2,45.7L45.7,94.5c-1,1-2.2,1.5-3.6,1.5c-1.4,0-2.6-0.5-3.6-1.5l-37-37c-1-1-1.5-2.2-1.5-3.6
	c0-1.4,0.5-2.6,1.5-3.6L50.3,2.7C51.9,1.2,54.7,0,57,0h34C93.7,0,96,2.3,96,5.1v34C96,41.3,94.8,44.1,93.2,45.7z M92,5.1
	C92,4.5,91.5,4,90.9,4H57c-1.1,0-3,0.8-3.8,1.6L4.3,53.2C4,53.4,4,53.7,4,53.9c0,0.2,0,0.5,0.3,0.8l37,37c0.3,0.3,0.6,0.3,0.8,0.3
	c0.2,0,0.5,0,0.8-0.3l47.5-48.8C91.2,42,92,40.2,92,39V5.1z M77,28c-5,0-9-4-9-9c0-5,4-9,9-9c5,0,9,4,9,9C86,24,82,28,77,28z M77,14
	c-2.8,0-5,2.2-5,5c0,2.8,2.2,5,5,5c2.8,0,5-2.2,5-5C82,16.2,79.8,14,77,14z"/>
</svg>
