<?xml version="1.0" encoding="utf-8"?>
<!-- Generator: Adobe Illustrator 22.1.0, SVG Export Plug-In . SVG Version: 6.00 Build 0)  -->
<svg version="1.1" id="Layer_1" xmlns="http://www.w3.org/2000/svg" xmlns:xlink="http://www.w3.org/1999/xlink" x="0px" y="0px"
	 viewBox="0 0 96 96" style="enable-background:new 0 0 96 96;" xml:space="preserve">

<path class="st0" d="M94,50H83.9c-1,18.2-15.7,32.9-33.9,33.9V94c0,1.1-0.9,2-2,2s-2-0.9-2-2V83.9c-18.3-1-32.9-15.7-33.9-33.9H2
	c-1.1,0-2-0.9-2-2s0.9-2,2-2h10.1c1-18.2,15.6-32.9,33.9-33.9V2c0-1.1,0.9-2,2-2s2,0.9,2,2v10.1c18.3,1,32.9,15.6,33.9,33.9H94
	c1.1,0,2,0.9,2,2S95.1,50,94,50z M50,79.9C66,78.9,78.9,66,79.9,50h-12C67,59.4,59.4,67,50,67.9V79.9z M50,46h13.8
	c-0.9-7.2-6.6-13-13.8-13.9V46z M63.8,50H50v13.9C57.2,63,62.9,57.2,63.8,50z M46,50H32.2c0.9,7.2,6.6,13,13.8,13.9V50z M46,79.9
	v-12C36.6,67,29,59.4,28.1,50h-12C17.1,66,30,78.9,46,79.9z M46,16.1C30,17.1,17.1,30,16.1,46h12C29,36.6,36.6,29,46,28.1V16.1z
	 M32.2,46H46V32.1C38.8,33,33.1,38.8,32.2,46z M50,16.1v12C59.4,29,67,36.6,67.9,46h12C78.9,30,66,17.1,50,16.1z"/>
</svg>
