<?xml version="1.0" encoding="utf-8"?>
<!-- Generator: Adobe Illustrator 22.1.0, SVG Export Plug-In . SVG Version: 6.00 Build 0)  -->
<svg version="1.1" id="Layer_1" xmlns="http://www.w3.org/2000/svg" xmlns:xlink="http://www.w3.org/1999/xlink" x="0px" y="0px"
	 viewBox="0 0 110.2 96.7" style="enable-background:new 0 0 110.2 96.7;" xml:space="preserve">
<style type="text/css">
	.st0{clip-path:url(#SVGID_2_);fill:#1B1B1B;}
	.st1{clip-path:url(#SVGID_2_);}
	.st2{clip-path:url(#SVGID_4_);fill:#1B1B1B;}
</style>
<g>
	<defs>
		<rect id="SVGID_1_" width="110.2" height="96.7"/>
	</defs>
	<clipPath id="SVGID_2_">
		<use xlink:href="#SVGID_1_"  style="overflow:visible;"/>
	</clipPath>
	<path class="st0" d="M101.9,48.1c-5.5,5.5-12.6,8.3-19.9,8.3c-4,0-8-0.9-11.8-2.7l-34,39c0,0,0,0-0.1,0c0,0,0,0,0,0.1
		c-2.6,2.6-6,3.9-9.4,3.9s-6.8-1.3-9.4-3.9c-2.5-2.5-3.9-5.9-3.9-9.4c0-3.6,1.4-6.9,3.9-9.4c0,0,0,0,0.1,0c0,0,0,0,0-0.1l38.9-34.1
		C51.4,29.1,53.6,16.6,62,8.2c6.7-6.7,15.3-9.4,24.3-7.8c0.7,0.1,1.3,0.7,1.6,1.4c0.2,0.7,0.1,1.5-0.5,2L76.3,15.4l3.2,9.5
		c0.9,2.7,3,4.8,5.7,5.7l9.5,3.2l11.7-11.7c0.5-0.5,1.3-0.7,2-0.5s1.2,0.8,1.4,1.6C111.4,32.2,108.4,41.6,101.9,48.1z M96.6,37.5
		c-0.5,0.5-1.3,0.7-2.1,0.5l-10.7-3.6c-3.9-1.3-6.9-4.4-8.2-8.2L72,15.5c-0.2-0.7-0.1-1.5,0.5-2l9.2-9.6c-0.1,0-0.2,0-0.3,0
		c-6.1,0-11.9,2.4-16.6,7.1c-7.5,7.5-9.3,18.9-4.3,28.4c0,0.1,0,0.1,0,0.2c0.1,0.1,0.1,0.3,0.1,0.4c0,0.1,0,0.2,0,0.4
		c0,0.1,0,0.3,0,0.4c0,0.1,0,0.2-0.1,0.4c0,0.1-0.1,0.2-0.2,0.3c-0.1,0.1-0.1,0.2-0.2,0.3L60,41.9l-39.9,35c-1.7,1.7-2.7,4-2.7,6.5
		s1,4.8,2.7,6.5c3.6,3.6,9.5,3.6,13.1,0l34.9-40l0.1-0.1c0.1-0.1,0.2-0.2,0.3-0.3s0.2-0.1,0.3-0.2c0.1-0.1,0.2-0.1,0.4-0.1
		c0.1,0,0.2,0,0.4,0c0.1,0,0.3,0,0.4,0c0.1,0,0.3,0.1,0.4,0.1c0.1,0,0.1,0,0.2,0c9.5,5,20.9,3.3,28.5-4.3c4.6-4.6,7.1-10.9,7.1-17.3
		L96.6,37.5z"/>
	<path class="st0" d="M37.4,61.8"/>
	<g class="st1">
		<defs>
			<path id="SVGID_3_" d="M52.4,79.8L70.6,59l22.7,18.8l1.2,13.5c0,0-4.2,7.5-4.9,7.4c-0.7-0.1-14.6,2.6-14.6,2.6L52.4,79.8z
				 M33.9,56.1l15.3-13.2l-3.5-3L31.8,53.7L33.9,56.1z"/>
		</defs>
		<clipPath id="SVGID_4_">
			<use xlink:href="#SVGID_3_"  style="overflow:visible;"/>
		</clipPath>
		<path class="st2" d="M0.1,48.1c5.5,5.5,12.6,8.3,19.9,8.3c4,0,8-0.9,11.8-2.7l34,39c0,0,0,0,0.1,0c0,0,0,0,0,0.1
			c2.6,2.6,6,3.9,9.4,3.9c3.4,0,6.8-1.3,9.4-3.9c2.5-2.5,3.9-5.9,3.9-9.4c0-3.6-1.4-6.9-3.9-9.4c0,0,0,0-0.1,0c0,0,0,0,0-0.1
			L45.7,39.8c4.9-10.7,2.7-23.2-5.7-31.6c-6.7-6.7-15.3-9.4-24.3-7.8c-0.7,0.1-1.3,0.7-1.6,1.4c-0.2,0.7-0.1,1.5,0.5,2l11.1,11.6
			l-3.2,9.5c-0.9,2.7-3,4.8-5.7,5.7l-9.5,3.2L-4.4,22.1c-0.5-0.5-1.3-0.7-2-0.5s-1.2,0.8-1.4,1.6C-9.4,32.2-6.4,41.6,0.1,48.1z
			 M5.4,37.5C5.9,38,6.7,38.2,7.5,38l10.7-3.6c3.9-1.3,6.9-4.4,8.2-8.2L30,15.5c0.2-0.7,0.1-1.5-0.5-2l-9.2-9.6c0.1,0,0.2,0,0.3,0
			c6.1,0,11.9,2.4,16.6,7.1c7.5,7.5,9.3,18.9,4.3,28.4c0,0.1,0,0.1,0,0.2c-0.1,0.1-0.1,0.3-0.1,0.4c0,0.1,0,0.2,0,0.4
			c0,0.1,0,0.3,0,0.4c0,0.1,0,0.2,0.1,0.4c0,0.1,0.1,0.2,0.2,0.3c0.1,0.1,0.1,0.2,0.2,0.3l0.1,0.1l39.9,35c1.7,1.7,2.7,4,2.7,6.5
			s-1,4.8-2.7,6.5c-3.6,3.6-9.5,3.6-13.1,0l-34.9-40l-0.1-0.1c-0.1-0.1-0.2-0.2-0.3-0.3s-0.2-0.1-0.3-0.2c-0.1-0.1-0.2-0.1-0.4-0.1
			c-0.1,0-0.2,0-0.4,0c-0.1,0-0.3,0-0.4,0c-0.1,0-0.3,0.1-0.4,0.1c-0.1,0-0.1,0-0.2,0c-9.5,5-20.9,3.3-28.5-4.3
			c-4.6-4.6-7.1-10.9-7.1-17.3L5.4,37.5z"/>
	</g>
	<path class="st0" d="M45.7,39.8L45.7,39.8c-0.8-0.8-2.1-0.8-2.8,0L31.8,50.8c-0.8,0.8-0.8,2.1,0,2.8l0,0c0.8,0.8,2.1,0.8,2.8,0
		l11.1-11.1C46.5,41.8,46.5,40.6,45.7,39.8z"/>
	<path class="st0" d="M39.3,47.3L39.3,47.3c-0.8,0.8-2.1,0.8-2.8,0L1.8,12.6C1,11.8,1,10.6,1.8,9.8l0,0C2.6,9,3.8,9,4.6,9.8
		l34.7,34.7C40.1,45.2,40.1,46.5,39.3,47.3z"/>
	<path class="st0" d="M12.2,19.9l-0.4,0.4c-1.5,1.5-5.1,1.4-6.6,0l-4.2-5.5c-1.5-1.5-1.5-3.8,0-5.3l0.4-0.4c1.5-1.5,3.8-1.5,5.3,0
		l5.5,4.2C13.7,14.8,13.7,18.4,12.2,19.9z"/>
	<path class="st0" d="M5.1,19.1l1.7-4.3l4.3-1.7c0.4-0.1,0.8-0.1,1.1,0.2l2,2c0.3,0.3,0.4,0.7,0.2,1.1l-1.7,4.3l-4.3,1.7
		c-0.4,0.1-0.8,0.1-1.1-0.2l-2-2C5,19.9,4.9,19.5,5.1,19.1z"/>
</g>
</svg>
