<svg xmlns="http://www.w3.org/2000/svg" viewBox="0 0 265.635 275.326">
  <g id="megaphone" transform="translate(-7.646)">
    <g id="Group_160501" data-name="Group 160501" transform="translate(7.646 0)">
      <g id="Group_160500" data-name="Group 160500" transform="translate(0 0)">
        <path id="Path_37633" data-name="Path 37633" d="M123.261,61.841a6.674,6.674,0,0,0-9.272,9.6l7.285,7.285L35.512,211.18,9.684,237.008A6.291,6.291,0,0,0,9.3,245.9c.122.133.25.26.382.382l49.007,49.007a6.291,6.291,0,0,0,8.889.382c.133-.122.26-.25.382-.382l26.159-25.828,20.2-12.914,28.146,28.146a6.291,6.291,0,0,0,8.889.382c.133-.122.26-.25.382-.382L202.73,233.7a6.79,6.79,0,0,0,0-9.6L187.5,208.861l38.742-24.835,7.285,7.285a8.277,8.277,0,0,0,4.967,1.655,7.947,7.947,0,0,0,4.636-1.655,7.616,7.616,0,0,0,0-9.6ZM63.327,281.379,23.592,241.644,40.81,224.425l39.735,39.735Zm125.5-52.318L147.1,270.452l-21.523-21.523,50.663-32.451Zm-98.014,26.49L49.42,214.16,130.877,88.331l85.762,86.093Z" transform="translate(-7.646 -21.998)"/>
        <path id="Path_37634" data-name="Path 37634" d="M300.882,98.781a6.79,6.79,0,0,0,9.6,0L347.9,61.363a6.954,6.954,0,0,0,0-9.6,6.291,6.291,0,0,0-8.889-.382c-.133.122-.261.25-.382.382L300.882,89.178A7.615,7.615,0,0,0,300.882,98.781Z" transform="translate(-114.405 -18.208)"/>
        <path id="Path_37635" data-name="Path 37635" d="M266.046,57.725h2.318a6.954,6.954,0,0,0,6.292-4.3L291.212,9.049a6.954,6.954,0,0,0-3.973-8.61,6.622,6.622,0,0,0-8.552,3.818c-.02.051-.039.1-.057.155L262.4,49.115A6.622,6.622,0,0,0,266.046,57.725Z" transform="translate(-100.762 0)"/>
        <path id="Path_37636" data-name="Path 37636" d="M393.054,123.008a6.622,6.622,0,0,0-8.454-4.031l-.156.057L340.074,135.59a6.292,6.292,0,0,0-4.11,7.891c.042.131.086.259.136.387a6.622,6.622,0,0,0,6.292,4.636l2.317-.662,44.372-16.225A6.952,6.952,0,0,0,393.054,123.008Z" transform="translate(-127.769 -43.43)"/>
      </g>
    </g>
  </g>
</svg>
