<?xml version="1.0" encoding="utf-8"?>
<!-- Generator: Adobe Illustrator 24.1.0, SVG Export Plug-In . SVG Version: 6.00 Build 0)  -->
<svg version="1.1" id="Layer_1" xmlns="http://www.w3.org/2000/svg" xmlns:xlink="http://www.w3.org/1999/xlink" x="0px" y="0px"
	 viewBox="0 0 91.3 100.4" style="enable-background:new 0 0 91.3 100.4;" xml:space="preserve">
<path d="M88.6,73.6l-16-7.2L55.3,4.6h0C54.7,1.5,50.1,0,45.7,0c-4.4,0-9.1,1.5-9.6,4.6h0L18.8,66.4l-16,7.2C1.1,74.4,0,76,0,77.9
	c0,1.9,1.1,3.5,2.8,4.3l38.5,17.3c1.4,0.6,2.9,0.9,4.3,0.9c1.5,0,2.9-0.3,4.3-0.9l38.5-17.3c1.7-0.8,2.8-2.4,2.8-4.3
	C91.4,76,90.3,74.4,88.6,73.6z M21.2,72.9L26,55.7c4,3.4,12,5.3,19.7,5.3s15.7-1.8,19.7-5.3L70.2,73c0.1,0.5,0.1,0.7,0.1,0.8
	c-0.8,4.1-10.9,8.4-24.7,8.4c-13.5,0-23.1-4-24.5-8C21.1,73.9,21.1,73.4,21.2,72.9z M32.5,32.5c3,2.1,8.1,3.2,13.2,3.2
	s10.2-1.1,13.2-3.2L64,50.8c-0.2,2.6-7.3,6.2-18.3,6.2s-18.1-3.7-18.3-6.2L32.5,32.5z M39.1,9c1.8,0.9,4.3,1.3,6.6,1.3
	c2.4,0,4.8-0.4,6.6-1.3l5.3,19c-0.2,1.1-4.3,3.7-12,3.7s-11.8-2.5-12-3.7L39.1,9z M45.7,4c2.9,0,4.7,0.7,5.4,1.1
	c-0.7,0.5-2.5,1.1-5.4,1.1c-2.9,0-4.7-0.7-5.4-1.1C41.1,4.7,42.9,4,45.7,4z M86.9,78.5L48.4,95.8c-1.7,0.8-3.7,0.8-5.4,0L4.5,78.5
	c-0.4-0.1-0.4-0.5-0.4-0.6c0-0.2,0.1-0.5,0.4-0.6l13-5.8l-0.1,0.4c-0.4,1.4-0.4,2.7,0.1,3.9c2.3,6.2,14,10.6,28.3,10.6
	c13.1,0,27.1-4,28.6-11.7c0.2-1,0-2-0.2-2.6L74,71.5l13,5.8c0.4,0.2,0.4,0.5,0.4,0.6C87.4,78.1,87.3,78.4,86.9,78.5z"/>
</svg>
