<?xml version="1.0" encoding="utf-8"?>
<!-- Generator: Adobe Illustrator 22.1.0, SVG Export Plug-In . SVG Version: 6.00 Build 0)  -->
<svg version="1.1" id="Layer_1" xmlns="http://www.w3.org/2000/svg" xmlns:xlink="http://www.w3.org/1999/xlink" x="0px" y="0px"
	 viewBox="0 0 76 96" style="enable-background:new 0 0 76 96;" xml:space="preserve">

<path class="st0" d="M74,20h-4.2l-8.6,72.2C61,94.4,59.1,96,57,96H19c-2.1,0-4-1.6-4.2-3.8L6.2,20H2c-1.1,0-2-0.9-2-2s0.9-2,2-2h22
	V6c0-3.3,2.7-6,6-6h16c3.3,0,6,2.7,6,6v10h22c1.1,0,2,0.9,2,2S75.1,20,74,20z M48,6c0-1.1-0.9-2-2-2H30c-1.1,0-2,0.9-2,2v10h20V6z
	 M10.3,20l8.5,71.8c0,0.1,0.2,0.2,0.2,0.2h38c0.1,0,0.2-0.1,0.2-0.2L65.7,20H10.3z"/>
</svg>
