<?xml version="1.0" encoding="utf-8"?>
<!-- Generator: Adobe Illustrator 22.1.0, SVG Export Plug-In . SVG Version: 6.00 Build 0)  -->
<svg version="1.1" id="Layer_1" xmlns="http://www.w3.org/2000/svg" xmlns:xlink="http://www.w3.org/1999/xlink" x="0px" y="0px"
	 viewBox="0 0 96 84" style="enable-background:new 0 0 96 84;" xml:space="preserve">

<path class="st0" d="M96,81L96,81c0,1.7-1.3,3-3,3L3,84c-1.6,0-3-1.3-3-3l0,0c0-1.6,1.3-3,3-3l90,0C94.7,78,96,79.3,96,81z"/>
<path class="st0" d="M49.5,0.4L49.5,0.4c1.4,0.8,1.9,2.7,1.1,4.1l-45,78c-0.8,1.4-2.7,1.9-4.1,1.1l0,0c-1.4-0.8-1.9-2.7-1.1-4.1
	l45-77.9C46.2,0.1,48.1-0.4,49.5,0.4z"/>
<path class="st0" d="M46.5,0.4L46.5,0.4c1.4-0.8,3.3-0.3,4.1,1.1l45,77.9c0.8,1.4,0.3,3.3-1.1,4.1l0,0c-1.4,0.8-3.3,0.3-4.1-1.1
	l-45-77.9C44.6,3.1,45.1,1.3,46.5,0.4z"/>
</svg>
