<?xml version="1.0" encoding="utf-8"?>
<!-- Generator: Adobe Illustrator 22.1.0, SVG Export Plug-In . SVG Version: 6.00 Build 0)  -->
<svg version="1.1" id="Layer_1" xmlns="http://www.w3.org/2000/svg" xmlns:xlink="http://www.w3.org/1999/xlink" x="0px" y="0px"
	 viewBox="0 0 96 84" style="enable-background:new 0 0 96 84;" xml:space="preserve">

<path class="st0" d="M0,3L0,3c0-1.7,1.3-3,3-3h90c1.6,0,3,1.3,3,3l0,0c0,1.6-1.3,3-3,3H3C1.3,6,0,4.7,0,3z"/>
<path class="st0" d="M46.5,83.6L46.5,83.6c-1.4-0.8-1.9-2.7-1.1-4.1l45-78c0.8-1.4,2.7-1.9,4.1-1.1l0,0c1.4,0.8,1.9,2.7,1.1,4.1
	l-45,77.9C49.8,83.9,47.9,84.4,46.5,83.6z"/>
<path class="st0" d="M49.5,83.6L49.5,83.6c-1.4,0.8-3.3,0.3-4.1-1.1L0.4,4.6c-0.8-1.4-0.3-3.3,1.1-4.1l0,0c1.4-0.8,3.3-0.3,4.1,1.1
	l45,77.9C51.4,80.9,50.9,82.7,49.5,83.6z"/>
</svg>
