<?xml version="1.0" encoding="utf-8"?>
<!-- Generator: Adobe Illustrator 24.1.0, SVG Export Plug-In . SVG Version: 6.00 Build 0)  -->
<svg version="1.1" id="Layer_1" xmlns="http://www.w3.org/2000/svg" xmlns:xlink="http://www.w3.org/1999/xlink" x="0px" y="0px"
	 viewBox="0 0 124.4 85" style="enable-background:new 0 0 124.4 85;" xml:space="preserve">
<path d="M123.9,50.3L95.6,13.5c-0.4-0.5-1-0.8-1.6-0.8H80.3v-1.2c0-6.2-5-11.3-11.3-11.3L5.7,0c-1.4-0.1-3,0.6-4,1.6S0,4.2,0,5.7
	v43.7v4v19.2c0,1.1,0.9,2,2,2h10.5c1,5.9,6.1,10.5,12.3,10.5s11.3-4.5,12.3-10.5h39.2h2H88c1,5.9,6.1,10.5,12.3,10.5
	s11.3-4.5,12.3-10.5h9.8c1.1,0,2-0.9,2-2V51.4C124.4,51,124.2,50.6,123.9,50.3z M101.7,28l11.2,14.5H91.4V28.1L101.7,28
	C101.7,28.1,101.7,28,101.7,28z M24.8,81.1c-4.7,0-8.4-3.8-8.4-8.4c0-4.7,3.8-8.4,8.4-8.4s8.4,3.8,8.4,8.4
	C33.3,77.3,29.5,81.1,24.8,81.1z M37.1,70.7c-1-5.9-6.1-10.5-12.3-10.5s-11.3,4.5-12.3,10.5H4V53.5h59.2v-4H4V5.7
	c0-0.4,0.2-0.9,0.5-1.2C4.8,4.2,5.1,3.9,5.7,4L69,4.2c4,0,7.3,3.3,7.3,7.3v1.2v4v54C76.3,70.7,37.1,70.7,37.1,70.7z M100.3,81.1
	c-4.7,0-8.4-3.8-8.4-8.4c0-4.7,3.8-8.4,8.4-8.4c4.7,0,8.4,3.8,8.4,8.4C108.8,77.3,105,81.1,100.3,81.1z M120.4,70.7h-7.8
	c-1-5.9-6.1-10.5-12.3-10.5c-6.2,0-11.3,4.5-12.3,10.5h-7.8v-54H93l5.7,7.4h-9.3c-1.1,0-2,0.9-2,2v18.5c0,1.1,0.9,2,2,2H116l4.3,5.6
	L120.4,70.7L120.4,70.7z"/>
</svg>
