<?xml version="1.0" encoding="utf-8"?>
<!-- Generator: Adobe Illustrator 22.1.0, SVG Export Plug-In . SVG Version: 6.00 Build 0)  -->
<svg version="1.1" id="Layer_1" xmlns="http://www.w3.org/2000/svg" xmlns:xlink="http://www.w3.org/1999/xlink" x="0px" y="0px"
	 viewBox="0 0 61.8 96" style="enable-background:new 0 0 61.8 96;" xml:space="preserve">

<path class="st0" d="M35.9,96c-16.1,0-23.9-7.5-23.9-23V44H2c-1.1,0-2-0.9-2-2V24c0-0.6,0.2-1.1,0.7-1.5c0.4-0.4,1-0.6,1.6-0.5
	c0,0,0.3,0,0.6,0c3,0,13-1.4,13-20c0-1.1,0.9-2,2-2h18c1.1,0,2,0.9,2,2v20h17.9c1.1,0,2,0.9,2,2v18c0,1.1-0.9,2-2,2H37.9v20.2
	c0,5,1.4,5.9,4.2,5.9c1.4,0,3.1-0.3,5.1-0.9c0.6-0.2,1.4-0.5,2.5-0.9l1.8-0.7c1-0.4,2.1,0.1,2.5,1l7.7,16.4C62,86,61.7,87,61,87.6
	C60.5,87.9,49.6,96,35.9,96z M4,40h10c1.1,0,2,0.9,2,2v31c0,13.1,6.1,19,19.9,19c9.8,0,18.2-4.7,21.4-6.7l-6.2-13.2l0,0
	c-1.2,0.4-2.1,0.8-2.8,1c-2.4,0.7-4.5,1-6.2,1c-8.2,0-8-7.7-8-10.1V42c0-1.1,0.8-2,1.9-2H54V26H35.9c-1.1,0-1.9-0.9-1.9-2V4H19.8
	C19.1,22.9,8.1,25.6,4,26V40z"/>
</svg>
