<?xml version="1.0" encoding="utf-8"?>
<!-- Generator: Adobe Illustrator 22.1.0, SVG Export Plug-In . SVG Version: 6.00 Build 0)  -->
<svg version="1.1" id="Layer_1" xmlns="http://www.w3.org/2000/svg" xmlns:xlink="http://www.w3.org/1999/xlink" x="0px" y="0px"
	 viewBox="0 0 95.6 76" style="enable-background:new 0 0 95.6 76;" xml:space="preserve">

<path class="st0" d="M63.7,4c5.2,0,10.7,2,14,5.4c4.1-0.8,7.9-2.2,11.4-4.2c-1.3,4-4.2,7.4-7.9,9.5c3.6-0.4,7.1-1.3,10.3-2.7
	c-2.4,3.4-5.5,6.5-9,8.9c0,0.7,0,1.5,0,2.2C82.6,45.8,64.9,72,31.8,72c-11,0-19.9-2.9-27.9-7.7c1.4,0.2,2.8,0.2,4.3,0.2
	c8.4,0,16.2-2.7,22.3-7.4C22.7,57,16,52,13.8,45.2c1.1,0.2,2.2,0.3,3.4,0.3c1.6,0,3.2-0.2,4.7-0.6c-8.2-1.6-14.1-8.6-14.1-16.9
	c0-0.1,0-0.1,0-0.2c2.4,1.3,5.2,2.1,8.1,2.2c-4.8-3.1-8-8.3-8-14.3c0-3.2,0.9-6.1,2.4-8.6c8.9,10.4,21.8,17.3,36.8,18
	c-0.3-1.3-0.5-2.6-0.5-3.9C46.6,11.6,53.8,4,63.7,4 M91.6,12L91.6,12 M63.7,0C52.1,0,42.9,9,42.6,20.6C31.2,19,20.9,13.3,13.3,4.5
	c-0.8-0.9-1.9-1.4-3-1.4c-0.1,0-0.2,0-0.3,0C8.7,3.2,7.6,3.9,6.9,5c-2,3.2-3,6.9-3,10.7c0,3,0.7,6,1.9,8.6c0,0-0.1,0-0.1,0.1
	c-1.2,0.7-1.9,2-1.9,3.4v0.2c0,5.9,2.5,11.3,6.5,15.2c-0.5,1-0.7,2.2-0.3,3.2c1.7,5.2,5.4,9.3,10.1,11.9c-3.7,1.4-7.7,2.1-11.8,2.1
	c-1.3,0-2.6-0.1-3.8-0.2c-0.2,0-0.3,0-0.5,0c-1.7,0-3.2,1.1-3.8,2.7c-0.6,1.8,0.1,3.7,1.7,4.7c9.1,5.6,18.9,8.3,30,8.3
	c34.3,0,54.8-26.9,54.8-52.9c0-0.1,0-0.1,0-0.2c3.1-2.4,5.8-5.2,8.1-8.5c0.5-0.7,0.8-1.5,0.8-2.4c0-2-1.4-3.6-3.2-3.9
	c0.2-0.5,0.4-1,0.6-1.6c0.5-1.6,0-3.3-1.2-4.4c-0.7-0.6-1.6-0.9-2.5-0.9c-0.7,0-1.3,0.2-2,0.5c-2.6,1.5-5.4,2.6-8.3,3.3
	C74.9,1.9,69.3,0,63.7,0L63.7,0z"/>
</svg>
