<?xml version="1.0" encoding="utf-8"?>
<!-- Generator: Adobe Illustrator 22.1.0, SVG Export Plug-In . SVG Version: 6.00 Build 0)  -->
<svg version="1.1" id="Layer_1" xmlns="http://www.w3.org/2000/svg" xmlns:xlink="http://www.w3.org/1999/xlink" x="0px" y="0px"
	 viewBox="0 0 96 96" style="enable-background:new 0 0 96 96;" xml:space="preserve">

<path class="st0" d="M96,44.5c0,2.6-2.2,5.5-5.1,5.5H50v31.6C50,89.5,43.6,96,35.6,96C27.9,96,22,90,22,82c0-1.1,0.9-2,2-2
	s2,0.9,2,2c0,5.8,4.1,10,9.6,10C41.4,92,46,87.3,46,81.6V50H5.1C2.4,50,0,47.5,0,44.6C0,22.2,22.8,10.1,46,9.5V2c0-1.1,0.9-2,2-2
	s2,0.9,2,2v7.5C73.2,10.1,96,22.1,96,44.5z M48,13.4c-21.9,0-44,10.7-44,31.2C4,45.2,4.6,46,5.1,46h85.8c0.4,0,1.1-0.8,1.1-1.5
	C92,24.1,69.9,13.4,48,13.4z"/>
</svg>
