<?xml version="1.0" encoding="utf-8"?>
<!-- Generator: Adobe Illustrator 22.1.0, SVG Export Plug-In . SVG Version: 6.00 Build 0)  -->
<svg version="1.1" id="Layer_1" xmlns="http://www.w3.org/2000/svg" xmlns:xlink="http://www.w3.org/1999/xlink" x="0px" y="0px"
	 viewBox="0 0 95.8 96" style="enable-background:new 0 0 95.8 96;" xml:space="preserve">

<path class="st0" d="M86.7,84l8.6,8.6c0.8,0.8,0.8,2,0,2.8c-0.4,0.4-0.9,0.6-1.4,0.6c-0.5,0-1-0.2-1.4-0.6l-8.6-8.6l-8.6,8.6
	c-0.4,0.4-0.9,0.6-1.4,0.6c-0.5,0-1-0.2-1.4-0.6c-0.8-0.8-0.8-2,0-2.8L81,84l-8.6-8.6c-0.8-0.8-0.8-2,0-2.8c0.8-0.8,2-0.8,2.8,0
	l8.6,8.6l8.6-8.6c0.8-0.8,2-0.8,2.8,0s0.8,2,0,2.8L86.7,84z M65.3,68.6c0.8,0.8,0.8,2,0,2.8c-0.4,0.4-0.9,0.6-1.4,0.6
	c-0.5,0-1-0.2-1.4-0.6l-4-4c0,0,0-0.1-0.1-0.1c0,0-0.1,0-0.1-0.1c-0.1-0.1-0.1-0.2-0.1-0.3c-0.1-0.1-0.1-0.2-0.2-0.3
	c0-0.1-0.1-0.2-0.1-0.4c0-0.1,0-0.2,0-0.4c0-0.1,0-0.2,0.1-0.4c0-0.1,0.1-0.2,0.1-0.4c0.1-0.1,0.1-0.2,0.2-0.3
	c0.1-0.1,0.1-0.2,0.2-0.3c0,0,0.1,0,0.1-0.1c0,0,0-0.1,0.1-0.1C69.7,55.3,70,38.2,70,38V20C68.3,10.4,57.1,4.1,48.1,4l-0.2,0
	c-9,0-20.2,6.7-21.9,16.4l0,18.1c0,0.2,0.1,16.7,11.3,25.9c0.1,0.1,0.2,0.2,0.3,0.3c0.1,0.1,0.2,0.2,0.2,0.3c0,0,0,0,0,0
	c0.1,0.2,0.1,0.4,0.2,0.6c0,0.1,0,0.1,0.1,0.2c0,0.1,0,0.3,0,0.4c0,0.1,0,0.2,0,0.4c0,0.1-0.1,0.1-0.1,0.2c-0.1,0.2-0.1,0.3-0.3,0.5
	c0,0,0,0,0,0c0,0-0.1,0.1-0.1,0.1c-0.1,0.1-0.3,0.3-0.4,0.4L4,85.8v5C4,91.5,4.5,92,5.1,92h58.8c1.1,0,2,0.9,2,2s-0.9,2-2,2H5.1
	C2.3,96,0,93.7,0,90.9v-6.2c0-0.7,0.4-1.4,1-1.8l31.5-17.3C22.1,55.1,22,39.3,22,38.5l0-18.3l0-0.3C24,8.1,36.8,0.1,47.7,0l0.2,0
	c10.9,0,23.9,8,25.9,19.9l0,0.3l0,18.3c0,0.7-0.1,17-11.1,27.5L65.3,68.6z"/>
</svg>
