<?xml version="1.0" encoding="utf-8"?>
<!-- Generator: Adobe Illustrator 22.1.0, SVG Export Plug-In . SVG Version: 6.00 Build 0)  -->
<svg version="1.1" id="Layer_1" xmlns="http://www.w3.org/2000/svg" xmlns:xlink="http://www.w3.org/1999/xlink" x="0px" y="0px"
	 viewBox="0 0 80 95.4" style="enable-background:new 0 0 80 95.4;" xml:space="preserve">

<path class="st0" d="M74,95.4H6c-3.3,0-6-2.7-6-6V37.8c0-3.3,2.7-6.3,6-6.3h11.3C13.2,19.2,19.6,5.9,31.8,1.5
	c6-2.2,12.5-1.9,18.4,0.8C56,5,60.4,9.8,62.6,15.7l1.3,3.5c0.4,1-0.1,2.2-1.2,2.6c-1,0.4-2.2-0.1-2.6-1.2l-1.3-3.5
	c-1.8-5-5.5-9-10.3-11.2c-4.8-2.2-10.3-2.5-15.3-0.7C22.8,9,17.4,20.4,21.2,30.7l0.3,0.8H74c3.3,0,6,3.1,6,6.3v51.6
	C80,92.7,77.3,95.4,74,95.4z M76,37.8c0-1.1-0.9-2.3-2-2.3H21.3c-0.1,0.1-0.2,0.2-0.4,0.2c-0.2,0.1-0.5,0.1-0.7,0.1
	c-0.4,0-0.8-0.1-1.1-0.4H6c-1.1,0-2,1.2-2,2.3v51.6c0,1.1,0.9,2,2,2h68c1.1,0,2-0.9,2-2V37.8z M42,63.2v10.3c0,1.1-0.9,2-2,2
	s-2-0.9-2-2V63.2c-2.3-0.8-4-3-4-5.6c0-3.3,2.7-6,6-6s6,2.7,6,6C46,60.2,44.3,62.4,42,63.2z M40,55.6c-1.1,0-2,0.9-2,2
	c0,1.1,0.9,2,2,2s2-0.9,2-2C42,56.5,41.1,55.6,40,55.6z"/>
</svg>
