<svg xmlns="http://www.w3.org/2000/svg" viewBox="0 0 29.001 29.001">
  <g id="Group_933" data-name="Group 933" transform="translate(9532 4621)">
    <path id="Intersection_1" data-name="Intersection 1" d="M0,14.5A14.5,14.5,0,1,1,14.5,29,14.5,14.5,0,0,1,0,14.5Z" transform="translate(-9532 -4621)" fill="#ffe3c3"/>
    <path id="friends" d="M15.48,11.9H4.846a.635.635,0,0,1-.632-.632V10.5a.277.277,0,0,1,.124-.223L8.254,8.13A5.166,5.166,0,0,1,6.94,4.772V2.466A3.325,3.325,0,0,1,10.138,0h.025a3.326,3.326,0,0,1,3.222,2.466V4.772a5.162,5.162,0,0,1-1.314,3.346l3.916,2.156a.246.246,0,0,1,.124.223v.768A.635.635,0,0,1,15.48,11.9Zm.136-1.252L11.526,8.4l-.037-.037c-.012-.012-.025-.012-.037-.025h0c-.012-.025-.025-.037-.037-.062s-.012-.012-.012-.025v-.1a.043.043,0,0,1,.012-.025.1.1,0,0,1,.025-.062h0l.037-.037c.012-.012.012-.025.025-.037a4.577,4.577,0,0,0,1.4-3.21V2.541A2.867,2.867,0,0,0,10.188.5h-.025A2.833,2.833,0,0,0,7.436,2.528V4.772a4.639,4.639,0,0,0,1.4,3.21c.012.012.012.025.025.037l.037.037h0c.012.025.012.037.025.062s.012.012.012.025v.1l-.012.012-.037.074h0l-.012.012a.27.27,0,0,1-.062.05l-4.1,2.256v.62a.138.138,0,0,0,.136.136H15.492a.138.138,0,0,0,.136-.136v-.62ZM6.854.657A2.815,2.815,0,0,0,5.974.5H5.949A2.833,2.833,0,0,0,3.222,2.528V4.772a4.577,4.577,0,0,0,1.4,3.21c.012.012.012.025.025.037l.037.037h0c.012.025.012.037.025.062a.043.043,0,0,0,.012.025v.1l-.012.012-.037.074h0l-.012.012a.27.27,0,0,1-.062.05L.5,10.646v.62a.138.138,0,0,0,.136.136h2.59a.248.248,0,1,1,0,.5H.632A.635.635,0,0,1,0,11.266V10.5a.277.277,0,0,1,.124-.223L4.04,8.13A5.166,5.166,0,0,1,2.727,4.772V2.466A3.325,3.325,0,0,1,5.924,0h.025A3.273,3.273,0,0,1,7.015.186.244.244,0,0,1,7.163.5.232.232,0,0,1,6.854.657Z" transform="translate(-9525.738 -4612.357)" fill="#c75c00"/>
  </g>
</svg>
