<?xml version="1.0" encoding="utf-8"?>
<!-- Generator: Adobe Illustrator 24.1.0, SVG Export Plug-In . SVG Version: 6.00 Build 0)  -->
<svg version="1.1" id="Layer_1" xmlns="http://www.w3.org/2000/svg" xmlns:xlink="http://www.w3.org/1999/xlink" x="0px" y="0px"
	 viewBox="0 0 121.6 85.1" style="enable-background:new 0 0 121.6 85.1;" xml:space="preserve">
<path d="M121,49.3L75.1,3.4c-2.1-2.1-4.9-3.3-7.8-3.3L10.3,0h0C7.5,0,4.9,1.1,3,3c-1.9,1.9-3,4.5-3,7.2v62.2c0,1.1,0.9,2,2,2h10.8
	c1,6.1,6.2,10.7,12.5,10.7s11.6-4.7,12.5-10.7H84c1,6.1,6.2,10.7,12.5,10.7c6.3,0,11.6-4.7,12.5-10.7h10.5c1.1,0,2-0.9,2-2V50.7
	C121.6,50.2,121.4,49.7,121,49.3z M25.4,81.1c-4.8,0-8.7-3.9-8.7-8.7c0-4.8,3.9-8.7,8.7-8.7s8.7,3.9,8.7,8.7
	C34.1,77.2,30.2,81.1,25.4,81.1z M96.5,81.1c-4.8,0-8.7-3.9-8.7-8.7c0-4.8,3.9-8.7,8.7-8.7c4.8,0,8.7,3.9,8.7,8.7
	C105.3,77.2,101.3,81.1,96.5,81.1z M117.6,70.4H109c-1-6.1-6.2-10.7-12.5-10.7S85,64.4,84,70.4H37.9c-1-6.1-6.2-10.7-12.5-10.7
	s-11.6,4.7-12.5,10.7H4V52.1h67.9v-4H4.1V10.2c0-1.6,0.6-3.2,1.8-4.4S8.6,4,10.3,4l0,0l57,0.1c1.9,0,3.7,0.8,5,2.1l45.3,45.3
	C117.6,51.5,117.6,70.4,117.6,70.4z"/>
</svg>
