<svg xmlns="http://www.w3.org/2000/svg" width="15.916" height="20" viewBox="0 0 15.916 20">
  <g id="Receipt" transform="translate(-90.479 -47.997)">
    <path id="Path_37756" data-name="Path 37756" d="M210.008,129.314h-2.825a.385.385,0,1,1,0-.769h2.825a.752.752,0,1,0,0-1.5H208.32a1.522,1.522,0,1,1,0-3.043h2.825a.385.385,0,1,1,0,.769H208.32a.752.752,0,0,0,0,1.5h1.688a1.522,1.522,0,1,1,0,3.043Z" transform="translate(-110.728 -72.346)" fill="#1d3261"/>
    <path id="Path_37757" data-name="Path 37757" d="M248.383,110.658a.385.385,0,0,1-.385-.385v-6.532a.385.385,0,0,1,.769,0v6.532A.385.385,0,0,1,248.383,110.658Z" transform="translate(-149.946 -52.698)" fill="#1d3261"/>
    <path id="Path_37758" data-name="Path 37758" d="M106.009,68a.385.385,0,0,1-.272-.113l-1.243-1.242-1.243,1.242a.384.384,0,0,1-.544,0l-1.243-1.242-1.243,1.242a.384.384,0,0,1-.544,0l-1.243-1.242-1.243,1.242a.384.384,0,0,1-.544,0l-1.243-1.242-1.243,1.242a.384.384,0,0,1-.544,0l-1.243-1.242-1.243,1.242a.385.385,0,0,1-.657-.272V48.382A.385.385,0,0,1,90.863,48h15.146a.385.385,0,0,1,.385.385V67.613A.385.385,0,0,1,106.009,68Zm-10.6-2.284a.383.383,0,0,1,.272.113l1.243,1.242,1.243-1.242a.384.384,0,0,1,.544,0l1.243,1.242,1.243-1.242a.384.384,0,0,1,.544,0l1.243,1.242,1.243-1.242a.384.384,0,0,1,.544,0l.858.858V48.767H91.248V66.684l.858-.858a.384.384,0,0,1,.544,0l1.243,1.242,1.243-1.242a.383.383,0,0,1,.272-.113Z" fill="#1d3261"/>
    <path id="Path_37759" data-name="Path 37759" d="M163.856,301.767h-8.992a.385.385,0,0,1,0-.769h8.992a.385.385,0,1,1,0,.769Z" transform="translate(-60.923 -240.836)" fill="#1d3261"/>
    <path id="Path_37760" data-name="Path 37760" d="M163.856,354.1h-8.992a.385.385,0,0,1,0-.769h8.992a.385.385,0,1,1,0,.769Z" transform="translate(-60.923 -290.656)" fill="#1d3261"/>
  </g>
</svg>
