<?xml version="1.0" encoding="utf-8"?>
<!-- Generator: Adobe Illustrator 22.1.0, SVG Export Plug-In . SVG Version: 6.00 Build 0)  -->
<svg version="1.1" id="Layer_1" xmlns="http://www.w3.org/2000/svg" xmlns:xlink="http://www.w3.org/1999/xlink" x="0px" y="0px"
	 viewBox="0 0 95.4 95.5" style="enable-background:new 0 0 95.4 95.5;" xml:space="preserve">

<path class="st0" d="M93.9,62.5C93,63.5,91.7,64,90.4,64c-1.3,0-2.6-0.5-3.5-1.5c-1.4-1.5-1.8-3.6-1.1-5.4l-9.4-9.5
	c2.4,10.2,0.7,23.3-4.9,30.9l3.4,3.4c0.8,0.8,0.8,2,0,2.8l-9.9,10c-0.4,0.4-0.9,0.6-1.4,0.6c-0.5,0-1-0.2-1.4-0.6l-9.9-10
	c-0.8-0.8-0.8-2,0-2.8l9.9-10c0.7-0.8,2.1-0.8,2.8,0l3.7,3.7c6.4-9.4,6.4-28.6-0.2-36L65,43.4c-0.4,0.4-0.9,0.6-1.4,0.6
	c-0.5,0-1-0.2-1.4-0.6l-9.9-10c-0.8-0.8-0.8-2,0-2.8l3.5-3.6c-7.4-6.8-26.4-7.1-36.1,2l3.5,3.6c0.8,0.8,0.8,2,0,2.8l-9.9,10
	c-0.4,0.4-0.9,0.6-1.4,0.6c-0.5,0-1-0.2-1.4-0.6l-9.9-10c-0.8-0.8-0.8-2,0-2.8l9.9-10c0.7-0.8,2.1-0.8,2.8,0l3.6,3.6
	c7.9-7.5,20.9-9.5,31-7.1l-9.4-9.5c-0.6,0.2-1.2,0.3-1.8,0.3c-1.3,0-2.6-0.5-3.5-1.5c-1.9-2-1.9-5.1,0-7.1c1.9-1.9,5.2-1.9,7,0
	c1.4,1.4,1.8,3.6,1.1,5.4l17.2,17.4l3.6-3.6c0.7-0.8,2.1-0.8,2.8,0l9.9,10c0.8,0.8,0.8,2,0,2.8l-3.6,3.6l17.3,17.4
	c1.8-0.7,3.9-0.3,5.3,1.1C95.8,57.4,95.8,60.6,93.9,62.5z M63.6,76.3l-7.1,7.2l7.1,7.2l7.1-7.2L63.6,76.3z M11.9,26.7l-7.1,7.2
	l7.1,7.2l7.1-7.2L11.9,26.7z M63.6,24.7l-7.1,7.2l7.1,7.2l7.1-7.2L63.6,24.7z"/>
</svg>
