<?xml version="1.0" encoding="utf-8"?>
<!-- Generator: Adobe Illustrator 22.1.0, SVG Export Plug-In . SVG Version: 6.00 Build 0)  -->
<svg version="1.1" id="Layer_1" xmlns="http://www.w3.org/2000/svg" xmlns:xlink="http://www.w3.org/1999/xlink" x="0px" y="0px"
	 viewBox="0 0 96 63.9" style="enable-background:new 0 0 96 63.9;" xml:space="preserve">

<path class="st0" d="M95,63.6c-0.3,0.2-0.6,0.2-1,0.2c-0.4,0-0.8-0.1-1.1-0.3L68,47.6v12.3c0,2.2-1.8,4-4,4H4c-2.2,0-4-1.8-4-4V4
	c0-2.2,1.8-4,4-4h60c2.2,0,4,1.8,4,4v12.3l24.9-16c0.6-0.4,1.4-0.4,2-0.1c0.6,0.4,1,1,1,1.8v59.9C96,62.6,95.6,63.3,95,63.6z
	 M92,5.6l-24.9,16c0,0-0.1,0-0.2,0.1c-0.1,0.1-0.2,0.1-0.4,0.1c-0.1,0-0.3,0.1-0.4,0.1c-0.1,0-0.1,0-0.2,0c-0.1,0-0.1,0-0.2,0
	c-0.1,0-0.3,0-0.4-0.1c-0.1,0-0.2-0.1-0.3-0.1c-0.1-0.1-0.2-0.1-0.3-0.2c-0.1-0.1-0.2-0.2-0.3-0.3c0-0.1-0.1-0.1-0.1-0.1
	c0,0,0-0.1-0.1-0.1c-0.1-0.1-0.1-0.2-0.2-0.4c0-0.1-0.1-0.3-0.1-0.4c0-0.1,0-0.1,0-0.2V3.9H4v56h60v-16c0-0.1,0-0.1,0-0.2
	c0-0.1,0-0.3,0.1-0.4c0-0.1,0.1-0.3,0.2-0.4c0,0,0-0.1,0.1-0.2c0-0.1,0.1-0.1,0.1-0.1c0.1-0.1,0.2-0.2,0.3-0.3
	c0.1-0.1,0.2-0.1,0.3-0.2c0.1-0.1,0.2-0.1,0.3-0.1c0.1,0,0.3-0.1,0.4-0.1c0.1,0,0.1,0,0.2,0c0.1,0,0.1,0,0.2,0c0.1,0,0.3,0,0.4,0.1
	c0.1,0,0.3,0.1,0.4,0.1c0,0,0.1,0,0.2,0.1l24.9,16V5.6z"/>
</svg>
