<?xml version="1.0" encoding="utf-8"?>
<!-- Generator: Adobe Illustrator 22.1.0, SVG Export Plug-In . SVG Version: 6.00 Build 0)  -->
<svg version="1.1" id="Layer_1" xmlns="http://www.w3.org/2000/svg" xmlns:xlink="http://www.w3.org/1999/xlink" x="0px" y="0px"
	 viewBox="0 0 96 83.9" style="enable-background:new 0 0 96 83.9;" xml:space="preserve">

<path class="st0" d="M74.7,73.8c-0.2,0.1-0.4,0.1-0.7,0.1c-0.8,0-1.6-0.5-1.9-1.3c-0.4-1,0.2-2.2,1.2-2.5C84.5,66.1,92,54.9,92,41.9
	c0-13-7.5-24.2-18.7-28.1c-1-0.4-1.6-1.5-1.2-2.5c0.4-1,1.5-1.6,2.5-1.2C87.4,14.5,96,27.3,96,41.9C96,56.6,87.5,69.3,74.7,73.8z
	 M80,41.9c0,7.7-6.3,14-14,14c-1.1,0-2-0.9-2-2c0-1.1,0.9-2,2-2c5.5,0,10-4.5,10-10c0-5.5-4.5-10-10-10c-1.1,0-2-0.9-2-2s0.9-2,2-2
	C73.7,28,80,34.2,80,41.9z M54,83.9c-0.4,0-0.9-0.1-1.2-0.4L23.3,59.9H8.1c-4.5,0-8.1-3.8-8.1-8.4V32.4C0,27.7,3.6,24,8.1,24h15.2
	L52.8,0.4c0.6-0.5,1.4-0.6,2.1-0.2C55.6,0.5,56,1.2,56,2v79.9c0,0.8-0.4,1.5-1.1,1.8C54.6,83.8,54.3,83.9,54,83.9z M52,6.2
	L25.2,27.5c-0.5,0.4-1.1,0.5-1.7,0.4H8c-2.3,0-4,2.1-4,4.5v19.2c0,2.4,1.9,4.4,4.1,4.4H24c0.1,0,0.2,0,0.2,0c0.1,0,0.3,0,0.4,0.1
	c0.1,0,0.2,0.1,0.4,0.2c0.1,0,0.2,0.1,0.2,0.1L52,77.7V6.2z"/>
</svg>
