<?xml version="1.0" encoding="utf-8"?>
<!-- Generator: Adobe Illustrator 22.1.0, SVG Export Plug-In . SVG Version: 6.00 Build 0)  -->
<svg version="1.1" id="Layer_1" xmlns="http://www.w3.org/2000/svg" xmlns:xlink="http://www.w3.org/1999/xlink" x="0px" y="0px"
	 viewBox="0 0 93.8 83.9" style="enable-background:new 0 0 93.8 83.9;" xml:space="preserve">

<path class="st0" d="M82.7,41.9l10.6,10.6c0.8,0.8,0.8,2,0,2.8c-0.4,0.4-0.9,0.6-1.4,0.6c-0.5,0-1-0.2-1.4-0.6L79.8,44.8L69.3,55.3
	c-0.4,0.4-0.9,0.6-1.4,0.6c-0.5,0-1-0.2-1.4-0.6c-0.8-0.8-0.8-2,0-2.8L77,41.9L66.4,31.4c-0.8-0.8-0.8-2,0-2.8c0.8-0.8,2-0.8,2.8,0
	l10.6,10.6l10.6-10.6c0.8-0.8,2-0.8,2.8,0c0.8,0.8,0.8,2,0,2.8L82.7,41.9z M54.8,83.7c-0.3,0.1-0.6,0.2-0.9,0.2
	c-0.4,0-0.9-0.1-1.2-0.4L23.2,59.9H8.1c-4.5,0-8.1-3.8-8.1-8.4V32.4C0,27.7,3.6,24,8.1,24h15.1L52.6,0.4c0.6-0.5,1.4-0.6,2.1-0.2
	c0.7,0.3,1.1,1,1.1,1.8v79.9C55.9,82.6,55.4,83.3,54.8,83.7z M52,5.9L25.2,27.5c-0.5,0.4-1.1,0.5-1.7,0.4H8c-2.3,0-4,2.1-4,4.5v19.2
	c0,2.4,1.8,4.4,4.1,4.4h15.8c0.1,0,0.2,0,0.3,0.1c0.1,0,0.3,0,0.4,0.1c0.1,0,0.2,0.1,0.4,0.2c0.1,0,0.2,0.1,0.2,0.1L52,77.9V5.9z"/>
</svg>
