<?xml version="1.0" encoding="utf-8"?>
<!-- Generator: Adobe Illustrator 22.1.0, SVG Export Plug-In . SVG Version: 6.00 Build 0)  -->
<svg version="1.1" id="Layer_1" xmlns="http://www.w3.org/2000/svg" xmlns:xlink="http://www.w3.org/1999/xlink" x="0px" y="0px"
	 viewBox="0 0 82 83.9" style="enable-background:new 0 0 82 83.9;" xml:space="preserve">

<path class="st0" d="M68,55.9c-1.1,0-2-0.9-2-2c0-1.1,0.9-2,2-2c5.5,0,10-4.5,10-10c0-5.5-4.5-10-10-10c-1.1,0-2-0.9-2-2s0.9-2,2-2
	c7.7,0,14,6.3,14,14S75.7,55.9,68,55.9z M54.9,83.7c-0.3,0.1-0.6,0.2-0.9,0.2c-0.4,0-0.9-0.1-1.2-0.4L23.3,59.9H8.1
	c-4.5,0-8.1-3.8-8.1-8.4V32.4C0,27.7,3.6,24,8.1,24h15.2L52.8,0.4c0.6-0.5,1.4-0.6,2.1-0.2C55.6,0.5,56,1.2,56,2v79.9
	C56,82.6,55.6,83.3,54.9,83.7z M52,6.2L25.2,27.5c-0.1,0.1-0.2,0.1-0.2,0.1c-0.1,0.1-0.2,0.1-0.4,0.2c-0.1,0-0.3,0.1-0.4,0.1
	c-0.1,0-0.2,0-0.2,0H8.1c-2.3,0-4.1,2-4.1,4.4v19.2c0,2.4,1.9,4.4,4.1,4.4H24c0.1,0,0.2,0,0.2,0c0.1,0,0.3,0,0.4,0.1
	c0.1,0,0.2,0.1,0.4,0.2c0.1,0,0.2,0.1,0.2,0.1L52,77.7V6.2z"/>
</svg>
