<?xml version="1.0" encoding="utf-8"?>
<!-- Generator: Adobe Illustrator 22.1.0, SVG Export Plug-In . SVG Version: 6.00 Build 0)  -->
<svg version="1.1" id="Layer_1" xmlns="http://www.w3.org/2000/svg" xmlns:xlink="http://www.w3.org/1999/xlink" x="0px" y="0px"
	 viewBox="0 0 96 89.8" style="enable-background:new 0 0 96 89.8;" xml:space="preserve">

<path class="st0" d="M87.6,89.8H8.1c-4.5,0-8.1-3.6-8.1-8.1V26.1c0-4.5,3.5-8.4,8-8.4h4.1V7.1c0-2.2,0.9-4.2,2.5-5.5
	c1.6-1.3,3.7-1.8,5.9-1.4l67.4,9c7.1,1.6,7.8,5.9,7.8,6.7c0,0,0,0,0,0c0,0,0,0.1,0,0.1v1.4c0.1,0.1,0.2,0.2,0.2,0.5v64
	C96,86.2,92.1,89.8,87.6,89.8z M87.2,13.1l-67.4-9c-1.1-0.2-2,0-2.7,0.5c-0.7,0.6-1,1.4-1,2.5v10.7H84c3.7,0,6.8-0.6,7.7-2
	C91.4,15.1,90.5,13.8,87.2,13.1z M92,21.8c-1.9,0.9-5.1,0-8,0H8c-2.3,0-4,2.1-4,4.4v55.5c0,2.3,1.8,4.1,4.1,4.1h79.5
	c2.3,0,4.4-1.7,4.4-4V21.8z M15.9,60c-3.3,0-6-2.7-6-6c0-3.3,2.7-6,6-6s6,2.7,6,6C21.9,57.3,19.2,60,15.9,60z M15.9,52
	c-1.1,0-2,0.9-2,2c0,1.1,0.9,2,2,2c1.1,0,2-0.9,2-2C17.9,52.9,17.1,52,15.9,52z"/>
</svg>
