<?xml version="1.0" encoding="utf-8"?>
<!-- Generator: Adobe Illustrator 22.1.0, SVG Export Plug-In . SVG Version: 6.00 Build 0)  -->
<svg version="1.1" id="Layer_1" xmlns="http://www.w3.org/2000/svg" xmlns:xlink="http://www.w3.org/1999/xlink" x="0px" y="0px"
	 viewBox="0 0 96.8 96.8" style="enable-background:new 0 0 96.8 96.8;" xml:space="preserve">

<path class="st0" d="M88.5,48.2c-5.5,5.5-12.6,8.3-19.9,8.3c-4,0-8-0.9-11.8-2.7l-34,39c0,0,0,0-0.1,0c0,0,0,0,0,0.1
	c-2.6,2.6-6,3.9-9.4,3.9s-6.8-1.3-9.4-3.9C1.4,90.4,0,87,0,83.5c0-3.6,1.4-6.9,3.9-9.4c0,0,0,0,0.1,0c0,0,0,0,0-0.1l38.9-34.1
	C38,29.2,40.2,16.7,48.6,8.3c6.7-6.7,15.3-9.4,24.3-7.8c0.7,0.1,1.3,0.7,1.6,1.4c0.2,0.7,0.1,1.5-0.5,2L62.9,15.5l3.2,9.5
	c0.9,2.7,3,4.8,5.7,5.7l9.5,3.2l11.7-11.7c0.5-0.5,1.3-0.7,2-0.5c0.7,0.2,1.2,0.8,1.4,1.6C98,32.3,95,41.7,88.5,48.2z M83.2,37.6
	c-0.5,0.5-1.3,0.7-2.1,0.5l-10.7-3.6c-3.9-1.3-6.9-4.4-8.2-8.2l-3.6-10.7c-0.2-0.7-0.1-1.5,0.5-2L68.3,4c-0.1,0-0.2,0-0.3,0
	c-6.1,0-11.9,2.4-16.6,7.1c-7.5,7.5-9.3,18.9-4.3,28.4c0,0.1,0,0.1,0,0.2c0.1,0.1,0.1,0.3,0.1,0.4c0,0.1,0,0.2,0,0.4
	c0,0.1,0,0.3,0,0.4c0,0.1,0,0.2-0.1,0.4c0,0.1-0.1,0.2-0.2,0.3c-0.1,0.1-0.1,0.2-0.2,0.3c0,0-0.1,0.1-0.1,0.1l-39.9,35
	C5,78.7,4,81,4,83.5C4,86,5,88.3,6.7,90c3.6,3.6,9.5,3.6,13.1,0l34.9-40c0,0,0.1-0.1,0.1-0.1c0.1-0.1,0.2-0.2,0.3-0.3
	c0.1-0.1,0.2-0.1,0.3-0.2c0.1-0.1,0.2-0.1,0.4-0.1c0.1,0,0.2,0,0.4,0c0.1,0,0.3,0,0.4,0c0.1,0,0.3,0.1,0.4,0.1c0.1,0,0.1,0,0.2,0
	c9.5,5,20.9,3.3,28.5-4.3c4.6-4.6,7.1-10.9,7.1-17.3L83.2,37.6z"/>
</svg>
