<?xml version="1.0" encoding="utf-8"?>
<!-- Generator: Adobe Illustrator 22.1.0, SVG Export Plug-In . SVG Version: 6.00 Build 0)  -->
<svg version="1.1" id="Layer_1" xmlns="http://www.w3.org/2000/svg" xmlns:xlink="http://www.w3.org/1999/xlink" x="0px" y="0px"
	 viewBox="0 0 96 96" style="enable-background:new 0 0 96 96;" xml:space="preserve">

<g>
	<path class="st0" d="M94.8,6.1L6,95c-1.4,1.4-3.6,1.4-4.9,0l0,0c-1.4-1.4-1.4-3.6,0-4.9L89.9,1.2c1.4-1.4,3.6-1.4,4.9,0v0
		C96.2,2.5,96.2,4.8,94.8,6.1z"/>
	<path class="st0" d="M89.8,94.9L1,6c-1.4-1.4-1.4-3.6,0-4.9l0,0c1.4-1.4,3.6-1.4,4.9,0L94.8,90c1.4,1.4,1.4,3.6,0,4.9l0,0
		C93.4,96.3,91.2,96.3,89.8,94.9z"/>
</g>
</svg>
