<?xml version="1.0" encoding="utf-8"?>
<!-- Generator: Adobe Illustrator 22.1.0, SVG Export Plug-In . SVG Version: 6.00 Build 0)  -->
<svg version="1.1" id="Layer_1" xmlns="http://www.w3.org/2000/svg" xmlns:xlink="http://www.w3.org/1999/xlink" x="0px" y="0px"
	 viewBox="0 0 96 72" style="enable-background:new 0 0 96 72;" xml:space="preserve">

<path class="st0" d="M92.2,62.1c-1.6,3.7-6,7.2-10,7.9c-0.4,0.1-11,2-34.2,2H48c-23.2,0-33.7-1.9-34.2-2c-4-0.7-8.4-4.2-10-7.9
	C3.7,61.7,0,53.2,0,36C0,18.8,3.7,10.3,3.8,9.9c1.6-3.7,6-7.2,10-7.9c0.4-0.1,11-2,34.2-2c23.3,0,33.8,1.9,34.2,2
	c4,0.7,8.3,4.2,10,7.9C92.3,10.3,96,18.8,96,36S92.3,61.7,92.2,62.1z M88.5,11.5c-1.1-2.5-4.4-5.1-7.1-5.6C81.4,5.9,70.8,4,48,4
	C25.2,4,14.6,5.9,14.5,5.9c-2.7,0.5-6,3.1-7.1,5.6C7.4,11.6,4,19.7,4,36s3.4,24.4,3.5,24.5c1.1,2.5,4.4,5.1,7.1,5.6
	c0.1,0,10.7,1.9,33.4,1.9H48c22.7,0,33.3-1.9,33.4-1.9c2.7-0.5,6-3.1,7.1-5.6c0-0.1,3.5-8.2,3.5-24.5C92,19.6,88.6,11.6,88.5,11.5z
	 M39,53.7c-0.3,0.2-0.7,0.3-1,0.3c-0.3,0-0.7-0.1-1-0.3c-0.6-0.4-1-1-1-1.7V20c0-0.7,0.4-1.4,1-1.7c0.6-0.4,1.4-0.4,2,0l28,16
	c0.6,0.4,1,1,1,1.7s-0.4,1.4-1,1.7L39,53.7z M40,23.4v25.1L62,36L40,23.4z"/>
</svg>
