<?xml version="1.0" encoding="utf-8"?>
<!-- Generator: Adobe Illustrator 22.1.0, SVG Export Plug-In . SVG Version: 6.00 Build 0)  -->
<svg version="1.1" id="Layer_1" xmlns="http://www.w3.org/2000/svg" xmlns:xlink="http://www.w3.org/1999/xlink" x="0px" y="0px"
	 viewBox="0 0 95.8 96" style="enable-background:new 0 0 95.8 96;" xml:space="preserve">

<path class="st0" d="M95.2,95.4c-0.4,0.4-0.9,0.6-1.4,0.6c-0.5,0-1-0.2-1.4-0.6L59.8,62.8C53.5,68.5,45.1,72,35.9,72
	C16.1,72,0,55.8,0,36S16.1,0,35.9,0c19.8,0,35.9,16.1,35.9,36c0,9.2-3.5,17.6-9.2,24l32.6,32.6C96,93.4,96,94.6,95.2,95.4z M67.9,36
	c0-17.6-14.3-32-31.9-32C18.3,4,4,18.4,4,36s14.3,32,31.9,32C53.5,68,67.9,53.6,67.9,36z M51.9,38H20c-1.1,0-2-0.9-2-2s0.9-2,2-2
	h31.9c1.1,0,2,0.9,2,2S53,38,51.9,38z"/>
</svg>
